<svg width="45" height="62" viewBox="0 0 45 62" fill="none" xmlns="http://www.w3.org/2000/svg">
<path d="M39.7263 25.4891L28.4711 42.0724C27.9174 42.887 27.2087 43.5846 26.3854 44.1254C25.562 44.6661 24.6403 45.0394 23.6727 45.2239C22.7051 45.4084 21.7107 45.4005 20.7462 45.2007C19.7817 45.0009 18.8659 44.613 18.0513 44.0593C17.2367 43.5056 16.5391 42.7969 15.9983 41.9735C15.4576 41.1502 15.0843 40.2285 14.8998 39.2609C14.5272 37.3068 14.9461 35.2847 16.0644 33.6395L30.5502 12.0536L39.7263 25.4891ZM15.2475 47.9687L15.1124 47.8765C12.4954 46.0087 10.7126 43.1915 10.1451 40.0268C9.5776 36.8621 10.2703 33.6009 12.0752 30.9401L27.6389 7.77879L22.3169 0L4.01385 26.7912L3.88794 26.9785C1.34353 30.6914 -0.0123388 35.09 8.46158e-05 39.591C-9.41237e-05 41.01 0.133574 42.4259 0.399312 43.8198C0.460731 44.1269 0.528293 44.434 0.601996 44.7595L0.703339 45.171C0.749403 45.3461 0.795468 45.515 0.841533 45.6839C0.887597 45.8528 0.912165 45.9295 0.949017 46.0493C1.12406 46.6359 1.32675 47.2132 1.56321 47.7783L1.71983 48.1652C1.87952 48.5491 2.04843 48.9268 2.23269 49.2984C2.29103 49.4243 2.35553 49.5502 2.41387 49.6731C5.08533 54.9328 9.72837 58.9226 15.3302 60.7722C20.9319 62.6218 27.0379 62.1811 32.316 59.5463L15.5607 48.1836L15.2475 47.9687ZM44.2467 35.347C44.2252 35.2333 44.2007 35.1197 44.1761 35.0061C44.1362 34.8065 44.0932 34.6068 44.0441 34.4072C44.0133 34.2721 43.9765 34.1308 43.9427 33.9927C43.6697 32.938 43.3207 31.9045 42.8986 30.9002C42.831 30.7405 42.7604 30.5931 42.6898 30.4242C42.6191 30.2553 42.5516 30.1171 42.484 29.9789L32.448 44.7687C30.926 47.0168 28.6993 48.6947 26.1188 49.5379L36.6522 56.6872C39.1558 54.5937 41.1687 51.9756 42.5484 49.0182C43.9282 46.0607 44.6411 42.8361 44.6368 39.5726C44.64 38.1549 44.5094 36.7401 44.2467 35.347Z" fill="url(#paint0_linear)"/>
<defs>
<linearGradient id="paint0_linear" x1="22.323" y1="61.8986" x2="22.323" y2="0" gradientUnits="userSpaceOnUse">
<stop stop-color="#F9371E"/>
<stop offset="0.09" stop-color="#FA4520"/>
<stop offset="0.35" stop-color="#FC6923"/>
<stop offset="0.6" stop-color="#FE8226"/>
<stop offset="0.82" stop-color="#FF9227"/>
<stop offset="1" stop-color="#FF9728"/>
</linearGradient>
</defs>
</svg>
