<?xml version="1.0" standalone="no"?>
<!DOCTYPE svg PUBLIC "-//W3C//DTD SVG 20010904//EN"
 "http://www.w3.org/TR/2001/REC-SVG-20010904/DTD/svg10.dtd">
<svg version="1.0" xmlns="http://www.w3.org/2000/svg"
 width="1104.000000pt" height="1104.000000pt" viewBox="0 0 1104.000000 1104.000000"
 preserveAspectRatio="xMidYMid meet">
<metadata>
Created by potrace 1.14, written by Peter Selinger 2001-2017
</metadata>
<g transform="translate(0.000000,1104.000000) scale(0.100000,-0.100000)"
fill="#000000" stroke="none">
<path d="M5329 10854 c-68 -102 -129 -190 -134 -197 -10 -11 -218 -316 -298
-435 -17 -26 -33 -49 -36 -52 -4 -3 -33 -45 -66 -95 -33 -49 -63 -91 -67 -93
-5 -2 -8 -9 -8 -16 0 -7 -9 -21 -20 -31 -11 -10 -20 -24 -20 -32 0 -7 -4 -13
-10 -13 -5 0 -10 -7 -10 -15 0 -8 -4 -15 -8 -15 -5 0 -15 -12 -23 -27 -8 -16
-17 -30 -20 -33 -3 -3 -25 -34 -49 -70 -24 -36 -47 -66 -52 -68 -4 -2 -8 -7
-8 -12 0 -7 -131 -204 -157 -235 -4 -6 -39 -57 -78 -115 -38 -58 -73 -106 -77
-108 -4 -2 -8 -8 -8 -13 0 -5 -27 -47 -60 -93 -33 -47 -60 -88 -60 -91 0 -4
-6 -13 -12 -20 -7 -8 -17 -20 -23 -27 -13 -17 -167 -244 -180 -265 -5 -10 -14
-23 -20 -29 -5 -7 -39 -55 -75 -108 -214 -317 -280 -413 -294 -428 -9 -10 -16
-21 -16 -24 0 -3 -27 -44 -60 -92 -33 -48 -65 -94 -70 -102 -62 -92 -281 -408
-289 -417 -6 -7 -11 -16 -11 -21 0 -5 -11 -22 -25 -38 -14 -16 -25 -32 -25
-36 0 -4 -6 -13 -13 -20 -6 -7 -39 -53 -72 -103 -32 -49 -62 -92 -65 -95 -3
-3 -24 -34 -48 -70 -23 -36 -51 -76 -62 -88 -11 -13 -20 -30 -20 -38 0 -8 -4
-14 -9 -14 -6 0 -16 -11 -23 -25 -20 -39 -201 -300 -210 -303 -4 -2 -8 -8 -8
-12 0 -5 -46 -76 -102 -157 -57 -82 -112 -165 -122 -184 -10 -19 -27 -43 -36
-54 -9 -11 -20 -27 -24 -35 -3 -8 -24 -42 -46 -75 -22 -33 -45 -72 -51 -87 -6
-16 -15 -28 -20 -28 -5 0 -9 -9 -9 -19 0 -11 -3 -21 -8 -23 -4 -1 -23 -33 -42
-70 -19 -38 -43 -83 -52 -100 -61 -117 -220 -527 -244 -630 -2 -10 -6 -26 -9
-35 -36 -137 -52 -203 -49 -203 2 0 -1 -11 -6 -24 -5 -13 -11 -44 -15 -67 -3
-24 -8 -51 -11 -60 -3 -10 -7 -31 -9 -48 -18 -120 -28 -190 -31 -231 -1 -19
-3 -35 -4 -35 -7 0 -14 -210 -14 -405 0 -235 8 -386 29 -515 2 -16 7 -48 10
-70 4 -22 13 -76 21 -120 9 -44 18 -93 20 -110 3 -16 10 -48 16 -70 5 -22 10
-40 9 -40 -1 0 10 -40 24 -90 15 -49 28 -97 30 -105 2 -8 4 -15 5 -15 1 0 3
-7 5 -15 11 -53 110 -322 145 -395 28 -59 43 -99 42 -107 -1 -5 2 -8 8 -8 6 0
9 -3 8 -7 -2 -8 52 -124 62 -133 3 -3 16 -27 29 -55 14 -27 31 -58 39 -67 9
-10 11 -18 6 -18 -5 0 -4 -4 2 -8 6 -4 25 -34 44 -67 19 -33 37 -62 40 -65 4
-3 15 -21 25 -40 10 -19 21 -37 25 -40 4 -3 16 -19 26 -35 39 -62 138 -195
146 -195 4 0 8 -5 8 -11 0 -6 15 -28 32 -48 18 -21 42 -49 53 -63 101 -131
389 -415 538 -531 16 -12 47 -37 70 -56 23 -18 71 -54 107 -79 36 -26 67 -50
68 -54 2 -5 8 -8 12 -8 12 0 104 -62 108 -72 2 -4 8 -8 13 -8 5 0 37 -17 71
-38 146 -89 345 -190 513 -260 110 -46 278 -109 315 -117 8 -2 16 -4 18 -5 1
-2 5 -3 10 -5 4 -1 14 -4 22 -7 29 -12 211 -60 243 -65 17 -3 39 -9 48 -14 9
-4 18 -6 21 -4 2 2 22 0 44 -6 21 -6 48 -12 59 -14 11 -1 47 -7 80 -13 33 -6
78 -13 100 -16 22 -3 54 -7 72 -10 17 -3 71 -8 120 -12 48 -4 104 -8 123 -10
60 -6 432 -6 500 0 108 10 220 21 285 30 83 11 131 18 135 21 3 2 26 6 50 10
25 3 65 11 90 17 25 5 52 11 60 13 8 2 44 11 80 20 36 9 70 18 75 20 40 9 82
21 165 48 52 17 100 32 105 33 9 2 81 29 130 49 11 5 22 9 25 10 7 2 61 24 80
32 8 3 18 5 23 5 4 -1 7 2 7 8 0 5 4 10 9 10 6 0 49 18 97 40 l87 41 -84 56
c-46 31 -85 60 -87 65 -2 4 -8 8 -14 8 -5 0 -51 29 -101 64 -107 74 -384 263
-507 344 -47 31 -94 65 -104 74 -11 10 -24 18 -28 18 -5 0 -14 5 -21 10 -27
23 -227 159 -227 154 0 -3 -6 1 -13 8 -16 16 -349 243 -404 275 -21 13 -33 23
-28 23 6 0 -5 8 -23 18 -30 15 -320 210 -332 222 -3 3 -66 46 -140 96 -308
208 -361 243 -392 266 -18 13 -41 28 -50 33 -17 10 -253 171 -340 232 -26 18
-52 33 -58 33 -5 0 -10 3 -10 8 0 4 -23 23 -52 42 -138 93 -428 363 -428 399
0 6 -4 11 -9 11 -12 0 -151 191 -151 207 0 2 -11 19 -24 36 -77 102 -229 482
-262 652 -2 11 -6 31 -9 45 -10 49 -16 85 -21 115 -2 17 -6 48 -10 70 -7 54
-13 428 -6 439 3 5 6 30 8 55 3 58 28 194 55 291 11 41 21 82 23 90 3 8 9 27
14 41 6 15 8 30 5 33 -4 3 -1 6 5 6 7 0 12 7 12 15 0 36 155 365 171 365 5 0
8 3 7 8 -2 7 18 48 34 66 19 23 328 490 328 497 0 4 3 9 8 11 11 5 112 155
112 166 0 6 3 12 8 14 9 4 62 74 62 82 0 9 74 110 82 114 5 2 8 8 8 13 0 8
158 249 170 259 4 3 9 12 13 20 6 14 226 342 244 365 5 6 22 31 38 57 17 27
33 48 38 48 4 0 7 7 7 15 0 8 5 15 11 15 5 0 8 4 5 9 -4 5 -3 11 1 13 5 1 27
32 51 68 23 36 49 74 57 85 14 18 97 141 135 199 44 67 100 152 107 161 5 6
49 71 98 145 49 74 95 141 102 148 7 7 13 17 13 22 0 5 6 15 13 22 6 7 102
148 212 313 110 165 202 302 205 305 3 3 41 59 84 125 44 66 83 122 88 123 4
2 8 8 8 12 0 12 191 294 201 298 5 2 9 8 9 13 0 8 87 147 100 159 3 3 40 58
83 123 l78 117 -53 78 c-29 42 -55 79 -58 82 -13 13 -70 102 -70 109 0 5 -4
11 -8 13 -5 2 -60 80 -123 173 -63 94 -116 172 -119 175 -14 14 -70 102 -70
109 0 5 -3 11 -7 13 -11 5 -65 78 -58 78 4 0 0 7 -7 15 -34 37 -138 191 -138
204 0 5 -7 11 -15 15 -8 3 -15 12 -15 20 0 8 -3 16 -7 18 -11 5 -53 66 -53 77
0 5 -4 11 -8 13 -5 2 -28 32 -52 68 -83 125 -59 134 -201 -76z"/>
<path d="M6893 8895 c-7 -8 -13 -18 -13 -24 0 -5 -7 -11 -15 -15 -8 -3 -15
-11 -15 -19 0 -7 -8 -22 -17 -33 -16 -17 -160 -229 -188 -276 -12 -20 -286
-428 -298 -443 -4 -5 -29 -44 -57 -85 -27 -41 -53 -80 -57 -85 -9 -12 -243
-362 -258 -387 -34 -56 -170 -254 -177 -256 -4 -2 -8 -10 -8 -17 0 -8 -6 -20
-13 -27 -7 -7 -44 -60 -82 -118 -39 -58 -73 -106 -77 -108 -5 -2 -8 -9 -8 -16
0 -7 -8 -21 -17 -32 -22 -24 -83 -113 -83 -120 0 -3 -9 -14 -20 -26 -11 -12
-20 -28 -20 -35 0 -7 -4 -13 -10 -13 -5 0 -10 -6 -10 -13 0 -7 -11 -25 -25
-40 -14 -15 -23 -27 -19 -27 4 0 -2 -10 -13 -22 -10 -13 -37 -50 -58 -83 -21
-33 -42 -62 -45 -65 -4 -3 -9 -9 -11 -15 -2 -5 -35 -57 -74 -114 -38 -57 -82
-122 -97 -144 -14 -23 -31 -48 -37 -57 -6 -8 -34 -49 -61 -90 -27 -41 -54 -80
-59 -86 -4 -5 -14 -21 -21 -35 -7 -13 -16 -26 -19 -29 -4 -3 -42 -59 -86 -125
-43 -66 -83 -121 -87 -123 -4 -2 -8 -7 -8 -11 0 -5 -50 -82 -111 -172 -61 -90
-127 -190 -147 -223 -20 -32 -42 -63 -47 -70 -21 -24 -149 -225 -150 -236 -1
-3 -11 -25 -24 -50 -13 -25 -38 -88 -56 -141 -29 -84 -39 -123 -50 -194 -2
-11 -4 -20 -5 -20 -12 0 -18 -262 -8 -345 13 -106 16 -124 18 -130 1 -3 3 -9
4 -15 11 -58 20 -92 29 -102 5 -7 7 -13 3 -13 -13 0 86 -220 137 -305 21 -35
51 -80 62 -91 5 -6 24 -29 40 -50 100 -128 299 -282 455 -352 164 -73 238 -94
410 -118 86 -13 295 -7 375 10 18 3 103 19 115 21 3 0 11 4 18 9 7 4 16 5 19
2 3 -3 11 -2 17 3 6 5 29 14 51 21 22 7 65 24 95 38 30 14 58 24 63 24 4 -1 7
2 7 7 0 8 21 17 44 19 5 0 13 7 18 16 5 9 13 16 19 16 9 0 82 45 106 65 6 5
30 26 54 45 45 37 117 108 160 157 41 46 209 290 209 302 0 6 3 11 8 11 4 0
23 25 42 55 19 30 38 55 43 55 4 0 7 5 7 10 0 9 74 124 90 140 3 3 10 13 15
22 6 9 69 104 141 210 268 394 359 529 369 546 6 9 12 19 15 22 12 11 100 141
100 148 0 4 11 19 25 34 14 15 25 30 25 32 0 3 26 43 57 88 31 46 80 118 110
161 29 42 53 82 53 87 0 6 4 10 9 10 5 0 13 9 16 20 3 11 12 26 20 33 20 21
165 236 165 247 0 4 4 10 8 12 4 2 75 102 157 223 81 121 151 222 155 225 4 3
9 10 11 15 7 19 164 250 172 253 4 2 7 10 7 18 0 8 4 14 8 14 5 0 14 11 20 25
11 24 4 37 -91 176 -56 82 -106 157 -112 166 -10 17 -19 29 -42 57 -7 8 -13
18 -13 21 0 7 -38 62 -62 89 -10 11 -18 24 -18 28 0 5 -8 18 -18 29 -11 10
-25 32 -33 47 -8 15 -17 29 -20 32 -3 3 -41 57 -84 120 -43 63 -119 175 -169
248 -50 73 -95 140 -101 150 -5 9 -13 19 -16 22 -11 10 -214 310 -231 342 -10
18 -18 29 -18 23 -1 -5 -8 4 -17 20 -9 17 -28 46 -42 65 -14 19 -30 42 -36 52
-33 53 -180 264 -187 266 -4 2 -8 8 -8 14 0 6 -15 31 -34 57 -71 98 -106 151
-106 161 0 5 -3 10 -7 10 -5 0 -35 43 -68 95 -33 51 -62 94 -65 94 -3 0 -11
-6 -17 -14z"/>
<path d="M8950 5667 c-30 -45 -60 -88 -67 -95 -7 -7 -13 -19 -13 -27 0 -7 -4
-15 -8 -17 -5 -1 -33 -39 -62 -83 -29 -44 -56 -82 -59 -85 -3 -3 -10 -13 -16
-22 -27 -47 -230 -343 -237 -346 -4 -2 -8 -10 -8 -18 0 -8 -4 -14 -9 -14 -5 0
-11 -8 -15 -17 -4 -15 -116 -183 -144 -218 -10 -13 -94 -135 -107 -156 -21
-34 -170 -254 -175 -259 -3 -3 -19 -26 -35 -52 -17 -27 -33 -48 -37 -48 -5 0
-8 -6 -8 -14 0 -8 -3 -16 -7 -18 -9 -3 -53 -64 -53 -73 0 -8 -74 -110 -82
-113 -5 -2 -8 -8 -8 -14 0 -8 -94 -152 -110 -168 -14 -14 -110 -162 -110 -170
0 -4 -4 -10 -8 -12 -5 -1 -51 -66 -103 -143 -51 -77 -99 -146 -106 -153 -7 -7
-13 -20 -13 -28 0 -8 -4 -14 -8 -14 -4 0 -33 -39 -64 -87 -31 -49 -65 -97 -76
-108 -10 -12 -21 -26 -23 -32 -6 -18 -134 -165 -205 -237 -93 -92 -309 -266
-332 -266 -6 0 -12 -4 -14 -8 -13 -32 -421 -232 -473 -232 -7 0 -16 -3 -19 -8
-4 -7 25 -29 199 -146 50 -33 92 -63 95 -66 12 -13 70 -50 78 -50 5 0 17 -9
27 -20 10 -11 24 -20 31 -20 7 0 14 -4 16 -8 2 -4 44 -35 93 -67 50 -33 92
-62 95 -65 3 -3 88 -61 190 -129 102 -68 195 -131 206 -140 12 -9 30 -21 40
-28 11 -7 43 -28 72 -48 28 -19 76 -51 105 -70 28 -19 57 -39 63 -44 6 -5 51
-35 100 -67 49 -32 91 -61 94 -64 14 -15 100 -70 109 -70 6 0 11 -4 11 -9 0
-5 9 -13 20 -16 11 -3 27 -13 35 -22 9 -8 50 -37 91 -64 l76 -50 56 48 c72 60
309 297 387 387 135 155 395 514 395 546 0 5 5 10 10 10 6 0 10 4 10 9 0 5 24
51 53 102 108 191 209 417 283 632 19 56 37 109 39 117 40 148 57 210 64 235
6 17 12 46 15 65 3 19 10 50 15 69 6 19 8 38 5 42 -3 5 0 9 6 9 6 0 9 3 6 8
-2 4 0 30 5 57 5 28 12 68 14 90 3 22 8 51 11 65 3 14 7 50 9 80 2 30 8 89 12
130 16 151 8 613 -12 765 -3 17 -7 53 -10 80 -5 43 -22 149 -41 250 -3 17 -15
68 -26 115 -12 47 -22 92 -23 100 -1 8 -5 22 -8 30 -2 8 -15 49 -27 90 -53
182 -186 527 -214 557 -9 10 -24 -6 -66 -70z"/>
</g>
</svg>
