<svg width="128" height="128" viewBox="0 0 128 128" fill="none" xmlns="http://www.w3.org/2000/svg">
<path d="M117.333 12.8H106.667V8.53333C106.667 6.27015 105.768 4.09967 104.167 2.49936C102.567 0.899045 100.397 0 98.1333 0C95.8702 0 93.6997 0.899045 92.0994 2.49936C90.4991 4.09967 89.6 6.27015 89.6 8.53333V12.8H72.5333V8.53333C72.5333 6.27015 71.6343 4.09967 70.034 2.49936C68.4337 0.899045 66.2632 0 64 0C61.7368 0 59.5663 0.899045 57.966 2.49936C56.3657 4.09967 55.4667 6.27015 55.4667 8.53333V12.8H38.4V8.53333C38.4 6.27015 37.501 4.09967 35.9006 2.49936C34.3003 0.899045 32.1298 0 29.8667 0C27.6035 0 25.433 0.899045 23.8327 2.49936C22.2324 4.09967 21.3333 6.27015 21.3333 8.53333V12.8H10.6667C7.83769 12.8 5.12458 13.9238 3.12419 15.9242C1.12381 17.9246 0 20.6377 0 23.4667V108.8C0 111.629 1.12381 114.342 3.12419 116.342C5.12458 118.343 7.83769 119.467 10.6667 119.467H70.4C70.9658 119.467 71.5084 119.242 71.9085 118.842C72.3086 118.442 72.5333 117.899 72.5333 117.333C72.5333 116.768 72.3086 116.225 71.9085 115.825C71.5084 115.425 70.9658 115.2 70.4 115.2H10.6667C8.97084 115.195 7.34592 114.519 6.14678 113.32C4.94764 112.121 4.27173 110.496 4.26667 108.8V42.6667H123.733V78.9333C123.733 79.4991 123.958 80.0417 124.358 80.4418C124.758 80.8419 125.301 81.0667 125.867 81.0667C126.432 81.0667 126.975 80.8419 127.375 80.4418C127.775 80.0417 128 79.4991 128 78.9333V23.4667C128 20.6377 126.876 17.9246 124.876 15.9242C122.875 13.9238 120.162 12.8 117.333 12.8ZM93.8667 8.53333C93.8667 7.40174 94.3162 6.3165 95.1163 5.51634C95.9165 4.71619 97.0017 4.26667 98.1333 4.26667C99.2649 4.26667 100.35 4.71619 101.15 5.51634C101.95 6.3165 102.4 7.40174 102.4 8.53333V21.3333C102.4 22.4649 101.95 23.5502 101.15 24.3503C100.35 25.1505 99.2649 25.6 98.1333 25.6C97.0017 25.6 95.9165 25.1505 95.1163 24.3503C94.3162 23.5502 93.8667 22.4649 93.8667 21.3333V8.53333ZM59.7333 8.53333C59.7333 7.40174 60.1829 6.3165 60.983 5.51634C61.7832 4.71619 62.8684 4.26667 64 4.26667C65.1316 4.26667 66.2168 4.71619 67.017 5.51634C67.8172 6.3165 68.2667 7.40174 68.2667 8.53333V21.3333C68.2667 22.4649 67.8172 23.5502 67.017 24.3503C66.2168 25.1505 65.1316 25.6 64 25.6C62.8684 25.6 61.7832 25.1505 60.983 24.3503C60.1829 23.5502 59.7333 22.4649 59.7333 21.3333V8.53333ZM25.6 8.53333C25.6 7.40174 26.0495 6.3165 26.8497 5.51634C27.6498 4.71619 28.7351 4.26667 29.8667 4.26667C30.9983 4.26667 32.0835 4.71619 32.8837 5.51634C33.6838 6.3165 34.1333 7.40174 34.1333 8.53333V21.3333C34.1333 22.4649 33.6838 23.5502 32.8837 24.3503C32.0835 25.1505 30.9983 25.6 29.8667 25.6C28.7351 25.6 27.6498 25.1505 26.8497 24.3503C26.0495 23.5502 25.6 22.4649 25.6 21.3333V8.53333ZM123.733 38.4H4.26667V23.4667C4.27173 21.7708 4.94764 20.1459 6.14678 18.9468C7.34592 17.7476 8.97084 17.0717 10.6667 17.0667H21.3333V21.3333C21.3333 23.5965 22.2324 25.767 23.8327 27.3673C25.433 28.9676 27.6035 29.8667 29.8667 29.8667C32.1298 29.8667 34.3003 28.9676 35.9006 27.3673C37.501 25.767 38.4 23.5965 38.4 21.3333V17.0667H55.4667V21.3333C55.4667 23.5965 56.3657 25.767 57.966 27.3673C59.5663 28.9676 61.7368 29.8667 64 29.8667C66.2632 29.8667 68.4337 28.9676 70.034 27.3673C71.6343 25.767 72.5333 23.5965 72.5333 21.3333V17.0667H89.6V21.3333C89.6 23.5965 90.4991 25.767 92.0994 27.3673C93.6997 28.9676 95.8702 29.8667 98.1333 29.8667C100.397 29.8667 102.567 28.9676 104.167 27.3673C105.768 25.767 106.667 23.5965 106.667 21.3333V17.0667H117.333C119.029 17.0717 120.654 17.7476 121.853 18.9468C123.052 20.1459 123.728 21.7708 123.733 23.4667V38.4Z" fill="white"/>
<path d="M59.7327 57.6001C59.7327 56.4685 59.2832 55.3832 58.483 54.5831C57.6828 53.7829 56.5976 53.3334 55.466 53.3334H46.9327C45.8011 53.3334 44.7158 53.7829 43.9157 54.5831C43.1155 55.3832 42.666 56.4685 42.666 57.6001V64.0001C42.666 65.1317 43.1155 66.2169 43.9157 67.0171C44.7158 67.8172 45.8011 68.2667 46.9327 68.2667H55.466C56.5976 68.2667 57.6828 67.8172 58.483 67.0171C59.2832 66.2169 59.7327 65.1317 59.7327 64.0001V57.6001ZM46.9327 64.0001V57.6001H55.466V64.0001H46.9327Z" fill="white"/>
<path d="M34.1331 57.6001C34.1331 56.4685 33.6835 55.3832 32.8834 54.5831C32.0832 53.7829 30.998 53.3334 29.8664 53.3334H21.3331C20.2015 53.3334 19.1162 53.7829 18.3161 54.5831C17.5159 55.3832 17.0664 56.4685 17.0664 57.6001V64.0001C17.0664 65.1317 17.5159 66.2169 18.3161 67.0171C19.1162 67.8172 20.2015 68.2667 21.3331 68.2667H29.8664C30.998 68.2667 32.0832 67.8172 32.8834 67.0171C33.6835 66.2169 34.1331 65.1317 34.1331 64.0001V57.6001ZM21.3331 64.0001V57.6001H29.8664V64.0001H21.3331Z" fill="white"/>
<path d="M106.666 68.2667C107.798 68.2667 108.883 67.8172 109.683 67.0171C110.483 66.2169 110.933 65.1317 110.933 64.0001V57.6001C110.933 56.4685 110.483 55.3832 109.683 54.5831C108.883 53.7829 107.798 53.3334 106.666 53.3334H98.1329C97.0013 53.3334 95.916 53.7829 95.1159 54.5831C94.3157 55.3832 93.8662 56.4685 93.8662 57.6001V64.0001C93.8662 65.1317 94.3157 66.2169 95.1159 67.0171C95.916 67.8172 97.0013 68.2667 98.1329 68.2667H106.666ZM98.1329 57.6001H106.666V64.0001H98.1329V57.6001Z" fill="white"/>
<path d="M59.7327 76.8C59.7327 75.6684 59.2832 74.5832 58.483 73.783C57.6828 72.9829 56.5976 72.5334 55.466 72.5334H46.9327C45.8011 72.5334 44.7158 72.9829 43.9157 73.783C43.1155 74.5832 42.666 75.6684 42.666 76.8V83.2C42.666 84.3316 43.1155 85.4169 43.9157 86.217C44.7158 87.0172 45.8011 87.4667 46.9327 87.4667H55.466C56.5976 87.4667 57.6828 87.0172 58.483 86.217C59.2832 85.4169 59.7327 84.3316 59.7327 83.2V76.8ZM46.9327 83.2V76.8H55.466V83.2H46.9327Z" fill="white"/>
<path d="M34.1331 76.8C34.1331 75.6684 33.6835 74.5832 32.8834 73.783C32.0832 72.9829 30.998 72.5334 29.8664 72.5334H21.3331C20.2015 72.5334 19.1162 72.9829 18.3161 73.783C17.5159 74.5832 17.0664 75.6684 17.0664 76.8V83.2C17.0664 84.3316 17.5159 85.4169 18.3161 86.217C19.1162 87.0172 20.2015 87.4667 21.3331 87.4667H29.8664C30.998 87.4667 32.0832 87.0172 32.8834 86.217C33.6835 85.4169 34.1331 84.3316 34.1331 83.2V76.8ZM21.3331 83.2V76.8H29.8664V83.2H21.3331Z" fill="white"/>
<path d="M55.466 91.7334H46.9327C45.8011 91.7334 44.7158 92.1829 43.9157 92.9831C43.1155 93.7832 42.666 94.8685 42.666 96.0001V102.4C42.666 103.532 43.1155 104.617 43.9157 105.417C44.7158 106.217 45.8011 106.667 46.9327 106.667H55.466C56.5976 106.667 57.6828 106.217 58.483 105.417C59.2832 104.617 59.7327 103.532 59.7327 102.4V96.0001C59.7327 94.8685 59.2832 93.7832 58.483 92.9831C57.6828 92.1829 56.5976 91.7334 55.466 91.7334ZM46.9327 102.4V96.0001H55.466V102.4H46.9327Z" fill="white"/>
<path d="M72.5333 68.2667H81.0666C82.1982 68.2667 83.2834 67.8172 84.0836 67.0171C84.8837 66.2169 85.3333 65.1317 85.3333 64.0001V57.6001C85.3333 56.4685 84.8837 55.3832 84.0836 54.5831C83.2834 53.7829 82.1982 53.3334 81.0666 53.3334H72.5333C71.4017 53.3334 70.3164 53.7829 69.5163 54.5831C68.7161 55.3832 68.2666 56.4685 68.2666 57.6001V64.0001C68.2666 65.1317 68.7161 66.2169 69.5163 67.0171C70.3164 67.8172 71.4017 68.2667 72.5333 68.2667ZM72.5333 57.6001H81.0666V64.0001H72.5333V57.6001Z" fill="white"/>
<path d="M68.2666 83.2C68.2666 84.3316 68.7161 85.4169 69.5163 86.217C70.3164 87.0172 71.4017 87.4667 72.5333 87.4667C73.0991 87.4667 73.6417 87.2419 74.0418 86.8418C74.4418 86.4418 74.6666 85.8991 74.6666 85.3334C74.6666 84.7676 74.4418 84.2249 74.0418 83.8249C73.6417 83.4248 73.0991 83.2 72.5333 83.2V76.8H81.0666C81.6324 76.8 82.175 76.5753 82.5751 76.1752C82.9752 75.7751 83.1999 75.2325 83.1999 74.6667C83.1999 74.1009 82.9752 73.5583 82.5751 73.1582C82.175 72.7581 81.6324 72.5334 81.0666 72.5334H72.5333C71.4017 72.5334 70.3164 72.9829 69.5163 73.783C68.7161 74.5832 68.2666 75.6684 68.2666 76.8V83.2Z" fill="white"/>
<path d="M29.8664 91.7334H21.3331C20.2015 91.7334 19.1162 92.1829 18.3161 92.9831C17.5159 93.7832 17.0664 94.8685 17.0664 96.0001V102.4C17.0664 103.532 17.5159 104.617 18.3161 105.417C19.1162 106.217 20.2015 106.667 21.3331 106.667H29.8664C30.998 106.667 32.0832 106.217 32.8834 105.417C33.6835 104.617 34.1331 103.532 34.1331 102.4V96.0001C34.1331 94.8685 33.6835 93.7832 32.8834 92.9831C32.0832 92.1829 30.998 91.7334 29.8664 91.7334ZM21.3331 102.4V96.0001H29.8664V102.4H21.3331Z" fill="white"/>
<path d="M100.267 72.5334C94.7814 72.5334 89.4195 74.1599 84.8587 77.2073C80.298 80.2546 76.7434 84.586 74.6443 89.6536C72.5452 94.7212 71.996 100.297 73.0661 105.677C74.1362 111.057 76.7775 115.999 80.6561 119.877C84.5347 123.756 89.4763 126.397 94.856 127.467C100.236 128.537 105.812 127.988 110.88 125.889C115.947 123.79 120.279 120.235 123.326 115.675C126.373 111.114 128 105.752 128 100.267C127.991 92.914 125.067 85.8648 119.868 80.6656C114.668 75.4664 107.619 72.5418 100.267 72.5334ZM100.267 123.733C95.6253 123.733 91.0882 122.357 87.2292 119.779C83.3701 117.2 80.3623 113.535 78.5862 109.247C76.81 104.959 76.3453 100.241 77.2508 95.6886C78.1563 91.1365 80.3912 86.9551 83.6731 83.6732C86.955 80.3914 91.1363 78.1564 95.6884 77.2509C100.241 76.3455 104.959 76.8102 109.247 78.5863C113.535 80.3625 117.2 83.3702 119.778 87.2293C122.357 91.0884 123.733 95.6254 123.733 100.267C123.726 106.488 121.251 112.453 116.852 116.852C112.453 121.251 106.488 123.726 100.267 123.733Z" fill="white"/>
<path d="M112.594 91.3237L96.0005 107.917L88.4591 100.373C88.0568 99.9847 87.5179 99.7697 86.9586 99.7746C86.3992 99.7794 85.8641 100.004 85.4686 100.399C85.0731 100.795 84.8487 101.33 84.8438 101.889C84.839 102.449 85.054 102.988 85.4426 103.39L94.4922 112.442C94.8923 112.842 95.4348 113.066 96.0005 113.066C96.5662 113.066 97.1087 112.842 97.5087 112.442L115.61 94.3403C115.999 93.9379 116.214 93.399 116.209 92.8397C116.204 92.2803 115.98 91.7453 115.584 91.3497C115.189 90.9542 114.653 90.7298 114.094 90.725C113.535 90.7201 112.996 90.9351 112.594 91.3237Z" fill="white"/>
</svg>
