<svg width="128" height="121" viewBox="0 0 128 121" fill="none" xmlns="http://www.w3.org/2000/svg">
<path d="M85.0296 120.684H79.6537C79.1688 120.684 78.7037 120.491 78.3608 120.148C78.0178 119.805 77.8252 119.34 77.8252 118.855C77.8252 118.37 78.0178 117.905 78.3608 117.562C78.7037 117.219 79.1688 117.026 79.6537 117.026H85.0296C85.5146 117.026 85.9797 117.219 86.3226 117.562C86.6655 117.905 86.8582 118.37 86.8582 118.855C86.8582 119.34 86.6655 119.805 86.3226 120.148C85.9797 120.491 85.5146 120.684 85.0296 120.684Z" fill="#F57329"/>
<path d="M66.8528 120.684H3.65854C2.68862 120.684 1.75843 120.298 1.0726 119.612C0.386763 118.927 0.00146484 117.996 0.00146484 117.026V51.1991C0.00146484 50.7141 0.194114 50.249 0.537031 49.9061C0.879949 49.5632 1.34504 49.3705 1.83 49.3705C2.31496 49.3705 2.78006 49.5632 3.12298 49.9061C3.46589 50.249 3.65854 50.7141 3.65854 51.1991V117.026H66.8528C67.3378 117.026 67.8029 117.219 68.1458 117.562C68.4887 117.905 68.6814 118.37 68.6814 118.855C68.6814 119.34 68.4887 119.805 68.1458 120.148C67.8029 120.491 67.3378 120.684 66.8528 120.684Z" fill="#F57329"/>
<path d="M124.343 120.684H116.005C115.52 120.684 115.055 120.491 114.712 120.148C114.369 119.805 114.176 119.34 114.176 118.855C114.176 118.37 114.369 117.905 114.712 117.562C115.055 117.219 115.52 117.026 116.005 117.026H124.343V53.0276H74.9726C74.4876 53.0276 74.0225 52.835 73.6796 52.4921C73.3367 52.1491 73.144 51.684 73.144 51.1991C73.144 50.7141 73.3367 50.249 73.6796 49.9061C74.0225 49.5632 74.4876 49.3705 74.9726 49.3705H124.343C125.313 49.3705 126.243 49.7558 126.929 50.4417C127.615 51.1275 128 52.0577 128 53.0276V117.026C128 117.996 127.615 118.927 126.929 119.612C126.243 120.298 125.313 120.684 124.343 120.684Z" fill="#F57329"/>
<path d="M103.187 120.684H97.829C97.3441 120.684 96.879 120.491 96.5361 120.148C96.1931 119.805 96.0005 119.34 96.0005 118.855C96.0005 118.37 96.1931 117.905 96.5361 117.562C96.879 117.219 97.3441 117.026 97.829 117.026H103.187C103.672 117.026 104.137 117.219 104.48 117.562C104.823 117.905 105.015 118.37 105.015 118.855C105.015 119.34 104.823 119.805 104.48 120.148C104.137 120.491 103.672 120.684 103.187 120.684Z" fill="#F57329"/>
<path d="M115.2 53.0276H95.0864C94.6014 53.0276 94.1363 52.835 93.7934 52.4921C93.4505 52.1491 93.2578 51.684 93.2578 51.1991V1.82854C93.2578 1.34358 93.4505 0.878484 93.7934 0.535567C94.1363 0.192649 94.6014 0 95.0864 0H115.2C115.685 0 116.15 0.192649 116.493 0.535567C116.836 0.878484 117.029 1.34358 117.029 1.82854V51.1991C117.029 51.684 116.836 52.1491 116.493 52.4921C116.15 52.835 115.685 53.0276 115.2 53.0276ZM96.9149 49.3705H113.372V3.65708H96.9149V49.3705Z" fill="#F57329"/>
<path d="M115.2 14.6283H95.0864C94.6014 14.6283 94.1363 14.4357 93.7934 14.0927C93.4505 13.7498 93.2578 13.2847 93.2578 12.7998C93.2578 12.3148 93.4505 11.8497 93.7934 11.5068C94.1363 11.1639 94.6014 10.9712 95.0864 10.9712H115.2C115.685 10.9712 116.15 11.1639 116.493 11.5068C116.836 11.8497 117.029 12.3148 117.029 12.7998C117.029 13.2847 116.836 13.7498 116.493 14.0927C116.15 14.4357 115.685 14.6283 115.2 14.6283Z" fill="#F57329"/>
<path d="M38.4009 53.0276C37.9804 53.0281 37.5727 52.8837 37.2463 52.6186C36.9198 52.3536 36.6947 51.9842 36.6089 51.5726C36.523 51.161 36.5816 50.7324 36.7748 50.3589C36.9679 49.9855 37.2839 49.69 37.6695 49.5223L74.2402 33.6744C74.5186 33.5529 74.8228 33.5027 75.1254 33.5282C75.428 33.5537 75.7195 33.6542 75.9736 33.8206C76.2276 33.987 76.4362 34.2141 76.5805 34.4813C76.7249 34.7485 76.8004 35.0475 76.8002 35.3512V51.1991C76.8002 51.6841 76.6076 52.1492 76.2646 52.4921C75.9217 52.835 75.4566 53.0276 74.9717 53.0276C74.4867 53.0276 74.0216 52.835 73.6787 52.4921C73.3358 52.1492 73.1431 51.6841 73.1431 51.1991V38.136L39.1323 52.8759C38.902 52.9776 38.6527 53.0293 38.4009 53.0276Z" fill="#F57329"/>
<path d="M1.83058 53.0276C1.41012 53.0281 1.00235 52.8837 0.675946 52.6186C0.349538 52.3536 0.124436 51.9842 0.0385543 51.5726C-0.0473278 51.161 0.011257 50.7324 0.204441 50.3589C0.397626 49.9855 0.713606 49.69 1.09916 49.5223L37.6699 33.6744C37.9483 33.5529 38.2525 33.5027 38.5551 33.5282C38.8577 33.5537 39.1492 33.6542 39.4033 33.8206C39.6573 33.987 39.8659 34.2141 40.0102 34.4813C40.1545 34.7485 40.23 35.0475 40.2299 35.3512V51.1991C40.2299 51.6841 40.0372 52.1492 39.6943 52.4921C39.3514 52.835 38.8863 53.0276 38.4014 53.0276C37.9164 53.0276 37.4513 52.835 37.1084 52.4921C36.7655 52.1492 36.5728 51.6841 36.5728 51.1991V38.136L2.56199 52.8759C2.33166 52.9776 2.08237 53.0293 1.83058 53.0276Z" fill="#F57329"/>
<path d="M43.8866 120.684H18.287C17.8021 120.684 17.337 120.491 16.9941 120.148C16.6511 119.805 16.4585 119.34 16.4585 118.855V85.9413C16.4585 85.4564 16.6511 84.9913 16.9941 84.6484C17.337 84.3054 17.8021 84.1128 18.287 84.1128H43.8866C44.3715 84.1128 44.8366 84.3054 45.1796 84.6484C45.5225 84.9913 45.7151 85.4564 45.7151 85.9413V118.855C45.7151 119.34 45.5225 119.805 45.1796 120.148C44.8366 120.491 44.3715 120.684 43.8866 120.684ZM20.1156 117.026H42.058V87.7699H20.1156V117.026Z" fill="#F57329"/>
<path d="M113.372 80.4557H103.62C103.135 80.4557 102.67 80.2631 102.327 79.9201C101.984 79.5772 101.792 79.1121 101.792 78.6272V68.8756C101.792 68.3906 101.984 67.9255 102.327 67.5826C102.67 67.2397 103.135 67.047 103.62 67.047H113.372C113.857 67.047 114.322 67.2397 114.665 67.5826C115.008 67.9255 115.2 68.3906 115.2 68.8756V78.6272C115.2 79.1121 115.008 79.5772 114.665 79.9201C114.322 80.2631 113.857 80.4557 113.372 80.4557ZM105.449 76.7986H111.543V70.7041H105.449V76.7986Z" fill="#F57329"/>
<path d="M92.6489 80.4557H82.8954C82.4105 80.4557 81.9454 80.2631 81.6025 79.9201C81.2595 79.5772 81.0669 79.1121 81.0669 78.6272V68.8756C81.0669 68.3906 81.2595 67.9255 81.6025 67.5826C81.9454 67.2397 82.4105 67.047 82.8954 67.047H92.6489C93.1338 67.047 93.5989 67.2397 93.9418 67.5826C94.2847 67.9255 94.4774 68.3906 94.4774 68.8756V78.6272C94.4774 79.1121 94.2847 79.5772 93.9418 79.9201C93.5989 80.2631 93.1338 80.4557 92.6489 80.4557ZM84.724 76.7986H90.8203V70.7041H84.724V76.7986Z" fill="#F57329"/>
<path d="M71.9244 80.4557H62.1728C61.6878 80.4557 61.2227 80.2631 60.8798 79.9201C60.5369 79.5772 60.3442 79.1121 60.3442 78.6272V68.8756C60.3442 68.3906 60.5369 67.9255 60.8798 67.5826C61.2227 67.2397 61.6878 67.047 62.1728 67.047H71.9244C72.4093 67.047 72.8744 67.2397 73.2173 67.5826C73.5603 67.9255 73.7529 68.3906 73.7529 68.8756V78.6272C73.7529 79.1121 73.5603 79.5772 73.2173 79.9201C72.8744 80.2631 72.4093 80.4557 71.9244 80.4557ZM64.0013 76.7986H70.0958V70.7041H64.0013V76.7986Z" fill="#F57329"/>
<path d="M113.372 101.179H103.62C103.135 101.179 102.67 100.986 102.327 100.643C101.984 100.3 101.792 99.835 101.792 99.35V89.5984C101.792 89.1134 101.984 88.6483 102.327 88.3054C102.67 87.9625 103.135 87.7699 103.62 87.7699H113.372C113.857 87.7699 114.322 87.9625 114.665 88.3054C115.008 88.6483 115.2 89.1134 115.2 89.5984V99.35C115.2 99.835 115.008 100.3 114.665 100.643C114.322 100.986 113.857 101.179 113.372 101.179ZM105.449 97.5215H111.543V91.4269H105.449V97.5215Z" fill="#F57329"/>
<path d="M92.6489 101.179H82.8954C82.4105 101.179 81.9454 100.986 81.6025 100.643C81.2595 100.3 81.0669 99.835 81.0669 99.35V89.5984C81.0669 89.1134 81.2595 88.6483 81.6025 88.3054C81.9454 87.9625 82.4105 87.7699 82.8954 87.7699H92.6489C93.1338 87.7699 93.5989 87.9625 93.9418 88.3054C94.2847 88.6483 94.4774 89.1134 94.4774 89.5984V99.35C94.4774 99.835 94.2847 100.3 93.9418 100.643C93.5989 100.986 93.1338 101.179 92.6489 101.179ZM84.724 97.5215H90.8203V91.4269H84.724V97.5215Z" fill="#F57329"/>
<path d="M71.9244 101.179H62.1728C61.6878 101.179 61.2227 100.986 60.8798 100.643C60.5369 100.3 60.3442 99.835 60.3442 99.35V89.5984C60.3442 89.1134 60.5369 88.6483 60.8798 88.3054C61.2227 87.9625 61.6878 87.7699 62.1728 87.7699H71.9244C72.4093 87.7699 72.8744 87.9625 73.2173 88.3054C73.5603 88.6483 73.7529 89.1134 73.7529 89.5984V99.35C73.7529 99.835 73.5603 100.3 73.2173 100.643C72.8744 100.986 72.4093 101.179 71.9244 101.179ZM64.0013 97.5215H70.0958V91.4269H64.0013V97.5215Z" fill="#F57329"/>
</svg>
