<svg width="128" height="69" viewBox="0 0 128 69" fill="none" xmlns="http://www.w3.org/2000/svg">
<path fill-rule="evenodd" clip-rule="evenodd" d="M93.6247 45.6969C87.2258 45.6969 82.0174 50.8898 82.0174 57.2695C82.0174 63.6493 87.2258 68.8421 93.6247 68.8421C100.024 68.8421 105.232 63.6493 105.232 57.2695C105.232 50.8898 100.024 45.6969 93.6247 45.6969ZM93.6247 62.7591C90.4996 62.7591 87.9699 60.2369 87.9699 57.1212C87.9699 54.0055 90.4996 51.4832 93.6247 51.4832C96.7497 51.4832 99.2795 54.0055 99.2795 57.1212C99.2795 60.2369 96.7497 62.7591 93.6247 62.7591ZM24.4276 45.6969C18.0287 45.6969 12.8203 50.8898 12.8203 57.2695C12.8203 63.6493 18.0287 68.8421 24.4276 68.8421C30.8264 68.8421 36.0348 63.6493 36.0348 57.2695C36.0348 50.8898 30.8264 45.6969 24.4276 45.6969ZM24.4276 62.7591C21.3025 62.7591 18.7728 60.2369 18.7728 57.1212C18.7728 54.0055 21.3025 51.4832 24.4276 51.4832C27.5526 51.4832 30.0824 54.0055 30.0824 57.1212C30.2312 60.2369 27.5526 62.7591 24.4276 62.7591Z" fill="white"/>
<path fill-rule="evenodd" clip-rule="evenodd" d="M125.173 54.3022L125.321 52.8185C125.321 51.9283 125.321 51.0381 125.47 49.9996C125.619 43.9165 125.619 38.1302 125.321 32.6407H125.173V5.04447C125.173 2.2255 122.94 0 120.113 0H67.2851C64.4577 0 62.2255 2.2255 62.2255 5.04447V14.2432C62.2255 10.6824 60.5886 8.902 57.4636 8.75363H55.3802C50.6183 8.75363 43.9218 8.4569 40.0527 11.721C33.505 16.3203 28.4454 24.6289 22.9394 29.9701C18.4751 30.5635 8.05834 32.0472 5.67737 34.1243C2.99877 36.6466 2.99877 44.51 3.14758 47.7741C-2.0608 47.7741 0.0225492 60.0885 3.4452 60.8303H10.5881C5.97499 33.6792 44.8147 36.9433 39.011 60.8303H78.7436C72.7911 37.9819 111.036 32.1956 107.315 60.682C114.161 60.682 117.732 60.5336 124.875 60.682C127.702 60.0885 128 58.4565 128 54.7473L125.173 54.3022ZM56.7195 32.4923H31.5705C29.6359 32.4923 32.4633 27.7446 32.9098 27.1511C36.4812 20.4746 42.7313 13.6497 47.4933 13.6497H56.7195V32.4923Z" fill="white"/>
</svg>
