<svg width="100" height="127" viewBox="0 0 100 127" fill="none" xmlns="http://www.w3.org/2000/svg">
<path d="M98.4519 25.714L50.7197 0.279845C50.0116 -0.0980873 49.1629 -0.0927833 48.4601 0.293105L2.04868 25.7273C1.28751 26.145 0.81543 26.9433 0.81543 27.8119V61.0354C0.843277 88.346 17.0241 113.053 42.0472 123.995L48.4893 126.802C49.0913 127.065 49.7769 127.066 50.3802 126.805L57.6392 123.67C83.1264 112.966 99.7077 88.0198 99.7104 60.3764V27.8119C99.7104 26.934 99.2263 26.1264 98.4519 25.714ZM94.9577 60.3764C94.9524 86.1142 79.5102 109.338 55.7787 119.298L55.7628 119.306L49.4414 122.035L43.9488 119.639C20.6562 109.454 5.59329 86.4577 5.56677 61.0354V29.2188L49.6178 5.07627L94.9577 29.2361V60.3764Z" fill="white"/>
<path d="M32.0869 59.4947C31.2342 58.4962 29.7344 58.3781 28.7359 59.2308C27.7373 60.0821 27.6193 61.5833 28.472 62.5805L41.0246 77.28C41.8627 78.2613 43.3307 78.3953 44.3305 77.5811L73.5653 53.7965C74.5837 52.9691 74.7375 51.4719 73.9087 50.4535C73.0812 49.4364 71.5841 49.2812 70.5657 50.11L43.1318 72.4279L32.0869 59.4947Z" fill="white"/>
</svg>
