<svg width="96" height="127" viewBox="0 0 96 127" fill="none" xmlns="http://www.w3.org/2000/svg">
<path d="M61.9234 42.41H41.7207C40.6933 42.41 39.8604 41.5773 39.8604 40.5496C39.8604 39.522 40.6933 38.6893 41.7207 38.6893H61.9234C62.9508 38.6893 63.7837 39.522 63.7837 40.5496C63.7837 41.5773 62.951 42.41 61.9234 42.41Z" fill="white"/>
<path d="M82.1253 32.8607H41.7197C40.6923 32.8607 39.8594 32.028 39.8594 31.0004C39.8594 29.9727 40.6923 29.14 41.7197 29.14H82.1253C83.1527 29.14 83.9856 29.9727 83.9856 31.0004C83.9856 32.028 83.1527 32.8607 82.1253 32.8607Z" fill="white"/>
<path d="M61.9234 73.5864H41.7207C40.6933 73.5864 39.8604 72.7537 39.8604 71.7261C39.8604 70.6984 40.6933 69.8657 41.7207 69.8657H61.9234C62.9508 69.8657 63.7837 70.6984 63.7837 71.7261C63.7837 72.7537 62.951 73.5864 61.9234 73.5864Z" fill="white"/>
<path d="M82.1253 64.0366H41.7197C40.6923 64.0366 39.8594 63.2039 39.8594 62.1762C39.8594 61.1486 40.6923 60.3159 41.7197 60.3159H82.1253C83.1527 60.3159 83.9856 61.1486 83.9856 62.1762C83.9856 63.2039 83.1527 64.0366 82.1253 64.0366Z" fill="white"/>
<path d="M61.9234 104.762H41.7207C40.6933 104.762 39.8604 103.93 39.8604 102.902C39.8604 101.874 40.6933 101.042 41.7207 101.042H61.9234C62.9508 101.042 63.7837 101.874 63.7837 102.902C63.7837 103.93 62.951 104.762 61.9234 104.762Z" fill="white"/>
<path d="M82.1253 95.213H41.7197C40.6923 95.213 39.8594 94.3803 39.8594 93.3526C39.8594 92.3249 40.6923 91.4922 41.7197 91.4922H82.1253C83.1527 91.4922 83.9856 92.3249 83.9856 93.3526C83.9856 94.3803 83.1527 95.213 82.1253 95.213Z" fill="white"/>
<path d="M63.7224 17.5248H31.5497C28.4918 17.5248 26.0039 15.0371 26.0039 11.9792V5.54583C26.0042 2.48791 28.4918 0 31.5497 0H63.7222C66.7801 0 69.268 2.48791 69.268 5.54583V11.9792C69.268 15.0371 66.7803 17.5248 63.7224 17.5248ZM31.5497 3.7207C30.5434 3.7207 29.7246 4.5395 29.7246 5.54583V11.9792C29.7246 12.9855 30.5434 13.8041 31.5497 13.8041H63.7222C64.7285 13.8041 65.5473 12.9853 65.5473 11.9792V5.54583C65.5473 4.53926 64.7285 3.7207 63.7222 3.7207H31.5497Z" fill="white"/>
<path d="M24.547 44.9033H16.2789C13.5248 44.9033 11.2842 42.6627 11.2842 39.9086V31.6407C11.2842 28.8867 13.5248 26.6461 16.2789 26.6461H24.547C27.3011 26.6461 29.5417 28.8867 29.5417 31.6407V39.9089C29.5417 42.6627 27.3011 44.9033 24.547 44.9033ZM16.2789 30.3668C15.5764 30.3668 15.0049 30.9383 15.0049 31.6407V39.9089C15.0049 40.6113 15.5764 41.1828 16.2789 41.1828H24.547C25.2495 41.1828 25.821 40.6113 25.821 39.9089V31.6407C25.821 30.9383 25.2495 30.3668 24.547 30.3668H16.2789Z" fill="white"/>
<path d="M24.547 76.0799H16.2789C13.5248 76.0799 11.2842 73.8393 11.2842 71.0852V62.8171C11.2842 60.063 13.5248 57.8224 16.2789 57.8224H24.547C27.3011 57.8224 29.5417 60.063 29.5417 62.8171V71.0852C29.5417 73.8393 27.3011 76.0799 24.547 76.0799ZM16.2789 61.5431C15.5764 61.5431 15.0049 62.1146 15.0049 62.8171V71.0852C15.0049 71.7877 15.5764 72.3592 16.2789 72.3592H24.547C25.2495 72.3592 25.821 71.7877 25.821 71.0852V62.8171C25.821 62.1146 25.2495 61.5431 24.547 61.5431H16.2789Z" fill="white"/>
<path d="M24.547 107.256H16.2789C13.5248 107.256 11.2842 105.016 11.2842 102.261V93.9934C11.2842 91.2391 13.5248 88.9985 16.2789 88.9985H24.547C27.3011 88.9985 29.5417 91.2391 29.5417 93.9934V102.261C29.5417 105.016 27.3011 107.256 24.547 107.256ZM16.2789 92.7194C15.5764 92.7194 15.0049 93.2912 15.0049 93.9936V102.262C15.0049 102.964 15.5764 103.536 16.2789 103.536H24.547C25.2495 103.536 25.821 102.964 25.821 102.262V93.9936C25.821 93.2912 25.2495 92.7194 24.547 92.7194H16.2789Z" fill="white"/>
<path d="M87.2115 127H8.05929C3.61528 127 0 123.385 0 118.941V14.9613C0 10.5175 3.61553 6.90222 8.05929 6.90222H19.2078C20.2352 6.90222 21.0681 7.73491 21.0681 8.76257C21.0681 9.79023 20.2352 10.6229 19.2078 10.6229H8.05929C5.66688 10.6229 3.7207 12.5691 3.7207 14.9613V118.94C3.7207 121.333 5.66712 123.279 8.05929 123.279H87.2115C89.6039 123.279 91.5501 121.333 91.5501 118.94V14.9613C91.5501 12.5689 89.6037 10.6229 87.2115 10.6229H76.063C75.0356 10.6229 74.2027 9.79023 74.2027 8.76257C74.2027 7.73491 75.0356 6.90222 76.063 6.90222H87.2115C91.6555 6.90222 95.2708 10.5175 95.2708 14.9613V118.94C95.2708 123.385 91.6553 127 87.2115 127Z" fill="white"/>
</svg>
