<svg width="128" height="128" viewBox="0 0 128 128" fill="none" xmlns="http://www.w3.org/2000/svg">
<path d="M117.333 12.8H106.667V8.53333C106.667 6.27015 105.768 4.09967 104.167 2.49936C102.567 0.899045 100.397 0 98.1333 0C95.8702 0 93.6997 0.899045 92.0994 2.49936C90.4991 4.09967 89.6 6.27015 89.6 8.53333V12.8H72.5333V8.53333C72.5333 6.27015 71.6343 4.09967 70.034 2.49936C68.4337 0.899045 66.2632 0 64 0C61.7368 0 59.5663 0.899045 57.966 2.49936C56.3657 4.09967 55.4667 6.27015 55.4667 8.53333V12.8H38.4V8.53333C38.4 6.27015 37.501 4.09967 35.9006 2.49936C34.3003 0.899045 32.1298 0 29.8667 0C27.6035 0 25.433 0.899045 23.8327 2.49936C22.2324 4.09967 21.3333 6.27015 21.3333 8.53333V12.8H10.6667C7.83769 12.8 5.12458 13.9238 3.12419 15.9242C1.12381 17.9246 0 20.6377 0 23.4667V108.8C0 111.629 1.12381 114.342 3.12419 116.342C5.12458 118.343 7.83769 119.467 10.6667 119.467H70.4C70.9658 119.467 71.5084 119.242 71.9085 118.842C72.3086 118.442 72.5333 117.899 72.5333 117.333C72.5333 116.768 72.3086 116.225 71.9085 115.825C71.5084 115.425 70.9658 115.2 70.4 115.2H10.6667C8.97084 115.195 7.34592 114.519 6.14678 113.32C4.94764 112.121 4.27173 110.496 4.26667 108.8V42.6667H123.733V78.9333C123.733 79.4991 123.958 80.0417 124.358 80.4418C124.758 80.8419 125.301 81.0667 125.867 81.0667C126.432 81.0667 126.975 80.8419 127.375 80.4418C127.775 80.0417 128 79.4991 128 78.9333V23.4667C128 20.6377 126.876 17.9246 124.876 15.9242C122.875 13.9238 120.162 12.8 117.333 12.8ZM93.8667 8.53333C93.8667 7.40174 94.3162 6.3165 95.1163 5.51634C95.9165 4.71619 97.0017 4.26667 98.1333 4.26667C99.2649 4.26667 100.35 4.71619 101.15 5.51634C101.95 6.3165 102.4 7.40174 102.4 8.53333V21.3333C102.4 22.4649 101.95 23.5502 101.15 24.3503C100.35 25.1505 99.2649 25.6 98.1333 25.6C97.0017 25.6 95.9165 25.1505 95.1163 24.3503C94.3162 23.5502 93.8667 22.4649 93.8667 21.3333V8.53333ZM59.7333 8.53333C59.7333 7.40174 60.1829 6.3165 60.983 5.51634C61.7832 4.71619 62.8684 4.26667 64 4.26667C65.1316 4.26667 66.2168 4.71619 67.017 5.51634C67.8172 6.3165 68.2667 7.40174 68.2667 8.53333V21.3333C68.2667 22.4649 67.8172 23.5502 67.017 24.3503C66.2168 25.1505 65.1316 25.6 64 25.6C62.8684 25.6 61.7832 25.1505 60.983 24.3503C60.1829 23.5502 59.7333 22.4649 59.7333 21.3333V8.53333ZM25.6 8.53333C25.6 7.40174 26.0495 6.3165 26.8497 5.51634C27.6498 4.71619 28.7351 4.26667 29.8667 4.26667C30.9983 4.26667 32.0835 4.71619 32.8837 5.51634C33.6838 6.3165 34.1333 7.40174 34.1333 8.53333V21.3333C34.1333 22.4649 33.6838 23.5502 32.8837 24.3503C32.0835 25.1505 30.9983 25.6 29.8667 25.6C28.7351 25.6 27.6498 25.1505 26.8497 24.3503C26.0495 23.5502 25.6 22.4649 25.6 21.3333V8.53333ZM123.733 38.4H4.26667V23.4667C4.27173 21.7708 4.94764 20.1459 6.14678 18.9468C7.34592 17.7476 8.97084 17.0717 10.6667 17.0667H21.3333V21.3333C21.3333 23.5965 22.2324 25.767 23.8327 27.3673C25.433 28.9676 27.6035 29.8667 29.8667 29.8667C32.1298 29.8667 34.3003 28.9676 35.9006 27.3673C37.501 25.767 38.4 23.5965 38.4 21.3333V17.0667H55.4667V21.3333C55.4667 23.5965 56.3657 25.767 57.966 27.3673C59.5663 28.9676 61.7368 29.8667 64 29.8667C66.2632 29.8667 68.4337 28.9676 70.034 27.3673C71.6343 25.767 72.5333 23.5965 72.5333 21.3333V17.0667H89.6V21.3333C89.6 23.5965 90.4991 25.767 92.0994 27.3673C93.6997 28.9676 95.8702 29.8667 98.1333 29.8667C100.397 29.8667 102.567 28.9676 104.167 27.3673C105.768 25.767 106.667 23.5965 106.667 21.3333V17.0667H117.333C119.029 17.0717 120.654 17.7476 121.853 18.9468C123.052 20.1459 123.728 21.7708 123.733 23.4667V38.4Z" fill="#F57329"/>
<path d="M59.7332 57.6C59.7332 56.4684 59.2836 55.3832 58.4835 54.5831C57.6833 53.7829 56.5981 53.3334 55.4665 53.3334H46.9332C45.8016 53.3334 44.7163 53.7829 43.9162 54.5831C43.116 55.3832 42.6665 56.4684 42.6665 57.6V64C42.6665 65.1316 43.116 66.2169 43.9162 67.017C44.7163 67.8172 45.8016 68.2667 46.9332 68.2667H55.4665C56.5981 68.2667 57.6833 67.8172 58.4835 67.017C59.2836 66.2169 59.7332 65.1316 59.7332 64V57.6ZM46.9332 64V57.6H55.4665V64H46.9332Z" fill="#F57329"/>
<path d="M34.1336 57.6C34.1336 56.4684 33.684 55.3832 32.8839 54.5831C32.0837 53.7829 30.9985 53.3334 29.8669 53.3334H21.3336C20.202 53.3334 19.1167 53.7829 18.3166 54.5831C17.5164 55.3832 17.0669 56.4684 17.0669 57.6V64C17.0669 65.1316 17.5164 66.2169 18.3166 67.017C19.1167 67.8172 20.202 68.2667 21.3336 68.2667H29.8669C30.9985 68.2667 32.0837 67.8172 32.8839 67.017C33.684 66.2169 34.1336 65.1316 34.1336 64V57.6ZM21.3336 64V57.6H29.8669V64H21.3336Z" fill="#F57329"/>
<path d="M106.667 68.2667C107.798 68.2667 108.884 67.8172 109.684 67.017C110.484 66.2169 110.933 65.1316 110.933 64V57.6C110.933 56.4684 110.484 55.3832 109.684 54.5831C108.884 53.7829 107.798 53.3334 106.667 53.3334H98.1334C97.0018 53.3334 95.9165 53.7829 95.1164 54.5831C94.3162 55.3832 93.8667 56.4684 93.8667 57.6V64C93.8667 65.1316 94.3162 66.2169 95.1164 67.017C95.9165 67.8172 97.0018 68.2667 98.1334 68.2667H106.667ZM98.1334 57.6H106.667V64H98.1334V57.6Z" fill="#F57329"/>
<path d="M59.7332 76.8C59.7332 75.6684 59.2836 74.5832 58.4835 73.783C57.6833 72.9828 56.5981 72.5333 55.4665 72.5333H46.9332C45.8016 72.5333 44.7163 72.9828 43.9162 73.783C43.116 74.5832 42.6665 75.6684 42.6665 76.8V83.2C42.6665 84.3316 43.116 85.4168 43.9162 86.217C44.7163 87.0171 45.8016 87.4667 46.9332 87.4667H55.4665C56.5981 87.4667 57.6833 87.0171 58.4835 86.217C59.2836 85.4168 59.7332 84.3316 59.7332 83.2V76.8ZM46.9332 83.2V76.8H55.4665V83.2H46.9332Z" fill="#F57329"/>
<path d="M34.1336 76.8C34.1336 75.6684 33.684 74.5832 32.8839 73.783C32.0837 72.9828 30.9985 72.5333 29.8669 72.5333H21.3336C20.202 72.5333 19.1167 72.9828 18.3166 73.783C17.5164 74.5832 17.0669 75.6684 17.0669 76.8V83.2C17.0669 84.3316 17.5164 85.4168 18.3166 86.217C19.1167 87.0171 20.202 87.4667 21.3336 87.4667H29.8669C30.9985 87.4667 32.0837 87.0171 32.8839 86.217C33.684 85.4168 34.1336 84.3316 34.1336 83.2V76.8ZM21.3336 83.2V76.8H29.8669V83.2H21.3336Z" fill="#F57329"/>
<path d="M55.4665 91.7334H46.9332C45.8016 91.7334 44.7163 92.1829 43.9162 92.9831C43.116 93.7832 42.6665 94.8685 42.6665 96.0001V102.4C42.6665 103.532 43.116 104.617 43.9162 105.417C44.7163 106.217 45.8016 106.667 46.9332 106.667H55.4665C56.5981 106.667 57.6833 106.217 58.4835 105.417C59.2836 104.617 59.7332 103.532 59.7332 102.4V96.0001C59.7332 94.8685 59.2836 93.7832 58.4835 92.9831C57.6833 92.1829 56.5981 91.7334 55.4665 91.7334ZM46.9332 102.4V96.0001H55.4665V102.4H46.9332Z" fill="#F57329"/>
<path d="M72.5338 68.2667H81.0671C82.1987 68.2667 83.2839 67.8172 84.0841 67.017C84.8842 66.2169 85.3338 65.1316 85.3338 64V57.6C85.3338 56.4684 84.8842 55.3832 84.0841 54.5831C83.2839 53.7829 82.1987 53.3334 81.0671 53.3334H72.5338C71.4022 53.3334 70.3169 53.7829 69.5168 54.5831C68.7166 55.3832 68.2671 56.4684 68.2671 57.6V64C68.2671 65.1316 68.7166 66.2169 69.5168 67.017C70.3169 67.8172 71.4022 68.2667 72.5338 68.2667ZM72.5338 57.6H81.0671V64H72.5338V57.6Z" fill="#F57329"/>
<path d="M68.2671 83.2C68.2671 84.3316 68.7166 85.4168 69.5168 86.217C70.3169 87.0171 71.4022 87.4667 72.5338 87.4667C73.0996 87.4667 73.6422 87.2419 74.0423 86.8418C74.4423 86.4417 74.6671 85.8991 74.6671 85.3333C74.6671 84.7675 74.4423 84.2249 74.0423 83.8248C73.6422 83.4247 73.0996 83.2 72.5338 83.2V76.8H81.0671C81.6329 76.8 82.1755 76.5752 82.5756 76.1752C82.9757 75.7751 83.2004 75.2325 83.2004 74.6667C83.2004 74.1009 82.9757 73.5582 82.5756 73.1582C82.1755 72.7581 81.6329 72.5333 81.0671 72.5333H72.5338C71.4022 72.5333 70.3169 72.9828 69.5168 73.783C68.7166 74.5832 68.2671 75.6684 68.2671 76.8V83.2Z" fill="#F57329"/>
<path d="M29.8669 91.7334H21.3336C20.202 91.7334 19.1167 92.1829 18.3166 92.9831C17.5164 93.7832 17.0669 94.8685 17.0669 96.0001V102.4C17.0669 103.532 17.5164 104.617 18.3166 105.417C19.1167 106.217 20.202 106.667 21.3336 106.667H29.8669C30.9985 106.667 32.0837 106.217 32.8839 105.417C33.684 104.617 34.1336 103.532 34.1336 102.4V96.0001C34.1336 94.8685 33.684 93.7832 32.8839 92.9831C32.0837 92.1829 30.9985 91.7334 29.8669 91.7334ZM21.3336 102.4V96.0001H29.8669V102.4H21.3336Z" fill="#F57329"/>
<path d="M100.267 72.5333C94.7814 72.5333 89.4195 74.1599 84.8587 77.2072C80.298 80.2546 76.7434 84.586 74.6443 89.6536C72.5452 94.7212 71.996 100.297 73.0661 105.677C74.1362 111.057 76.7775 115.999 80.6561 119.877C84.5347 123.756 89.4763 126.397 94.856 127.467C100.236 128.537 105.812 127.988 110.88 125.889C115.947 123.79 120.279 120.235 123.326 115.674C126.373 111.114 128 105.752 128 100.267C127.991 92.9139 125.067 85.8648 119.868 80.6656C114.668 75.4664 107.619 72.5418 100.267 72.5333ZM100.267 123.733C95.6253 123.733 91.0882 122.357 87.2292 119.778C83.3701 117.2 80.3623 113.535 78.5862 109.247C76.81 104.959 76.3453 100.241 77.2508 95.6885C78.1563 91.1365 80.3912 86.9551 83.6731 83.6732C86.955 80.3913 91.1363 78.1564 95.6884 77.2509C100.241 76.3454 104.959 76.8102 109.247 78.5863C113.535 80.3624 117.2 83.3702 119.778 87.2293C122.357 91.0884 123.733 95.6254 123.733 100.267C123.726 106.488 121.251 112.453 116.852 116.852C112.453 121.251 106.488 123.726 100.267 123.733Z" fill="#F57329"/>
<path d="M112.593 91.3238L96 107.917L88.4587 100.373C88.0563 99.9848 87.5174 99.7697 86.9581 99.7746C86.3987 99.7795 85.8636 100.004 85.4681 100.399C85.0726 100.795 84.8482 101.33 84.8433 101.889C84.8385 102.449 85.0535 102.988 85.4421 103.39L94.4917 112.442C94.8918 112.842 95.4343 113.066 96 113.066C96.5657 113.066 97.1082 112.842 97.5083 112.442L115.61 94.3403C115.998 93.938 116.213 93.3991 116.208 92.8397C116.203 92.2804 115.979 91.7453 115.584 91.3498C115.188 90.9542 114.653 90.7299 114.094 90.725C113.534 90.7201 112.995 90.9352 112.593 91.3238Z" fill="#F57329"/>
</svg>
