<svg width="128" height="128" viewBox="0 0 128 128" fill="none" xmlns="http://www.w3.org/2000/svg">
<path d="M62.0879 115.24H66.3403V119.492H62.0879V115.24Z" fill="#F57329"/>
<path d="M98.772 101.798L101.779 98.7908L104.786 101.798L101.779 104.805L98.772 101.798Z" fill="#F57329"/>
<path d="M115.243 62.0845H119.495V66.3369H115.243V62.0845Z" fill="#F57329"/>
<path d="M125.874 49.3272H110.799C109.976 46.733 108.934 44.2136 107.684 41.7962L118.339 31.1396C118.737 30.7409 118.961 30.2002 118.961 29.6364C118.961 29.0726 118.737 28.5319 118.339 28.1332L109.317 19.1138C103.415 13.0983 96.3793 8.31196 88.6166 5.03137C80.854 1.75079 72.5181 0.0409757 64.0908 0.000727513C55.6635 -0.0395206 47.3118 1.59059 39.5181 4.79688C31.7245 8.00318 24.6434 12.7221 18.6841 18.681C12.7248 24.6398 8.00544 31.7205 4.7986 39.5139C1.59176 47.3074 -0.0389461 55.659 0.000706129 64.0863C0.0403583 72.5136 1.74958 80.8496 5.02962 88.6125C8.30966 96.3754 13.0955 103.411 19.1106 109.314L28.13 118.335C28.5287 118.734 29.0694 118.958 29.6332 118.958C30.197 118.958 30.7377 118.734 31.1364 118.335L41.793 107.681C44.2125 108.931 46.7341 109.972 49.3304 110.794V125.871C49.3304 126.435 49.5544 126.975 49.9531 127.374C50.3518 127.773 50.8927 127.997 51.4566 127.997H76.971C77.535 127.997 78.0758 127.773 78.4745 127.374C78.8732 126.975 79.0972 126.435 79.0972 125.871V110.796C81.6913 109.974 84.2108 108.932 86.6283 107.683L97.2848 118.337C97.6835 118.736 98.2243 118.96 98.788 118.96C99.3518 118.96 99.8925 118.736 100.291 118.337L118.332 100.297C118.731 99.8979 118.955 99.3572 118.955 98.7934C118.955 98.2296 118.731 97.6889 118.332 97.2902L107.678 86.6336C108.93 84.2136 109.973 81.6913 110.797 79.0941H125.874C126.438 79.0941 126.979 78.8701 127.377 78.4713C127.776 78.0726 128 77.5318 128 76.9679V51.4534C128 50.8895 127.776 50.3487 127.377 49.95C126.979 49.5512 126.438 49.3272 125.874 49.3272ZM22.1149 22.1118C33.0173 11.2059 47.7274 4.95792 63.1457 4.68425C78.564 4.41058 93.4865 10.1326 104.769 20.6447L101.767 23.6469C91.2743 13.9637 77.4422 8.71572 63.1672 9.00194C48.8922 9.28817 35.2815 15.0864 25.1855 25.1824C15.0896 35.2784 9.29132 48.889 9.0051 63.164C8.71888 77.439 13.9669 91.2711 23.65 101.764L20.6478 104.766C10.1358 93.4834 4.41374 78.5608 4.68741 63.1425C4.96108 47.7242 11.2091 33.0141 22.1149 22.1118ZM82.2547 46.1698C86.9752 50.9678 89.6086 57.4368 89.5811 64.1676C89.5537 70.8984 86.8678 77.3457 82.1083 82.1052C77.3489 86.8646 70.9016 89.5506 64.1708 89.578C57.44 89.6054 50.971 86.972 46.1729 82.2515C45.7742 81.8529 45.2335 81.629 44.6697 81.629C44.1059 81.629 43.5652 81.8529 43.1665 82.2515L26.6586 98.7594C17.7412 89.0707 12.9143 76.3099 13.1871 63.1449C13.4598 49.98 18.8111 37.43 28.1222 28.119C37.4332 18.808 49.9831 13.4567 63.1481 13.1839C76.313 12.9112 89.0738 17.7381 98.7625 26.6555L82.2547 43.1612C82.057 43.3587 81.9002 43.5932 81.7932 43.8513C81.6861 44.1094 81.6311 44.3861 81.6311 44.6655C81.6311 44.9449 81.6861 45.2216 81.7932 45.4797C81.9002 45.7378 82.057 45.9723 82.2547 46.1698ZM123.748 74.8417H109.213C108.748 74.8414 108.296 74.9935 107.926 75.2745C107.556 75.5556 107.288 75.9503 107.163 76.3981C106.229 79.7333 104.901 82.9453 103.206 85.966C102.978 86.3713 102.889 86.8404 102.952 87.3012C103.016 87.7621 103.229 88.1894 103.559 88.5174L113.827 98.787L98.7944 113.819L88.5248 103.552C88.1968 103.222 87.7695 103.009 87.3086 102.945C86.8478 102.881 86.3787 102.97 85.9734 103.199C82.9527 104.894 79.7407 106.222 76.4055 107.156C75.9577 107.28 75.563 107.548 75.2819 107.918C75.0009 108.289 74.8488 108.741 74.8491 109.205V123.744H53.5828V109.21C53.583 108.745 53.431 108.293 53.1499 107.923C52.8688 107.552 52.4742 107.285 52.0264 107.16C48.6911 106.226 45.4791 104.898 42.4585 103.203C42.0531 102.975 41.5841 102.886 41.1232 102.949C40.6623 103.013 40.2351 103.226 39.907 103.556L29.6374 113.824L23.6245 107.811L44.7271 86.7102C50.4163 91.6356 57.7599 94.2234 65.2802 93.953C72.8004 93.6826 79.9392 90.574 85.2599 85.2527C90.5807 79.9314 93.6886 72.7923 93.9583 65.272C94.2279 57.7518 91.6393 50.4084 86.7133 44.7197L107.814 23.6171L113.827 29.63L103.559 39.8996C103.229 40.2277 103.016 40.6549 102.952 41.1158C102.889 41.5767 102.978 42.0457 103.206 42.451C104.901 45.4716 106.23 48.6836 107.163 52.019C107.288 52.4668 107.556 52.8614 107.926 53.1425C108.296 53.4236 108.748 53.5756 109.213 53.5754H123.748V74.8417Z" fill="#F57329"/>
<path d="M66.3399 56.0078V32.3176C66.3399 31.7537 66.1159 31.2129 65.7172 30.8142C65.3184 30.4154 64.7776 30.1914 64.2137 30.1914C63.6498 30.1914 63.109 30.4154 62.7102 30.8142C62.3115 31.2129 62.0875 31.7537 62.0875 32.3176V56.0078C60.6263 56.3899 59.2931 57.1542 58.2252 58.2222C57.1572 59.2902 56.3929 60.6233 56.0108 62.0845H40.8254C40.2615 62.0845 39.7207 62.3085 39.322 62.7073C38.9232 63.106 38.6992 63.6468 38.6992 64.2107C38.6992 64.7746 38.9232 65.3154 39.322 65.7142C39.7207 66.1129 40.2615 66.3369 40.8254 66.3369H56.0108C56.3826 67.7878 57.1317 69.1145 58.1821 70.1823C59.2325 71.25 60.5467 72.0208 61.9913 72.4164C63.4359 72.812 64.9595 72.8182 66.4073 72.4345C67.8551 72.0508 69.1756 71.2908 70.2347 70.2317C71.2938 69.1726 72.0538 67.8521 72.4375 66.4043C72.8212 64.9565 72.815 63.4329 72.4194 61.9883C72.0238 60.5437 71.253 59.2295 70.1853 58.1791C69.1175 57.1287 67.7908 56.3796 66.3399 56.0078ZM64.2137 68.4631C63.3726 68.4631 62.5505 68.2137 61.8512 67.7465C61.1519 67.2792 60.6068 66.6151 60.285 65.838C59.9631 65.061 59.8789 64.206 60.043 63.3811C60.2071 62.5562 60.6121 61.7985 61.2068 61.2038C61.8015 60.6091 62.5592 60.2041 63.3841 60.04C64.209 59.8759 65.064 59.9601 65.841 60.282C66.618 60.6038 67.2822 61.1489 67.7495 61.8482C68.2167 62.5475 68.4661 63.3697 68.4661 64.2107C68.4661 65.3385 68.0181 66.4201 67.2206 67.2176C66.4231 68.0151 65.3415 68.4631 64.2137 68.4631Z" fill="#F57329"/>
<path d="M64.2141 23.8127C63.6502 23.8127 63.1094 23.5887 62.7106 23.19C62.3119 22.7913 62.0879 22.2504 62.0879 21.6865V17.4341C62.0879 16.8702 62.3119 16.3294 62.7106 15.9307C63.1094 15.5319 63.6502 15.3079 64.2141 15.3079C64.778 15.3079 65.3188 15.5319 65.7176 15.9307C66.1163 16.3294 66.3403 16.8702 66.3403 17.4341V21.6865C66.3403 22.2504 66.1163 22.7913 65.7176 23.19C65.3188 23.5887 64.778 23.8127 64.2141 23.8127Z" fill="#F57329"/>
<path d="M85.4761 29.5111C85.103 29.5107 84.7367 29.4122 84.4137 29.2254C84.0908 29.0387 83.8227 28.7702 83.6364 28.4471C83.45 28.1239 83.352 27.7574 83.3521 27.3844C83.3521 27.0113 83.4504 26.6449 83.6369 26.3218L85.7631 22.6371C86.0471 22.1527 86.5111 21.8003 87.0539 21.6568C87.5967 21.5133 88.1743 21.5903 88.6605 21.8711C89.1467 22.1518 89.5022 22.6135 89.6493 23.1553C89.7964 23.6972 89.7232 24.2752 89.4457 24.7633L87.3195 28.448C87.1327 28.7715 86.864 29.0401 86.5404 29.2268C86.2167 29.4134 85.8497 29.5115 85.4761 29.5111Z" fill="#F57329"/>
<path d="M42.9516 29.5111C42.578 29.5115 42.2109 29.4134 41.8873 29.2268C41.5637 29.0401 41.295 28.7715 41.1082 28.448L38.982 24.7633C38.7045 24.2752 38.6313 23.6972 38.7784 23.1553C38.9255 22.6135 39.281 22.1518 39.7672 21.8711C40.2534 21.5903 40.831 21.5133 41.3738 21.6568C41.9166 21.8003 42.3806 22.1527 42.6646 22.6371L44.7908 26.3218C44.9773 26.6449 45.0755 27.0113 45.0756 27.3844C45.0757 27.7574 44.9777 28.1239 44.7913 28.4471C44.605 28.7702 44.3369 29.0387 44.0139 29.2254C43.691 29.4122 43.3246 29.5107 42.9516 29.5111Z" fill="#F57329"/>
<path d="M27.3851 45.0748C27.0118 45.0755 26.6449 44.9772 26.322 44.7898L22.6373 42.6636C22.153 42.3797 21.8006 41.9157 21.6571 41.3729C21.5135 40.83 21.5906 40.2525 21.8713 39.7663C22.152 39.28 22.6137 38.9246 23.1556 38.7775C23.6974 38.6304 24.2754 38.7035 24.7635 38.9811L28.4482 41.1073C28.8536 41.3413 29.1703 41.7025 29.3494 42.1349C29.5285 42.5674 29.5599 43.0468 29.4388 43.4989C29.3177 43.9509 29.0507 44.3504 28.6794 44.6354C28.3081 44.9203 27.8532 45.0747 27.3851 45.0748Z" fill="#F57329"/>
<path d="M21.6897 66.3369H17.4372C16.8733 66.3369 16.3325 66.1129 15.9338 65.7141C15.535 65.3154 15.311 64.7746 15.311 64.2107C15.311 63.6468 15.535 63.106 15.9338 62.7072C16.3325 62.3085 16.8733 62.0845 17.4372 62.0845H21.6897C22.2536 62.0845 22.7944 62.3085 23.1931 62.7072C23.5919 63.106 23.8159 63.6468 23.8159 64.2107C23.8159 64.7746 23.5919 65.3154 23.1931 65.7141C22.7944 66.1129 22.2536 66.3369 21.6897 66.3369Z" fill="#F57329"/>
<path d="M23.7052 89.7252C23.2372 89.7252 22.7822 89.5708 22.4109 89.2858C22.0396 89.0009 21.7727 88.6014 21.6516 88.1493C21.5304 87.6972 21.5618 87.2178 21.7409 86.7854C21.92 86.353 22.2368 85.9918 22.6421 85.7577L26.3268 83.6315C26.5687 83.4897 26.8363 83.3971 27.1141 83.3591C27.3919 83.3212 27.6745 83.3385 27.9456 83.4102C28.2167 83.4818 28.4709 83.6064 28.6937 83.7768C28.9164 83.9471 29.1033 84.1598 29.2435 84.4026C29.3837 84.6455 29.4745 84.9136 29.5106 85.1917C29.5468 85.4698 29.5275 85.7522 29.4541 86.0228C29.3806 86.2934 29.2543 86.5469 29.0825 86.7685C28.9107 86.9901 28.6968 87.1755 28.453 87.3141L24.7683 89.4403C24.4454 89.6277 24.0786 89.726 23.7052 89.7252Z" fill="#F57329"/>
<path d="M64.2139 85.4728C61.4206 85.4805 58.6536 84.9331 56.0737 83.8621C53.4939 82.7912 51.1526 81.2182 49.1859 79.2345C48.9831 79.0381 48.8215 78.8032 48.7105 78.5437C48.5994 78.2841 48.5412 78.005 48.5391 77.7227C48.5371 77.4404 48.5913 77.1605 48.6985 76.8994C48.8058 76.6382 48.964 76.4011 49.1639 76.2017C49.3639 76.0024 49.6015 75.8448 49.8629 75.7383C50.1243 75.6318 50.4044 75.5784 50.6867 75.5812C50.969 75.5841 51.2479 75.6431 51.5071 75.7549C51.7664 75.8667 52.0008 76.029 52.1966 76.2323C53.7689 77.8383 55.6441 79.1166 57.7136 79.9932C59.7831 80.8698 62.0059 81.3273 64.2534 81.3393C66.5009 81.3512 68.7285 80.9173 70.8072 80.0627C72.8859 79.2082 74.7746 77.9498 76.3638 76.3606C77.9531 74.7714 79.2114 72.8827 80.066 70.804C80.9205 68.7253 81.3544 66.4977 81.3425 64.2502C81.3305 62.0027 80.873 59.7799 79.9964 57.7104C79.1198 55.6408 77.8415 53.7657 76.2355 52.1934C76.0322 51.9975 75.8699 51.7632 75.7581 51.5039C75.6463 51.2447 75.5873 50.9658 75.5844 50.6835C75.5816 50.4012 75.635 50.1211 75.7415 49.8597C75.8481 49.5982 76.0056 49.3606 76.205 49.1607C76.4043 48.9608 76.6415 48.8026 76.9026 48.6953C77.1637 48.588 77.4436 48.5338 77.7259 48.5359C78.0082 48.5379 78.2873 48.5962 78.5469 48.7072C78.8064 48.8183 79.0413 48.9799 79.2377 49.1827C82.2084 52.1559 84.2312 55.9429 85.0507 60.0652C85.8701 64.1876 85.4494 68.4603 83.8418 72.3436C82.2341 76.227 79.5116 79.5468 76.0181 81.8836C72.5246 84.2204 68.4169 85.4694 64.2139 85.4728Z" fill="#F57329"/>
</svg>
