<svg width="128" height="128" viewBox="0 0 128 128" fill="none" xmlns="http://www.w3.org/2000/svg">
<path d="M117.332 85.3328C116.154 85.3328 115.199 86.288 115.199 87.466V123.732H100.266C99.088 123.732 98.1328 124.687 98.1328 125.865C98.1328 127.043 99.088 127.998 100.266 127.998H117.332C118.51 127.998 119.466 127.043 119.466 125.865V87.466C119.466 86.288 118.517 85.3328 117.332 85.3328Z" fill="white"/>
<path d="M110.932 104.532V87.466C110.932 86.288 109.977 85.3328 108.799 85.3328H95.9995C94.8214 85.3328 93.8662 86.288 93.8662 87.466V104.532C93.8662 105.71 94.8214 106.666 95.9995 106.666H108.799C109.984 106.666 110.932 105.71 110.932 104.532ZM106.666 102.399H98.1328V89.5993H106.666V102.399Z" fill="white"/>
<path d="M83.1991 36.2673C84.3772 36.2673 85.3324 35.3121 85.3324 34.134V23.4676C85.3324 22.2895 84.3772 21.3344 83.1991 21.3344H19.2007C18.0226 21.3344 17.0674 22.2895 17.0674 23.4676V98.1324C17.0674 99.3105 18.0226 100.266 19.2007 100.266C20.3787 100.266 21.3339 99.3105 21.3339 98.1324V93.8659H23.4672C24.6453 93.8659 25.6005 92.9107 25.6005 91.7326C25.6005 90.5545 24.6453 89.5993 23.4672 89.5993H21.3339V76.7996H29.8671V85.3328C29.8671 86.5108 30.8223 87.466 32.0003 87.466C33.1784 87.466 34.1336 86.5108 34.1336 85.3328V76.7996H42.6667C43.8448 76.7996 44.8 75.8444 44.8 74.6664C45.9781 74.6664 46.9333 73.7112 46.9333 72.5331V59.7334H55.4664C55.4664 60.9115 56.4216 61.8667 57.5997 61.8667C58.7778 61.8667 59.733 60.9115 59.733 59.7334C60.9111 59.7334 61.8663 58.7782 61.8663 57.6001C61.8663 56.422 60.9111 55.4668 59.733 55.4668V42.6672H68.2661V46.9337C68.2661 48.1118 69.2213 49.067 70.3994 49.067C71.5775 49.067 72.5327 48.1118 72.5327 46.9337V42.6672H76.7992C77.9773 42.6672 78.9325 41.712 78.9325 40.5339C78.9325 39.3558 77.9773 38.4006 76.7992 38.4006H72.5327V25.6009H81.0658V34.134C81.0658 35.3121 82.021 36.2673 83.1991 36.2673ZM29.8671 72.5331H21.3339V59.7334H29.8671V72.5331ZM29.8671 55.4668H21.3339V42.6672H29.8671V55.4668ZM29.8671 38.4006H21.3339V25.6009H29.8671V38.4006ZM42.6667 72.5331H34.1336V59.7334H42.6667V72.5331ZM42.6667 55.4668H34.1336V42.6672H42.6667V55.4668ZM42.6667 38.4006H34.1336V25.6009H42.6667V38.4006ZM55.4664 55.4668H46.9333V42.6672H55.4664V55.4668ZM55.4664 38.4006H46.9333V25.6009H55.4664V38.4006ZM68.2661 38.4006H59.733V25.6009H68.2661V38.4006Z" fill="white"/>
<path d="M10.6675 108.799C11.8455 108.799 12.8007 107.844 12.8007 106.666V17.0678H27.7337C28.9118 17.0678 29.867 16.1126 29.867 14.9346V8.53471H44.7999C45.978 8.53471 46.9332 7.57951 46.9332 6.40143V4.26815H55.4663V6.40143C55.4663 7.57951 56.4216 8.53471 57.5996 8.53471H72.5326V12.8013H36.2668C35.0887 12.8013 34.1335 13.7565 34.1335 14.9346C34.1335 16.1126 35.0887 17.0678 36.2668 17.0678H89.5988V25.601C89.5988 26.779 90.554 27.7342 91.7321 27.7342C92.9102 27.7342 93.8654 26.779 93.8654 25.601V14.9346C93.8654 13.7565 92.9102 12.8013 91.7321 12.8013H76.7991V6.40143C76.7991 5.22335 75.8439 4.26815 74.6659 4.26815H59.7329V2.13487C59.7329 0.956787 58.7777 0.00158691 57.5996 0.00158691H44.7999C43.6219 0.00158691 42.6667 0.956787 42.6667 2.13487V4.26815H27.7401C26.562 4.26815 25.6068 5.22335 25.6068 6.40143V12.8013H10.6675C9.48938 12.8013 8.53418 13.7565 8.53418 14.9346V106.666C8.53418 107.844 9.48938 108.799 10.6675 108.799Z" fill="white"/>
<path d="M125.865 46.9337H110.933V44.8005C110.933 43.6224 109.977 42.6672 108.799 42.6672H100.266C99.088 42.6672 98.1328 43.6224 98.1328 44.8005V49.067C98.1328 50.2451 99.088 51.2003 100.266 51.2003C101.444 51.2003 102.399 50.2451 102.399 49.067V46.9337H106.666V49.067C106.666 50.2451 107.621 51.2003 108.799 51.2003H123.732V80.1811L91.1089 47.5578C90.2747 46.7236 88.9247 46.7236 88.0905 47.5578C87.2563 48.392 87.2563 49.742 88.0905 50.5762L124.356 86.842C124.764 87.2495 125.311 87.4661 125.865 87.4661C126.139 87.4661 126.419 87.4151 126.681 87.3069C127.477 86.9757 127.999 86.1988 127.999 85.3328V49.067C127.999 47.8889 127.05 46.9337 125.865 46.9337Z" fill="white"/>
<path d="M91.7324 119.465H70.3996C69.2216 119.465 68.2664 120.421 68.2664 121.599V123.732H46.9336V93.8659C46.9336 92.6879 45.9784 91.7327 44.8003 91.7327C43.6222 91.7327 42.667 92.6879 42.667 93.8659V125.865C42.667 127.043 43.6222 127.998 44.8003 127.998H70.3996C71.5777 127.998 72.5329 127.043 72.5329 125.865V123.732H89.5992V125.865C89.5992 127.043 90.5544 127.998 91.7324 127.998C92.9105 127.998 93.8657 127.043 93.8657 125.865V121.599C93.8657 120.421 92.9169 119.465 91.7324 119.465Z" fill="white"/>
<path d="M127.374 0.625656C126.54 -0.208552 125.19 -0.208552 124.356 0.625656L0.625656 124.356C-0.208552 125.19 -0.208552 126.54 0.625656 127.374C1.03958 127.788 1.58722 127.998 2.13487 127.998C2.68252 127.998 3.23017 127.788 3.64409 127.374L127.374 3.64409C128.209 2.80988 128.209 1.45986 127.374 0.625656Z" fill="white"/>
<path d="M87.4662 115.199C88.6442 115.199 89.5994 114.243 89.5994 113.065V87.466C89.5994 86.288 88.6442 85.3328 87.4662 85.3328H74.6665C73.4884 85.3328 72.5332 86.288 72.5332 87.466V113.065C72.5332 114.243 73.4884 115.199 74.6665 115.199C75.8446 115.199 76.7998 114.243 76.7998 113.065V89.5993H85.3329V98.1325H83.1996C82.0215 98.1325 81.0663 99.0876 81.0663 100.266C81.0663 101.444 82.0215 102.399 83.1996 102.399H85.3329V113.065C85.3329 114.243 86.2881 115.199 87.4662 115.199Z" fill="white"/>
<path d="M53.3345 85.3328C52.1564 85.3328 51.2012 86.288 51.2012 87.466V104.532C51.2012 105.71 52.1564 106.666 53.3345 106.666H66.1341C67.3122 106.666 68.2674 105.71 68.2674 104.532V87.466C68.2674 86.288 67.3122 85.3328 66.1341 85.3328H53.3345ZM64.0009 102.399H55.4677V89.5993H64.0009V102.399Z" fill="white"/>
</svg>
