<svg width="128" height="121" viewBox="0 0 128 121" fill="none" xmlns="http://www.w3.org/2000/svg">
<path d="M85.0296 120.684H79.6537C79.1688 120.684 78.7037 120.491 78.3608 120.148C78.0178 119.805 77.8252 119.34 77.8252 118.855C77.8252 118.37 78.0178 117.905 78.3608 117.562C78.7037 117.219 79.1688 117.026 79.6537 117.026H85.0296C85.5146 117.026 85.9797 117.219 86.3226 117.562C86.6655 117.905 86.8582 118.37 86.8582 118.855C86.8582 119.34 86.6655 119.805 86.3226 120.148C85.9797 120.491 85.5146 120.684 85.0296 120.684Z" fill="white"/>
<path d="M66.8533 120.684H3.65903C2.68911 120.684 1.75892 120.298 1.07309 119.612C0.387251 118.927 0.00195313 117.996 0.00195312 117.026V51.1991C0.00195312 50.7141 0.194602 50.249 0.53752 49.9061C0.880437 49.5632 1.34553 49.3705 1.83049 49.3705C2.31545 49.3705 2.78055 49.5632 3.12346 49.9061C3.46638 50.249 3.65903 50.7141 3.65903 51.1991V117.026H66.8533C67.3383 117.026 67.8034 117.219 68.1463 117.562C68.4892 117.905 68.6819 118.37 68.6819 118.855C68.6819 119.34 68.4892 119.805 68.1463 120.148C67.8034 120.491 67.3383 120.684 66.8533 120.684Z" fill="white"/>
<path d="M124.343 120.684H116.005C115.52 120.684 115.054 120.491 114.712 120.148C114.369 119.805 114.176 119.34 114.176 118.855C114.176 118.37 114.369 117.905 114.712 117.562C115.054 117.219 115.52 117.026 116.005 117.026H124.343V53.0276H74.9721C74.4871 53.0276 74.022 52.835 73.6791 52.4921C73.3362 52.1491 73.1436 51.684 73.1436 51.1991C73.1436 50.7141 73.3362 50.249 73.6791 49.9061C74.022 49.5632 74.4871 49.3705 74.9721 49.3705H124.343C125.313 49.3705 126.243 49.7558 126.929 50.4417C127.614 51.1275 128 52.0577 128 53.0276V117.026C128 117.996 127.614 118.927 126.929 119.612C126.243 120.298 125.313 120.684 124.343 120.684Z" fill="white"/>
<path d="M103.187 120.684H97.8295C97.3446 120.684 96.8795 120.491 96.5365 120.148C96.1936 119.805 96.001 119.34 96.001 118.855C96.001 118.37 96.1936 117.905 96.5365 117.562C96.8795 117.219 97.3446 117.026 97.8295 117.026H103.187C103.672 117.026 104.137 117.219 104.48 117.562C104.823 117.905 105.016 118.37 105.016 118.855C105.016 119.34 104.823 119.805 104.48 120.148C104.137 120.491 103.672 120.684 103.187 120.684Z" fill="white"/>
<path d="M115.2 53.0276H95.0864C94.6014 53.0276 94.1363 52.835 93.7934 52.4921C93.4505 52.1491 93.2578 51.684 93.2578 51.1991V1.82854C93.2578 1.34358 93.4505 0.878484 93.7934 0.535567C94.1363 0.192649 94.6014 0 95.0864 0H115.2C115.685 0 116.15 0.192649 116.493 0.535567C116.836 0.878484 117.029 1.34358 117.029 1.82854V51.1991C117.029 51.684 116.836 52.1491 116.493 52.4921C116.15 52.835 115.685 53.0276 115.2 53.0276ZM96.9149 49.3705H113.372V3.65708H96.9149V49.3705Z" fill="white"/>
<path d="M115.2 14.6283H95.0864C94.6014 14.6283 94.1363 14.4357 93.7934 14.0927C93.4505 13.7498 93.2578 13.2847 93.2578 12.7998C93.2578 12.3148 93.4505 11.8497 93.7934 11.5068C94.1363 11.1639 94.6014 10.9712 95.0864 10.9712H115.2C115.685 10.9712 116.15 11.1639 116.493 11.5068C116.836 11.8497 117.029 12.3148 117.029 12.7998C117.029 13.2847 116.836 13.7498 116.493 14.0927C116.15 14.4357 115.685 14.6283 115.2 14.6283Z" fill="white"/>
<path d="M38.4009 53.0276C37.9804 53.0281 37.5727 52.8837 37.2463 52.6186C36.9198 52.3536 36.6947 51.9842 36.6089 51.5726C36.523 51.161 36.5816 50.7324 36.7748 50.3589C36.9679 49.9855 37.2839 49.69 37.6695 49.5223L74.2402 33.6744C74.5186 33.5529 74.8228 33.5027 75.1254 33.5282C75.428 33.5537 75.7195 33.6542 75.9736 33.8206C76.2276 33.987 76.4362 34.2141 76.5805 34.4813C76.7249 34.7485 76.8004 35.0475 76.8002 35.3512V51.1991C76.8002 51.6841 76.6076 52.1492 76.2646 52.4921C75.9217 52.835 75.4566 53.0276 74.9717 53.0276C74.4867 53.0276 74.0216 52.835 73.6787 52.4921C73.3358 52.1492 73.1431 51.6841 73.1431 51.1991V38.136L39.1323 52.8759C38.902 52.9776 38.6527 53.0293 38.4009 53.0276Z" fill="white"/>
<path d="M1.83058 53.0276C1.41012 53.0281 1.00235 52.8837 0.675946 52.6186C0.349538 52.3536 0.124436 51.9842 0.0385543 51.5726C-0.0473278 51.161 0.011257 50.7324 0.204441 50.3589C0.397626 49.9855 0.713606 49.69 1.09916 49.5223L37.6699 33.6744C37.9483 33.5529 38.2525 33.5027 38.5551 33.5282C38.8577 33.5537 39.1492 33.6542 39.4033 33.8206C39.6573 33.987 39.8659 34.2141 40.0102 34.4813C40.1545 34.7485 40.23 35.0475 40.2299 35.3512V51.1991C40.2299 51.6841 40.0372 52.1492 39.6943 52.4921C39.3514 52.835 38.8863 53.0276 38.4014 53.0276C37.9164 53.0276 37.4513 52.835 37.1084 52.4921C36.7655 52.1492 36.5728 51.6841 36.5728 51.1991V38.136L2.56199 52.8759C2.33166 52.9776 2.08237 53.0293 1.83058 53.0276Z" fill="white"/>
<path d="M43.8871 120.684H18.2875C17.8026 120.684 17.3375 120.491 16.9946 120.148C16.6516 119.805 16.459 119.34 16.459 118.855V85.9413C16.459 85.4564 16.6516 84.9913 16.9946 84.6484C17.3375 84.3054 17.8026 84.1128 18.2875 84.1128H43.8871C44.372 84.1128 44.8371 84.3054 45.18 84.6484C45.523 84.9913 45.7156 85.4564 45.7156 85.9413V118.855C45.7156 119.34 45.523 119.805 45.18 120.148C44.8371 120.491 44.372 120.684 43.8871 120.684ZM20.1161 117.026H42.0585V87.7699H20.1161V117.026Z" fill="white"/>
<path d="M113.371 80.4557H103.62C103.135 80.4557 102.669 80.2631 102.327 79.9201C101.984 79.5772 101.791 79.1121 101.791 78.6272V68.8756C101.791 68.3906 101.984 67.9255 102.327 67.5826C102.669 67.2397 103.135 67.047 103.62 67.047H113.371C113.856 67.047 114.321 67.2397 114.664 67.5826C115.007 67.9255 115.2 68.3906 115.2 68.8756V78.6272C115.2 79.1121 115.007 79.5772 114.664 79.9201C114.321 80.2631 113.856 80.4557 113.371 80.4557ZM105.448 76.7986H111.543V70.7041H105.448V76.7986Z" fill="white"/>
<path d="M92.6484 80.4557H82.8949C82.41 80.4557 81.9449 80.2631 81.602 79.9201C81.2591 79.5772 81.0664 79.1121 81.0664 78.6272V68.8756C81.0664 68.3906 81.2591 67.9255 81.602 67.5826C81.9449 67.2397 82.41 67.047 82.8949 67.047H92.6484C93.1333 67.047 93.5984 67.2397 93.9413 67.5826C94.2843 67.9255 94.4769 68.3906 94.4769 68.8756V78.6272C94.4769 79.1121 94.2843 79.5772 93.9413 79.9201C93.5984 80.2631 93.1333 80.4557 92.6484 80.4557ZM84.7235 76.7986H90.8198V70.7041H84.7235V76.7986Z" fill="white"/>
<path d="M71.9239 80.4557H62.1723C61.6873 80.4557 61.2222 80.2631 60.8793 79.9201C60.5364 79.5772 60.3438 79.1121 60.3438 78.6272V68.8756C60.3438 68.3906 60.5364 67.9255 60.8793 67.5826C61.2222 67.2397 61.6873 67.047 62.1723 67.047H71.9239C72.4088 67.047 72.8739 67.2397 73.2169 67.5826C73.5598 67.9255 73.7524 68.3906 73.7524 68.8756V78.6272C73.7524 79.1121 73.5598 79.5772 73.2169 79.9201C72.8739 80.2631 72.4088 80.4557 71.9239 80.4557ZM64.0008 76.7986H70.0953V70.7041H64.0008V76.7986Z" fill="white"/>
<path d="M113.371 101.179H103.62C103.135 101.179 102.669 100.986 102.327 100.643C101.984 100.3 101.791 99.835 101.791 99.35V89.5984C101.791 89.1134 101.984 88.6483 102.327 88.3054C102.669 87.9625 103.135 87.7699 103.62 87.7699H113.371C113.856 87.7699 114.321 87.9625 114.664 88.3054C115.007 88.6483 115.2 89.1134 115.2 89.5984V99.35C115.2 99.835 115.007 100.3 114.664 100.643C114.321 100.986 113.856 101.179 113.371 101.179ZM105.448 97.5215H111.543V91.4269H105.448V97.5215Z" fill="white"/>
<path d="M92.6484 101.179H82.8949C82.41 101.179 81.9449 100.986 81.602 100.643C81.2591 100.3 81.0664 99.835 81.0664 99.35V89.5984C81.0664 89.1134 81.2591 88.6483 81.602 88.3054C81.9449 87.9625 82.41 87.7699 82.8949 87.7699H92.6484C93.1333 87.7699 93.5984 87.9625 93.9413 88.3054C94.2843 88.6483 94.4769 89.1134 94.4769 89.5984V99.35C94.4769 99.835 94.2843 100.3 93.9413 100.643C93.5984 100.986 93.1333 101.179 92.6484 101.179ZM84.7235 97.5215H90.8198V91.4269H84.7235V97.5215Z" fill="white"/>
<path d="M71.9239 101.179H62.1723C61.6873 101.179 61.2222 100.986 60.8793 100.643C60.5364 100.3 60.3438 99.835 60.3438 99.35V89.5984C60.3438 89.1134 60.5364 88.6483 60.8793 88.3054C61.2222 87.9625 61.6873 87.7699 62.1723 87.7699H71.9239C72.4088 87.7699 72.8739 87.9625 73.2169 88.3054C73.5598 88.6483 73.7524 89.1134 73.7524 89.5984V99.35C73.7524 99.835 73.5598 100.3 73.2169 100.643C72.8739 100.986 72.4088 101.179 71.9239 101.179ZM64.0008 97.5215H70.0953V91.4269H64.0008V97.5215Z" fill="white"/>
</svg>
