<svg width="128" height="129" viewBox="0 0 128 129" fill="none" xmlns="http://www.w3.org/2000/svg">
<path d="M43.5545 69.2879C44.5978 69.2879 45.4467 68.4455 45.4467 67.3957C45.4467 66.3459 44.6043 65.5034 43.5545 65.5034H35.0263V59.8396C35.0263 58.7962 34.1839 57.9473 33.134 57.9473C32.0907 57.9473 31.2418 58.7898 31.2418 59.8396V65.5034H24.6059V43.6905C24.6059 42.2973 23.5237 41.215 22.1499 41.215H2.78008C1.21831 41.215 0 42.5629 0 44.2932V125.881C0 127.605 1.22479 128.959 2.78008 128.959H42.6602C44.196 128.959 45.4403 127.579 45.4403 125.881V106.297C45.4403 105.254 44.5978 104.405 43.548 104.405C42.5046 104.405 41.6557 105.247 41.6557 106.297V125.181H3.76507V44.9931H20.8214V49.7497H14.4382C13.3949 49.7497 12.546 50.5921 12.546 51.6419C12.546 52.6918 13.3884 53.5342 14.4382 53.5342H20.8214V60.3969H15.0992C14.0559 60.3969 13.207 61.2393 13.207 62.2892C13.207 63.3325 14.0494 64.1814 15.0992 64.1814H20.8214V80.8748C20.8214 81.9182 21.6638 82.7671 22.7137 82.7671H41.6557V97.5293C41.6557 98.5727 42.4982 99.4216 43.548 99.4216C44.5913 99.4216 45.4403 98.5792 45.4403 97.5293V81.4645C45.4403 79.9352 44.1247 78.989 42.8999 78.989H35.0199V69.3139H43.5545V69.2879ZM31.2483 78.9631H24.6124V69.2879H31.2483V78.9631Z" fill="#F57329"/>
<path d="M107.976 87.3616V78.0364V60.9477V55.4977V34.5273V32.959V23.2061H111.657C113.374 23.2061 114.767 21.8128 114.767 20.0955V19.9205H124.552C125.388 19.9205 126.16 19.6484 126.756 19.2012C126.866 19.13 126.97 19.0457 127.06 18.9485C127.08 18.9291 127.099 18.9031 127.119 18.8772C127.669 18.3264 128 17.5941 128 16.797V6.409C128 4.68523 126.451 3.28546 124.546 3.28546H114.761V3.1105C114.761 1.39321 113.361 -6.10352e-05 111.65 -6.10352e-05H87.6273C85.91 -6.10352e-05 84.5168 1.39321 84.5168 3.1105V3.28546H80.9461H59.9303H59.9238H58.3556H31.313C29.4078 3.28546 27.8525 4.68523 27.8525 6.409V16.797C27.8525 18.5208 29.4013 19.9205 31.313 19.9205H40.3013V26.4333L33.3155 33.8598H31.5917C29.9392 33.8598 28.5913 35.2012 28.5913 36.8537V45.6865C28.5913 47.3454 29.9392 48.6869 31.5917 48.6869H52.7954C54.4544 48.6869 55.8023 47.3389 55.8023 45.6865V36.8537C55.8023 35.2012 54.4544 33.8598 52.7954 33.8598H51.0781L44.0923 26.4333V19.9205H58.3685H80.9591H84.5297V20.0955C84.5297 21.8128 85.9295 23.2061 87.6403 23.2061H91.3212V32.959V55.4977V78.0364V98.6893H85.3981C82.78 98.6893 80.648 100.815 80.648 103.433V115.752H78.5743C74.9258 115.752 71.9578 118.714 71.9578 122.356V125.797C71.9578 127.533 73.377 128.953 75.1203 128.953H124.766C126.509 128.953 127.922 127.54 127.922 125.797V122.356C127.922 118.714 124.961 115.752 121.312 115.752H119.239V103.433C119.239 100.815 117.106 98.6893 114.482 98.6893H107.969V87.3616C107.976 87.3681 107.976 87.3681 107.976 87.3616ZM124.228 7.05704V13.5568L117.534 7.05704H124.228ZM114.767 9.63623L121.468 16.136H114.767V9.63623ZM31.6306 16.136V7.05704H32.6804L42.0316 16.136H31.6306ZM52.0113 37.6314V44.9088H32.3628V37.6314H52.0113ZM45.8744 33.8533H38.4933L42.1806 29.9327L45.8744 33.8533ZM38.098 7.05704H55.2644L46.678 15.3908L38.098 7.05704ZM58.3491 16.136H51.3373L59.9238 7.80227L68.5103 16.136H58.3491ZM64.5767 7.05704H80.9396H81.7432L73.1567 15.3908L64.5767 7.05704ZM80.9396 16.136H77.8161L84.5103 9.63623V16.136H80.9396ZM114.482 102.467C115.02 102.467 115.46 102.902 115.46 103.433V115.752H104.463C103.42 115.752 102.571 116.594 102.571 117.644C102.571 118.694 103.413 119.537 104.463 119.537H121.312C122.874 119.537 124.144 120.807 124.144 122.362V125.181H75.7294V122.362C75.7294 120.8 76.9996 119.537 78.5678 119.537H95.3195C96.3629 119.537 97.2118 118.694 97.2118 117.644C97.2118 116.594 96.3693 115.752 95.3195 115.752H84.4196V103.433C84.4196 102.908 84.8667 102.467 85.3916 102.467H93.2004H106.09H114.482ZM103.446 34.5208L95.0862 43.0878V32.9525V25.9473L103.446 34.5208ZM97.6784 23.1996H104.198V29.8809L97.6784 23.1996ZM104.198 39.1607V55.4912V56.2948L95.8379 47.7278L104.198 39.1607ZM103.446 60.9412L95.0862 69.5082V55.4912V52.3677L103.446 60.9412ZM104.198 65.5876V78.0364V82.7217L95.8379 74.1547L104.198 65.5876ZM103.446 87.3681L95.0862 95.9351V78.7946L103.446 87.3681ZM104.198 92.008V98.6893H97.6784L104.198 92.008ZM106.083 19.4216H93.2199C93.2199 19.4216 93.2199 19.4216 93.2134 19.4216H93.1939H88.2883V3.77149H110.983V19.4216H106.083Z" fill="#F57329"/>
<path d="M37.1389 91.211C37.1389 89.6557 35.8752 88.3856 34.3199 88.3856H11.1267C9.57145 88.3856 8.30127 89.6492 8.30127 91.211V98.9161C8.30127 100.471 9.57145 101.742 11.1267 101.742H34.3199C35.8752 101.742 37.1389 100.478 37.1389 98.9161V91.211ZM20.8343 97.9635H12.0793V92.1701H20.8343V97.9635ZM33.3608 97.9635H24.6124V92.1701H33.3608V97.9635Z" fill="#F57329"/>
<path d="M34.3199 107.386H11.1267C9.57145 107.386 8.30127 108.65 8.30127 110.211V117.917C8.30127 119.472 9.57145 120.742 11.1267 120.742H34.3199C35.8752 120.742 37.1389 119.478 37.1389 117.917V110.211C37.1389 108.65 35.8752 107.386 34.3199 107.386ZM20.8343 116.957H12.0793V111.164H20.8343V116.957ZM33.3608 116.957H24.6124V111.164H33.3608V116.957Z" fill="#F57329"/>
</svg>
