<svg width="128" height="128" viewBox="0 0 128 128" fill="none" xmlns="http://www.w3.org/2000/svg">
<path d="M125.867 38.4H98.1333V2.13333C98.1333 0.9536 97.1776 0 96 0H32C30.8224 0 29.8667 0.9536 29.8667 2.13333V38.4H2.13333C0.955733 38.4 0 39.3536 0 40.5333V125.867C0 127.046 0.955733 128 2.13333 128H125.867C127.044 128 128 127.046 128 125.867V40.5333C128 39.3536 127.044 38.4 125.867 38.4ZM4.26667 42.6667H29.8667V123.733H4.26667V42.6667ZM70.4 102.4V123.733H57.6V102.4H70.4ZM93.8667 123.733H74.6667V102.4H78.9333V98.1333H49.0667V102.4H53.3333V123.733H34.1333V4.26667H93.8667V123.733ZM123.733 123.733H98.1333V42.6667H123.733V123.733Z" fill="#F57329"/>
<path d="M104.533 64H117.333C118.511 64 119.467 63.0464 119.467 61.8667V49.0667C119.467 47.8869 118.511 46.9333 117.333 46.9333H104.533C103.356 46.9333 102.4 47.8869 102.4 49.0667V61.8667C102.4 63.0464 103.356 64 104.533 64ZM106.667 51.2H115.2V59.7333H106.667V51.2Z" fill="#F57329"/>
<path d="M104.533 85.3333H117.333C118.511 85.3333 119.467 84.3797 119.467 83.2V70.4C119.467 69.2203 118.511 68.2667 117.333 68.2667H104.533C103.356 68.2667 102.4 69.2203 102.4 70.4V83.2C102.4 84.3797 103.356 85.3333 104.533 85.3333ZM106.667 72.5333H115.2V81.0667H106.667V72.5333Z" fill="#F57329"/>
<path d="M104.533 106.667H117.333C118.511 106.667 119.467 105.713 119.467 104.533V91.7333C119.467 90.5536 118.511 89.6 117.333 89.6H104.533C103.356 89.6 102.4 90.5536 102.4 91.7333V104.533C102.4 105.713 103.356 106.667 104.533 106.667ZM106.667 93.8667H115.2V102.4H106.667V93.8667Z" fill="#F57329"/>
<path d="M23.4665 46.9333H10.6665C9.48894 46.9333 8.5332 47.8869 8.5332 49.0667V61.8667C8.5332 63.0464 9.48894 64 10.6665 64H23.4665C24.6441 64 25.5999 63.0464 25.5999 61.8667V49.0667C25.5999 47.8869 24.6441 46.9333 23.4665 46.9333ZM21.3332 59.7333H12.7999V51.2H21.3332V59.7333Z" fill="#F57329"/>
<path d="M40.5332 55.4667H49.0666C50.2442 55.4667 51.1999 54.5131 51.1999 53.3333V44.8C51.1999 43.6203 50.2442 42.6667 49.0666 42.6667H40.5332C39.3556 42.6667 38.3999 43.6203 38.3999 44.8V53.3333C38.3999 54.5131 39.3556 55.4667 40.5332 55.4667ZM42.6666 46.9333H46.9332V51.2H42.6666V46.9333Z" fill="#F57329"/>
<path d="M68.2668 42.6667H59.7334C58.5558 42.6667 57.6001 43.6203 57.6001 44.8V53.3333C57.6001 54.5131 58.5558 55.4667 59.7334 55.4667H68.2668C69.4444 55.4667 70.4001 54.5131 70.4001 53.3333V44.8C70.4001 43.6203 69.4444 42.6667 68.2668 42.6667ZM66.1334 51.2H61.8668V46.9333H66.1334V51.2Z" fill="#F57329"/>
<path d="M76.7998 44.8V53.3333C76.7998 54.5131 77.7555 55.4667 78.9331 55.4667H87.4665C88.6441 55.4667 89.5998 54.5131 89.5998 53.3333V44.8C89.5998 43.6203 88.6441 42.6667 87.4665 42.6667H78.9331C77.7555 42.6667 76.7998 43.6203 76.7998 44.8ZM81.0665 46.9333H85.3331V51.2H81.0665V46.9333Z" fill="#F57329"/>
<path d="M40.5332 72.5333H49.0666C50.2442 72.5333 51.1999 71.5797 51.1999 70.4V61.8667C51.1999 60.6869 50.2442 59.7333 49.0666 59.7333H40.5332C39.3556 59.7333 38.3999 60.6869 38.3999 61.8667V70.4C38.3999 71.5797 39.3556 72.5333 40.5332 72.5333ZM42.6666 64H46.9332V68.2667H42.6666V64Z" fill="#F57329"/>
<path d="M68.2668 59.7333H59.7334C58.5558 59.7333 57.6001 60.6869 57.6001 61.8667V70.4C57.6001 71.5797 58.5558 72.5333 59.7334 72.5333H68.2668C69.4444 72.5333 70.4001 71.5797 70.4001 70.4V61.8667C70.4001 60.6869 69.4444 59.7333 68.2668 59.7333ZM66.1334 68.2667H61.8668V64H66.1334V68.2667Z" fill="#F57329"/>
<path d="M87.4665 59.7333H78.9331C77.7555 59.7333 76.7998 60.6869 76.7998 61.8667V70.4C76.7998 71.5797 77.7555 72.5333 78.9331 72.5333H87.4665C88.6441 72.5333 89.5998 71.5797 89.5998 70.4V61.8667C89.5998 60.6869 88.6441 59.7333 87.4665 59.7333ZM85.3331 68.2667H81.0665V64H85.3331V68.2667Z" fill="#F57329"/>
<path d="M40.5332 89.6H49.0666C50.2442 89.6 51.1999 88.6464 51.1999 87.4667V78.9333C51.1999 77.7536 50.2442 76.8 49.0666 76.8H40.5332C39.3556 76.8 38.3999 77.7536 38.3999 78.9333V87.4667C38.3999 88.6464 39.3556 89.6 40.5332 89.6ZM42.6666 81.0667H46.9332V85.3333H42.6666V81.0667Z" fill="#F57329"/>
<path d="M68.2668 76.8H59.7334C58.5558 76.8 57.6001 77.7536 57.6001 78.9333V87.4667C57.6001 88.6464 58.5558 89.6 59.7334 89.6H68.2668C69.4444 89.6 70.4001 88.6464 70.4001 87.4667V78.9333C70.4001 77.7536 69.4444 76.8 68.2668 76.8ZM66.1334 85.3333H61.8668V81.0667H66.1334V85.3333Z" fill="#F57329"/>
<path d="M87.4665 76.8H78.9331C77.7555 76.8 76.7998 77.7536 76.7998 78.9333V87.4667C76.7998 88.6464 77.7555 89.6 78.9331 89.6H87.4665C88.6441 89.6 89.5998 88.6464 89.5998 87.4667V78.9333C89.5998 77.7536 88.6441 76.8 87.4665 76.8ZM85.3331 85.3333H81.0665V81.0667H85.3331V85.3333Z" fill="#F57329"/>
<path d="M23.4665 68.2667H10.6665C9.48894 68.2667 8.5332 69.2203 8.5332 70.4V83.2C8.5332 84.3797 9.48894 85.3333 10.6665 85.3333H23.4665C24.6441 85.3333 25.5999 84.3797 25.5999 83.2V70.4C25.5999 69.2203 24.6441 68.2667 23.4665 68.2667ZM21.3332 81.0667H12.7999V72.5333H21.3332V81.0667Z" fill="#F57329"/>
<path d="M23.4665 89.6H10.6665C9.48894 89.6 8.5332 90.5536 8.5332 91.7333V104.533C8.5332 105.713 9.48894 106.667 10.6665 106.667H23.4665C24.6441 106.667 25.5999 105.713 25.5999 104.533V91.7333C25.5999 90.5536 24.6441 89.6 23.4665 89.6ZM21.3332 102.4H12.7999V93.8667H21.3332V102.4Z" fill="#F57329"/>
<path d="M51.1997 29.8667H57.5997V36.2667C57.5997 37.4464 58.5555 38.4 59.7331 38.4H68.2664C69.444 38.4 70.3997 37.4464 70.3997 36.2667V29.8667H76.7997C77.9773 29.8667 78.9331 28.9131 78.9331 27.7333V19.2C78.9331 18.0203 77.9773 17.0667 76.7997 17.0667H70.3997V10.6667C70.3997 9.48693 69.444 8.53333 68.2664 8.53333H59.7331C58.5555 8.53333 57.5997 9.48693 57.5997 10.6667V17.0667H51.1997C50.0221 17.0667 49.0664 18.0203 49.0664 19.2V27.7333C49.0664 28.9131 50.0221 29.8667 51.1997 29.8667ZM53.3331 21.3333H59.7331C60.9107 21.3333 61.8664 20.3797 61.8664 19.2V12.8H66.1331V19.2C66.1331 20.3797 67.0888 21.3333 68.2664 21.3333H74.6664V25.6H68.2664C67.0888 25.6 66.1331 26.5536 66.1331 27.7333V34.1333H61.8664V27.7333C61.8664 26.5536 60.9107 25.6 59.7331 25.6H53.3331V21.3333Z" fill="#F57329"/>
<path d="M85.3335 115.2H89.6002V119.467H85.3335V115.2Z" fill="#F57329"/>
<path d="M85.3335 106.667H89.6002V110.933H85.3335V106.667Z" fill="#F57329"/>
<path d="M85.3335 98.1333H89.6002V102.4H85.3335V98.1333Z" fill="#F57329"/>
</svg>
