<svg width="128" height="128" viewBox="0 0 128 128" fill="none" xmlns="http://www.w3.org/2000/svg">
<path d="M117.332 85.3328C116.154 85.3328 115.199 86.288 115.199 87.4661V123.732H100.266C99.0875 123.732 98.1323 124.687 98.1323 125.865C98.1323 127.043 99.0875 127.998 100.266 127.998H117.332C118.51 127.998 119.465 127.043 119.465 125.865V87.4661C119.465 86.288 118.516 85.3328 117.332 85.3328Z" fill="#F57329"/>
<path d="M110.932 104.532V87.4661C110.932 86.288 109.977 85.3328 108.799 85.3328H95.999C94.8209 85.3328 93.8657 86.288 93.8657 87.4661V104.532C93.8657 105.71 94.8209 106.666 95.999 106.666H108.799C109.983 106.666 110.932 105.71 110.932 104.532ZM106.665 102.399H98.1323V89.5994H106.665V102.399Z" fill="#F57329"/>
<path d="M83.1996 36.2673C84.3776 36.2673 85.3328 35.3121 85.3328 34.1341V23.4677C85.3328 22.2896 84.3776 21.3344 83.1996 21.3344H19.2012C18.0231 21.3344 17.0679 22.2896 17.0679 23.4677V98.1325C17.0679 99.3106 18.0231 100.266 19.2012 100.266C20.3792 100.266 21.3344 99.3106 21.3344 98.1325V93.8659H23.4677C24.6458 93.8659 25.601 92.9107 25.601 91.7326C25.601 90.5546 24.6458 89.5993 23.4677 89.5993H21.3344V76.7997H29.8676V85.3328C29.8676 86.5109 30.8228 87.4661 32.0008 87.4661C33.1789 87.4661 34.1341 86.5109 34.1341 85.3328V76.7997H42.6672C43.8453 76.7997 44.8005 75.8445 44.8005 74.6664C45.9786 74.6664 46.9338 73.7112 46.9338 72.5331V59.7334H55.4669C55.4669 60.9115 56.4221 61.8667 57.6002 61.8667C58.7783 61.8667 59.7335 60.9115 59.7335 59.7334C60.9116 59.7334 61.8668 58.7782 61.8668 57.6001C61.8668 56.4221 60.9116 55.4669 59.7335 55.4669V42.6672H68.2666V46.9337C68.2666 48.1118 69.2218 49.067 70.3999 49.067C71.578 49.067 72.5332 48.1118 72.5332 46.9337V42.6672H76.7997C77.9778 42.6672 78.933 41.712 78.933 40.5339C78.933 39.3558 77.9778 38.4006 76.7997 38.4006H72.5332V25.6009H81.0663V34.1341C81.0663 35.3121 82.0215 36.2673 83.1996 36.2673ZM29.8676 72.5331H21.3344V59.7334H29.8676V72.5331ZM29.8676 55.4669H21.3344V42.6672H29.8676V55.4669ZM29.8676 38.4006H21.3344V25.6009H29.8676V38.4006ZM42.6672 72.5331H34.1341V59.7334H42.6672V72.5331ZM42.6672 55.4669H34.1341V42.6672H42.6672V55.4669ZM42.6672 38.4006H34.1341V25.6009H42.6672V38.4006ZM55.4669 55.4669H46.9338V42.6672H55.4669V55.4669ZM55.4669 38.4006H46.9338V25.6009H55.4669V38.4006ZM68.2666 38.4006H59.7335V25.6009H68.2666V38.4006Z" fill="#F57329"/>
<path d="M10.6679 108.799C11.846 108.799 12.8012 107.844 12.8012 106.666V17.0678H27.7342C28.9123 17.0678 29.8675 16.1126 29.8675 14.9346V8.53471H44.8004C45.9785 8.53471 46.9337 7.57951 46.9337 6.40143V4.26815H55.4668V6.40143C55.4668 7.57951 56.422 8.53471 57.6001 8.53471H72.5331V12.8013H36.2673C35.0892 12.8013 34.134 13.7565 34.134 14.9346C34.134 16.1126 35.0892 17.0678 36.2673 17.0678H89.5993V25.601C89.5993 26.779 90.5545 27.7342 91.7326 27.7342C92.9107 27.7342 93.8659 26.779 93.8659 25.601V14.9346C93.8659 13.7565 92.9107 12.8013 91.7326 12.8013H76.7996V6.40143C76.7996 5.22335 75.8444 4.26815 74.6664 4.26815H59.7334V2.13487C59.7334 0.956787 58.7782 0.00158691 57.6001 0.00158691H44.8004C43.6224 0.00158691 42.6672 0.956787 42.6672 2.13487V4.26815H27.7406C26.5625 4.26815 25.6073 5.22335 25.6073 6.40143V12.8013H10.6679C9.48987 12.8013 8.53467 13.7565 8.53467 14.9346V106.666C8.53467 107.844 9.48987 108.799 10.6679 108.799Z" fill="#F57329"/>
<path d="M125.865 46.9337H110.933V44.8005C110.933 43.6224 109.977 42.6672 108.799 42.6672H100.266C99.088 42.6672 98.1328 43.6224 98.1328 44.8005V49.067C98.1328 50.2451 99.088 51.2003 100.266 51.2003C101.444 51.2003 102.399 50.2451 102.399 49.067V46.9337H106.666V49.067C106.666 50.2451 107.621 51.2003 108.799 51.2003H123.732V80.1811L91.1089 47.5578C90.2747 46.7236 88.9247 46.7236 88.0905 47.5578C87.2563 48.392 87.2563 49.742 88.0905 50.5762L124.356 86.842C124.764 87.2495 125.311 87.4661 125.865 87.4661C126.139 87.4661 126.419 87.4151 126.681 87.3069C127.477 86.9757 127.999 86.1988 127.999 85.3328V49.067C127.999 47.8889 127.05 46.9337 125.865 46.9337Z" fill="#F57329"/>
<path d="M91.7324 119.465H70.3996C69.2216 119.465 68.2664 120.421 68.2664 121.599V123.732H46.9336V93.8659C46.9336 92.6879 45.9784 91.7327 44.8003 91.7327C43.6222 91.7327 42.667 92.6879 42.667 93.8659V125.865C42.667 127.043 43.6222 127.998 44.8003 127.998H70.3996C71.5777 127.998 72.5329 127.043 72.5329 125.865V123.732H89.5992V125.865C89.5992 127.043 90.5544 127.998 91.7324 127.998C92.9105 127.998 93.8657 127.043 93.8657 125.865V121.599C93.8657 120.421 92.9169 119.465 91.7324 119.465Z" fill="#F57329"/>
<path d="M127.374 0.625656C126.54 -0.208552 125.19 -0.208552 124.356 0.625656L0.625656 124.356C-0.208552 125.19 -0.208552 126.54 0.625656 127.374C1.03958 127.788 1.58722 127.998 2.13487 127.998C2.68252 127.998 3.23017 127.788 3.64409 127.374L127.374 3.64409C128.209 2.80988 128.209 1.45986 127.374 0.625656Z" fill="#F57329"/>
<path d="M87.4667 115.199C88.6447 115.199 89.5999 114.244 89.5999 113.065V87.4661C89.5999 86.288 88.6447 85.3328 87.4667 85.3328H74.667C73.4889 85.3328 72.5337 86.288 72.5337 87.4661V113.065C72.5337 114.244 73.4889 115.199 74.667 115.199C75.845 115.199 76.8003 114.244 76.8003 113.065V89.5994H85.3334V98.1325H83.2001C82.022 98.1325 81.0668 99.0877 81.0668 100.266C81.0668 101.444 82.022 102.399 83.2001 102.399H85.3334V113.065C85.3334 114.244 86.2886 115.199 87.4667 115.199Z" fill="#F57329"/>
<path d="M53.334 85.3328C52.1559 85.3328 51.2007 86.288 51.2007 87.4661V104.532C51.2007 105.71 52.1559 106.666 53.334 106.666H66.1336C67.3117 106.666 68.2669 105.71 68.2669 104.532V87.4661C68.2669 86.288 67.3117 85.3328 66.1336 85.3328H53.334ZM64.0004 102.399H55.4672V89.5994H64.0004V102.399Z" fill="#F57329"/>
</svg>
