<svg width="129" height="99" viewBox="0 0 129 99" fill="none" xmlns="http://www.w3.org/2000/svg">
<path d="M93.9287 76.8509C90.3917 76.8509 87.5244 79.7182 87.5244 83.2551C87.5244 86.7921 90.3917 89.6594 93.9287 89.6594C97.4656 89.6594 100.333 86.7921 100.333 83.2551C100.333 79.7182 97.4656 76.8509 93.9287 76.8509ZM93.9287 85.3899C92.7497 85.3899 91.7939 84.4341 91.7939 83.2551C91.7939 82.0761 92.7497 81.1204 93.9287 81.1204C95.1076 81.1204 96.0634 82.0761 96.0634 83.2551C96.0634 84.4341 95.1076 85.3899 93.9287 85.3899Z" fill="white"/>
<path d="M23.4824 76.8509C19.9454 76.8509 17.0781 79.7182 17.0781 83.2551C17.0781 86.7921 19.9454 89.6594 23.4824 89.6594C27.0193 89.6594 29.8866 86.7921 29.8866 83.2551C29.8866 79.7182 27.0193 76.8509 23.4824 76.8509ZM23.4824 85.3899C22.3034 85.3899 21.3476 84.4341 21.3476 83.2551C21.3476 82.0761 22.3034 81.1204 23.4824 81.1204C24.6614 81.1204 25.6171 82.0761 25.6171 83.2551C25.6171 84.4341 24.6614 85.3899 23.4824 85.3899Z" fill="white"/>
<path d="M114.07 18.9075C113.086 16.5043 110.743 14.9369 108.146 14.9432H83.2552V6.40424C83.2552 2.86728 80.3879 0 76.8509 0H6.40424C2.86728 0 0 2.86728 0 6.40424V66.1772C0.00647341 68.0653 0.851097 69.8531 2.30553 71.0572C-0.00763547 73.5387 -0.628674 77.1558 0.724309 80.2668C2.07729 83.3777 5.14658 85.3899 8.53899 85.3899H8.70977C9.76497 92.7373 16.0595 98.1924 23.4822 98.1924C30.905 98.1924 37.1995 92.7373 38.2547 85.3899H79.1564C80.2116 92.7373 86.5062 98.1924 93.9289 98.1924C101.352 98.1924 107.646 92.7373 108.701 85.3899H121.681C125.218 85.3899 128.085 82.5226 128.085 78.9857V55.9026C128.086 53.9502 127.704 52.0164 126.96 50.2114L114.07 18.9075ZM110.121 20.5341L123.011 51.8402C123.203 52.3374 123.358 52.8484 123.474 53.3687H98.1984C97.0194 53.3687 96.0637 52.4129 96.0637 51.234V19.2127H108.146C109.011 19.2124 109.791 19.7342 110.121 20.5341ZM33.9211 72.5814H83.49C81.1453 74.8734 79.6221 77.8748 79.1564 81.1204H38.2547C37.789 77.8748 36.2658 74.8734 33.9211 72.5814ZM4.2695 6.40424C4.2695 5.22526 5.22525 4.2695 6.40424 4.2695H76.8509C78.0299 4.2695 78.9857 5.22526 78.9857 6.40424V68.3119H6.40424C5.22525 68.3119 4.2695 67.3562 4.2695 66.1772V6.40424ZM5.52259 79.8673C4.30371 78.6463 3.93944 76.8118 4.59938 75.2178C5.25932 73.6237 6.81375 72.5835 8.53899 72.5814H13.0433C10.6986 74.8734 9.17544 77.8748 8.70977 81.1204H8.53899C7.40638 81.1231 6.31993 80.6717 5.52259 79.8673ZM23.4822 93.9289C17.5873 93.9289 12.8085 89.1501 12.8085 83.2552C12.8085 77.3602 17.5873 72.5814 23.4822 72.5814C29.3772 72.5814 34.156 77.3602 34.156 83.2552C34.1489 89.1472 29.3742 93.9219 23.4822 93.9289ZM93.9289 93.9289C88.034 93.9289 83.2552 89.1501 83.2552 83.2552C83.2552 77.3602 88.034 72.5814 93.9289 72.5814C99.8238 72.5814 104.603 77.3602 104.603 83.2552C104.596 89.1472 99.8209 93.9219 93.9289 93.9289ZM121.681 81.1204H108.701C107.641 73.7749 101.351 68.3206 93.9289 68.3119H83.2552V19.2127H91.7942V51.234C91.7942 54.7709 94.6614 57.6382 98.1984 57.6382H123.815V61.9077H121.681C120.502 61.9077 119.546 62.8634 119.546 64.0424C119.546 65.2214 120.502 66.1772 121.681 66.1772H123.815V70.4467H121.681C120.502 70.4467 119.546 71.4024 119.546 72.5814C119.546 73.7604 120.502 74.7162 121.681 74.7162H123.815V78.9857C123.815 80.1647 122.86 81.1204 121.681 81.1204Z" fill="white"/>
<path d="M10.6738 12.8084H17.0781C18.257 12.8084 19.2128 11.8527 19.2128 10.6737C19.2128 9.4947 18.257 8.53894 17.0781 8.53894H10.6738C9.49482 8.53894 8.53906 9.4947 8.53906 10.6737C8.53906 11.8527 9.49482 12.8084 10.6738 12.8084Z" fill="white"/>
<path d="M25.6172 12.8084H72.5816C73.7606 12.8084 74.7164 11.8527 74.7164 10.6737C74.7164 9.4947 73.7606 8.53894 72.5816 8.53894H25.6172C24.4382 8.53894 23.4824 9.4947 23.4824 10.6737C23.4824 11.8527 24.4382 12.8084 25.6172 12.8084Z" fill="white"/>
</svg>
