<svg width="96" height="127" viewBox="0 0 96 127" fill="none" xmlns="http://www.w3.org/2000/svg">
<path d="M61.9243 42.41H41.7217C40.6943 42.41 39.8613 41.5773 39.8613 40.5497C39.8613 39.522 40.6943 38.6893 41.7217 38.6893H61.9243C62.9517 38.6893 63.7847 39.522 63.7847 40.5497C63.7847 41.5773 62.952 42.41 61.9243 42.41Z" fill="#F57329"/>
<path d="M82.1263 32.8607H41.7207C40.6933 32.8607 39.8604 32.028 39.8604 31.0004C39.8604 29.9727 40.6933 29.14 41.7207 29.14H82.1263C83.1537 29.14 83.9866 29.9727 83.9866 31.0004C83.9866 32.028 83.1537 32.8607 82.1263 32.8607Z" fill="#F57329"/>
<path d="M61.9239 73.5863H41.7212C40.6938 73.5863 39.8608 72.7536 39.8608 71.726C39.8608 70.6983 40.6938 69.8656 41.7212 69.8656H61.9239C62.9513 69.8656 63.7842 70.6983 63.7842 71.726C63.7842 72.7536 62.9515 73.5863 61.9239 73.5863Z" fill="#F57329"/>
<path d="M82.1258 64.0365H41.7202C40.6928 64.0365 39.8599 63.2038 39.8599 62.1761C39.8599 61.1485 40.6928 60.3158 41.7202 60.3158H82.1258C83.1532 60.3158 83.9861 61.1485 83.9861 62.1761C83.9861 63.2038 83.1532 64.0365 82.1258 64.0365Z" fill="#F57329"/>
<path d="M61.9239 104.762H41.7212C40.6938 104.762 39.8608 103.93 39.8608 102.902C39.8608 101.874 40.6938 101.042 41.7212 101.042H61.9239C62.9513 101.042 63.7842 101.874 63.7842 102.902C63.7842 103.93 62.9515 104.762 61.9239 104.762Z" fill="#F57329"/>
<path d="M82.1258 95.2129H41.7202C40.6928 95.2129 39.8599 94.3802 39.8599 93.3525C39.8599 92.3249 40.6928 91.4922 41.7202 91.4922H82.1258C83.1532 91.4922 83.9861 92.3249 83.9861 93.3525C83.9861 94.3802 83.1532 95.2129 82.1258 95.2129Z" fill="#F57329"/>
<path d="M63.7219 17.5248H31.5493C28.4913 17.5248 26.0034 15.0371 26.0034 11.9792V5.54583C26.0037 2.48791 28.4913 0 31.5493 0H63.7217C66.7796 0 69.2675 2.48791 69.2675 5.54583V11.9792C69.2675 15.0371 66.7798 17.5248 63.7219 17.5248ZM31.5493 3.7207C30.5429 3.7207 29.7241 4.5395 29.7241 5.54583V11.9792C29.7241 12.9855 30.5429 13.8041 31.5493 13.8041H63.7217C64.728 13.8041 65.5468 12.9853 65.5468 11.9792V5.54583C65.5468 4.53926 64.728 3.7207 63.7217 3.7207H31.5493Z" fill="#F57329"/>
<path d="M24.5475 44.9033H16.2793C13.5253 44.9033 11.2847 42.6627 11.2847 39.9087V31.6408C11.2847 28.8867 13.5253 26.6461 16.2793 26.6461H24.5475C27.3015 26.6461 29.5422 28.8867 29.5422 31.6408V39.9089C29.5422 42.6627 27.3015 44.9033 24.5475 44.9033ZM16.2793 30.3668C15.5769 30.3668 15.0054 30.9383 15.0054 31.6408V39.9089C15.0054 40.6114 15.5769 41.1829 16.2793 41.1829H24.5475C25.25 41.1829 25.8214 40.6114 25.8214 39.9089V31.6408C25.8214 30.9383 25.25 30.3668 24.5475 30.3668H16.2793Z" fill="#F57329"/>
<path d="M24.547 76.08H16.2789C13.5248 76.08 11.2842 73.8394 11.2842 71.0853V62.8172C11.2842 60.0631 13.5248 57.8225 16.2789 57.8225H24.547C27.3011 57.8225 29.5417 60.0631 29.5417 62.8172V71.0853C29.5417 73.8394 27.3011 76.08 24.547 76.08ZM16.2789 61.5432C15.5764 61.5432 15.0049 62.1147 15.0049 62.8172V71.0853C15.0049 71.7878 15.5764 72.3593 16.2789 72.3593H24.547C25.2495 72.3593 25.821 71.7878 25.821 71.0853V62.8172C25.821 62.1147 25.2495 61.5432 24.547 61.5432H16.2789Z" fill="#F57329"/>
<path d="M24.547 107.256H16.2789C13.5248 107.256 11.2842 105.016 11.2842 102.261V93.9935C11.2842 91.2391 13.5248 88.9985 16.2789 88.9985H24.547C27.3011 88.9985 29.5417 91.2391 29.5417 93.9935V102.261C29.5417 105.016 27.3011 107.256 24.547 107.256ZM16.2789 92.7195C15.5764 92.7195 15.0049 93.2912 15.0049 93.9937V102.262C15.0049 102.964 15.5764 103.536 16.2789 103.536H24.547C25.2495 103.536 25.821 102.964 25.821 102.262V93.9937C25.821 93.2912 25.2495 92.7195 24.547 92.7195H16.2789Z" fill="#F57329"/>
<path d="M87.2115 127H8.05929C3.61528 127 0 123.385 0 118.941V14.9613C0 10.5175 3.61553 6.90222 8.05929 6.90222H19.2078C20.2352 6.90222 21.0681 7.73491 21.0681 8.76257C21.0681 9.79023 20.2352 10.6229 19.2078 10.6229H8.05929C5.66688 10.6229 3.7207 12.5691 3.7207 14.9613V118.94C3.7207 121.333 5.66712 123.279 8.05929 123.279H87.2115C89.6039 123.279 91.5501 121.333 91.5501 118.94V14.9613C91.5501 12.5689 89.6037 10.6229 87.2115 10.6229H76.063C75.0356 10.6229 74.2027 9.79023 74.2027 8.76257C74.2027 7.73491 75.0356 6.90222 76.063 6.90222H87.2115C91.6555 6.90222 95.2708 10.5175 95.2708 14.9613V118.94C95.2708 123.385 91.6553 127 87.2115 127Z" fill="#F57329"/>
</svg>
