<svg width="100" height="127" viewBox="0 0 100 127" fill="none" xmlns="http://www.w3.org/2000/svg">
<path d="M98.4519 25.714L50.7197 0.279845C50.0116 -0.0980873 49.1629 -0.0927833 48.4601 0.293105L2.04868 25.7273C1.28751 26.145 0.81543 26.9433 0.81543 27.8119V61.0354C0.843277 88.346 17.0241 113.053 42.0472 123.995L48.4893 126.802C49.0913 127.065 49.7769 127.066 50.3802 126.805L57.6392 123.67C83.1264 112.966 99.7077 88.0198 99.7104 60.3764V27.8119C99.7104 26.934 99.2263 26.1264 98.4519 25.714ZM94.9577 60.3764C94.9524 86.1142 79.5102 109.338 55.7787 119.298L55.7628 119.306L49.4414 122.035L43.9488 119.639C20.6562 109.454 5.59329 86.4577 5.56677 61.0354V29.2188L49.6178 5.07627L94.9577 29.2361V60.3764Z" fill="#F57329"/>
<path d="M32.0864 59.4946C31.2337 58.4961 29.7339 58.3781 28.7354 59.2307C27.7368 60.0821 27.6188 61.5832 28.4715 62.5804L41.0241 77.28C41.8622 78.2613 43.3302 78.3952 44.3301 77.581L73.5648 53.7965C74.5832 52.969 74.737 51.4719 73.9082 50.4534C73.0807 49.4363 71.5836 49.2812 70.5652 50.11L43.1313 72.4279L32.0864 59.4946Z" fill="#F57329"/>
</svg>
