<svg width="128" height="128" viewBox="0 0 128 128" fill="none" xmlns="http://www.w3.org/2000/svg">
<path d="M127.149 103.957L121.734 84.1001C121.707 84.0093 121.678 83.9184 121.639 83.8297L120.376 80.8795C117.019 73.0488 110.503 66.8883 102.495 63.9752L92.48 60.3334C92.5213 60.1105 92.5832 59.8916 92.6183 59.6666C96.3159 58.8511 99.0968 55.5541 99.0968 51.6129V47.4839C99.0968 43.648 96.4563 40.4418 92.9032 39.519V37.1613H94.9677C96.1094 37.1613 97.0323 36.2364 97.0323 35.0968V22.7097C97.0323 21.5701 96.1094 20.6452 94.9677 20.6452H92.7979C91.7512 9.088 82.0191 0 70.1935 0H57.8064C45.9809 0 36.2488 9.088 35.2021 20.6452H33.0323C31.8906 20.6452 30.9677 21.5701 30.9677 22.7097V35.0968C30.9677 36.2364 31.8906 37.1613 33.0323 37.1613H35.0968V39.519C31.5437 40.4418 28.9032 43.648 28.9032 47.4839V51.6129C28.9032 55.5541 31.6841 58.8511 35.3837 59.6666C35.4188 59.8916 35.4787 60.1105 35.5221 60.3334L25.5071 63.9752C17.4988 66.8883 10.9832 73.0488 7.62632 80.8795L6.36284 83.8297C6.32361 83.9164 6.29471 84.0072 6.26787 84.1001L0.852645 103.957C0.286968 106.029 0 108.168 0 110.313C0 115.508 1.71561 120.654 4.83303 124.806L6.60645 127.174L9.90968 124.697L8.13419 122.329C6.62916 120.32 5.52877 118.026 4.864 115.613H20.6452V111.484H4.17652C4.15381 111.094 4.12903 110.703 4.12903 110.313C4.12903 108.536 4.36645 106.762 4.8351 105.045L8.70813 90.8387H113.548V86.7097H9.83535L10.2132 85.3265L11.4209 82.5084C12.032 81.0818 12.7897 79.7378 13.6299 78.4516H41.2903V74.3226H16.9497C19.7347 71.4818 23.1226 69.2377 26.9172 67.8586L36.639 64.3241C37.1097 65.5566 37.6506 66.7623 38.3339 67.9019L38.8088 68.6968C40.8072 72.0248 43.6439 74.8036 47.0152 76.7298L51.5468 79.3187C55.2836 81.4513 59.5345 82.5806 63.8369 82.5806H64.1631C68.4655 82.5806 72.7164 81.4513 76.4532 79.3166L77.9664 78.4516H114.372C115.212 79.7378 115.97 81.0818 116.581 82.5084L117.789 85.3265L121.544 99.0968H68.129V103.226H99.0968V108.445C99.0968 109.459 99.039 110.472 98.9543 111.484H33.0323V115.613H98.3763C97.7321 118.871 96.6689 122.046 95.1845 125.013L98.8779 126.86C100.647 123.32 101.896 119.517 102.59 115.615H123.136C122.471 118.028 121.373 120.322 119.866 122.333L118.09 124.697L121.394 127.172L123.167 124.806C126.284 120.654 128 115.508 128 110.313C128 108.168 127.713 106.029 127.149 103.957ZM39.2258 43.3548H88.7742V46.3154L81.9923 50.3845C79.1948 52.0671 75.4994 51.9783 72.7763 50.1657L71.9649 49.6248C69.8653 48.223 67.4188 47.4839 64.896 47.4839H63.1061C60.5812 47.4839 58.1368 48.223 56.0351 49.6248L55.2237 50.1657C52.5006 51.9783 48.8072 52.065 46.0077 50.3845L39.2258 46.3154V43.3548ZM94.9677 47.4839V51.6129C94.9677 53.1344 94.1316 54.4516 92.9032 55.168V43.9308C94.1316 44.6452 94.9677 45.9623 94.9677 47.4839ZM57.8064 4.12903H70.1935C79.7419 4.12903 87.6222 11.3693 88.6524 20.6452H39.3476C40.3778 11.3693 48.2581 4.12903 57.8064 4.12903ZM35.0968 24.7742H92.9032V33.0323H35.0968V24.7742ZM88.7742 37.1613V39.2258H39.2258V37.1613H88.7742ZM33.0323 51.6129V47.4839C33.0323 45.9623 33.8684 44.6452 35.0968 43.9288V55.1659C33.8684 54.4516 33.0323 53.1344 33.0323 51.6129ZM74.4052 75.7326C71.2898 77.5102 67.7492 78.4516 64.1631 78.4516H63.8369C60.2508 78.4516 56.7102 77.5102 53.5948 75.7326L49.0632 73.1437C46.305 71.5665 43.9845 69.2955 42.3494 66.5724L41.8746 65.7775C40.1404 62.8893 39.2258 59.584 39.2258 56.2168V51.1319L43.8834 53.9272C48.031 56.4108 53.4895 56.2849 57.5154 53.601L58.3267 53.0601C59.745 52.1146 61.3987 51.6129 63.104 51.6129H64.8939C66.5992 51.6129 68.2529 52.1146 69.6733 53.0601L70.4846 53.601C72.5863 55.0028 75.0328 55.7419 77.5556 55.7419C79.8658 55.7419 82.1347 55.1143 84.1166 53.9252L88.7742 51.1298V56.2168C88.7742 59.584 87.8596 62.8893 86.1275 65.7775L85.6526 66.5703C84.0175 69.2934 81.697 71.5665 78.9388 73.1437L74.4052 75.7326ZM84.3437 74.3226C86.2431 72.7164 87.9071 70.8356 89.1933 68.6926L89.6681 67.8999C90.3515 66.7603 90.8903 65.5525 91.3631 64.3221L101.083 67.8565C104.877 69.2377 108.263 71.4818 111.05 74.3226H84.3437ZM103.098 111.484C103.174 110.472 103.226 109.459 103.226 108.445V103.226H122.669L123.165 105.043C123.634 106.762 123.871 108.536 123.871 110.313C123.871 110.703 123.846 111.094 123.823 111.484H103.098Z" fill="#F57329"/>
<path d="M28.9039 103.226H64.0007V99.0967H10.3232V103.226H24.7749V108.445C24.7749 114.806 26.2799 121.173 29.1207 126.858L32.8141 125.01C30.2561 119.897 28.9039 114.168 28.9039 108.445V103.226Z" fill="#F57329"/>
</svg>
