<svg width="128" height="121" viewBox="0 0 128 121" fill="none" xmlns="http://www.w3.org/2000/svg">
<path d="M41.0089 102.571C49.1962 102.571 55.8567 95.9104 55.8567 87.7233C55.8567 79.5363 49.1959 72.8756 41.0089 72.8756C32.8216 72.8756 26.1611 79.5363 26.1611 87.7233C26.1611 95.9104 32.8219 102.571 41.0089 102.571ZM41.0089 76.6256C47.1282 76.6256 52.1067 81.6041 52.1067 87.7233C52.1067 93.8426 47.1282 98.8211 41.0089 98.8211C34.8894 98.8211 29.9111 93.8426 29.9111 87.7233C29.9111 81.6041 34.8896 76.6256 41.0089 76.6256Z" fill="#F57329"/>
<path d="M119.812 82.0924V57.9836C119.812 51.7058 114.705 46.5986 108.427 46.5986H103.328V36.1268C103.328 33.258 101.017 30.9223 98.1592 30.875V26.997C98.1592 25.2938 98.8905 23.6688 100.165 22.5393L102.696 20.2973C103.471 19.6108 103.543 18.4255 102.857 17.6505C102.17 16.8753 100.985 16.8038 100.21 17.4903L97.6787 19.7323C95.6007 21.5733 94.4092 24.221 94.4092 26.997V30.875C91.5517 30.9223 89.2405 33.258 89.2405 36.1268V46.5986H86.7115C85.6757 46.5986 84.8365 47.4381 84.8365 48.4736C84.8365 49.5091 85.6757 50.3486 86.7115 50.3486H91.1155H101.453H108.427C112.637 50.3486 116.062 53.7736 116.062 57.9836V60.1491H104.272C103.236 60.1491 102.397 60.9886 102.397 62.0241C102.397 63.0596 103.236 63.8991 104.272 63.8991H116.062V69.4388H104.272C103.236 69.4388 102.397 70.2783 102.397 71.3138C102.397 72.3493 103.236 73.1888 104.272 73.1888H116.062V79.7041C113.172 78.2591 109.915 77.4411 106.47 77.4411C103.093 77.4411 99.897 78.2246 97.0497 79.6161C97.0445 79.6161 97.0397 79.6153 97.0345 79.6153H81.3297C80.5685 75.8156 79.269 72.1598 77.4934 68.7508L73.4797 50.3486H79.2114C80.2472 50.3486 81.0865 49.5091 81.0865 48.4736C81.0865 47.4381 80.2472 46.5986 79.2114 46.5986H72.6617L64.5454 9.38526V6.69351C64.5454 3.0025 61.5427 0 57.8519 0H18.7921C16.5519 0 14.7294 1.8225 14.7294 4.06275V56.0921C14.1509 56.5733 13.5824 57.0698 13.0276 57.5851C5.44136 64.6318 0.818858 74.1776 0.0118569 84.4641C-0.0731432 85.5481 0.301857 86.6279 1.04061 87.4269C1.77986 88.2264 2.82811 88.6849 3.91636 88.6849H8.08637C8.59687 106.403 23.1684 120.661 41.0084 120.661C54.3902 120.661 65.9324 112.638 71.0817 101.151H85.05C86.146 112.003 95.3342 120.501 106.47 120.501C118.341 120.501 128 110.843 128 98.9711C128 92.1359 124.795 86.0391 119.812 82.0924ZM92.9905 46.5986V36.1268C92.9905 35.2963 93.666 34.6208 94.4965 34.6208H98.072C98.9025 34.6208 99.578 35.2963 99.578 36.1268V46.5986H92.9905ZM18.4796 4.06275C18.4796 3.89025 18.6199 3.75 18.7924 3.75H57.8519C59.4752 3.75 60.7954 5.07051 60.7954 6.69351V7.76876H35.5356C34.5001 7.76876 33.6606 8.60826 33.6606 9.64376C33.6606 10.6793 34.5001 11.5188 35.5356 11.5188H61.1727L68.5332 45.2673L61.8782 41.2865L62.5484 40.2473C63.1097 39.377 62.8589 38.2165 61.9887 37.6553C61.1189 37.0943 59.9579 37.3445 59.3967 38.215L56.0154 43.4586C55.4542 44.3288 55.7049 45.4893 56.5752 46.0506C56.8894 46.2533 57.2414 46.3501 57.5897 46.3501C58.2054 46.3501 58.8087 46.0471 59.1672 45.4908L59.8447 44.4401L69.6292 50.2926L71.8649 60.5438C70.6164 59.1261 69.2674 57.7876 67.8217 56.5431C61.4009 51.0156 53.4394 47.6311 45.0609 46.8013V29.6008C45.0609 25.023 41.3367 21.299 36.7591 21.299H33.8811C32.0791 21.299 30.6131 22.765 30.6131 24.567V34.0343H18.4796V11.5193H28.0359C29.0714 11.5193 29.9109 10.6798 29.9109 9.64426C29.9109 8.60876 29.0714 7.76926 28.0359 7.76926H18.4796V4.06275ZM34.3634 25.0488H36.7594C39.2694 25.0488 41.3112 27.0908 41.3112 29.6005V46.6018C41.2102 46.6011 41.1094 46.5983 41.0084 46.5983C38.7649 46.5983 36.5439 46.7803 34.3631 47.1353V25.0488H34.3634ZM18.4796 37.7838H30.6134V47.9268C26.3089 49.0478 22.2141 50.8633 18.4796 53.3138V37.7838ZM19.0976 68.4641L20.8819 70.2483C21.2479 70.6146 21.7279 70.7976 22.2076 70.7976C22.6874 70.7976 23.1674 70.6146 23.5334 70.2483C24.2656 69.5161 24.2656 68.3291 23.5334 67.5968L21.7491 65.8126C26.4529 61.6731 32.4946 59.0213 39.1334 58.5983V61.1348C39.1334 62.1703 39.9729 63.0098 41.0084 63.0098C42.0439 63.0098 42.8834 62.1703 42.8834 61.1348V58.5983C49.5222 59.0213 55.5642 61.6731 60.2679 65.8126L58.4837 67.5968C57.7514 68.3291 57.7514 69.5161 58.4837 70.2483C58.8497 70.6146 59.3297 70.7976 59.8094 70.7976C60.2892 70.7976 60.7692 70.6146 61.1352 70.2483L62.9194 68.4641C67.0589 73.1678 69.7107 79.2098 70.1337 85.8484H67.5969C66.5612 85.8484 65.7219 86.6879 65.7219 87.7234C65.7219 88.7589 66.5612 89.5984 67.5969 89.5984H70.1337C69.7107 96.2371 67.0589 102.279 62.9194 106.983L61.1352 105.198C60.4029 104.466 59.2157 104.466 58.4837 105.198C57.7514 105.931 57.7514 107.118 58.4837 107.85L60.2679 109.634C55.5642 113.774 49.5222 116.425 42.8834 116.849V114.312C42.8834 113.277 42.0439 112.437 41.0084 112.437C39.9729 112.437 39.1334 113.277 39.1334 114.312V116.849C32.4946 116.426 26.4529 113.774 21.7491 109.634L23.5334 107.85C24.2656 107.118 24.2656 105.931 23.5334 105.198C22.8011 104.466 21.6139 104.466 20.8819 105.198L19.0976 106.983C14.9581 102.279 12.3064 96.2369 11.8834 89.5984H14.4199C15.4554 89.5984 16.2949 88.7589 16.2949 87.7234C16.2949 86.6879 15.4554 85.8484 14.4199 85.8484H11.8834C12.3064 79.2098 14.9579 73.1678 19.0976 68.4641ZM73.9457 87.7234C73.9457 69.5618 59.1702 54.7863 41.0087 54.7863C23.7864 54.7863 9.61137 68.0736 8.19087 84.9349H3.91661C3.89861 84.9349 3.84411 84.9349 3.79411 84.8809C3.74511 84.8279 3.74936 84.7746 3.75061 84.7574C4.48386 75.4113 8.68512 66.7373 15.5801 60.3326C22.5116 53.8943 31.5421 50.3486 41.0087 50.3486C49.9529 50.3486 58.6067 53.5578 65.3754 59.3851C72.0739 65.1516 76.5257 73.1071 77.9107 81.7859C78.0559 82.6958 78.841 83.3654 79.7622 83.3654H91.6612C87.8825 86.9529 85.403 91.8916 85.0037 97.4011H72.4942C73.437 94.3396 73.9457 91.0901 73.9457 87.7234ZM106.47 116.751C96.666 116.751 88.69 108.775 88.69 98.9711C88.69 89.1671 96.666 81.1911 106.47 81.1911C116.274 81.1911 124.25 89.1671 124.25 98.9711C124.25 108.775 116.274 116.751 106.47 116.751Z" fill="#F57329"/>
<path d="M106.47 89.1731C101.067 89.1731 96.6719 93.5684 96.6719 98.9711C96.6719 104.374 101.067 108.769 106.47 108.769C111.872 108.769 116.268 104.374 116.268 98.9711C116.268 93.5686 111.873 89.1731 106.47 89.1731ZM106.47 105.019C103.135 105.019 100.422 102.306 100.422 98.9711C100.422 95.6364 103.135 92.9231 106.47 92.9231C109.805 92.9231 112.518 95.6364 112.518 98.9711C112.518 102.306 109.805 105.019 106.47 105.019Z" fill="#F57329"/>
</svg>
