<svg width="50" height="51" viewBox="0 0 50 51" fill="none" xmlns="http://www.w3.org/2000/svg">
<path d="M45.0031 0.886719H4.99687C3.67339 0.892475 2.40576 1.42078 1.46991 2.35663C0.534059 3.29248 0.00575613 4.56011 0 5.88359V45.8898C0.00575613 47.2133 0.534059 48.481 1.46991 49.4168C2.40576 50.3527 3.67339 50.881 4.99687 50.8867H45.0031C46.3266 50.881 47.5942 50.3527 48.5301 49.4168C49.4659 48.481 49.9942 47.2133 50 45.8898V5.88359C49.9942 4.56011 49.4659 3.29248 48.5301 2.35663C47.5942 1.42078 46.3266 0.892475 45.0031 0.886719V0.886719ZM14.6812 31.0211C15.206 31.2607 15.7728 31.3945 16.3493 31.4149C16.9258 31.4353 17.5006 31.3419 18.041 31.1401C18.5814 30.9382 19.0767 30.6319 19.4986 30.2385C19.9205 29.8452 20.2608 29.3726 20.5 28.8477H23.9594C21.8031 37.6773 8.80625 36.1148 8.80625 27.0242C8.80625 17.9258 21.8031 16.3633 23.9594 25.2008H20.5C19.2297 22.4102 15.5609 21.7414 13.3953 23.9148C11.2219 26.0789 11.8891 29.7492 14.6812 31.0195V31.0211ZM38.3141 32.7789C37.6594 33.3454 36.9099 33.7918 36.1 34.0977C34.9467 34.5437 33.7027 34.7041 32.4741 34.5654C31.2454 34.4266 30.0685 33.9927 29.0437 33.3008V34.0977H25.8938V12.0758H29.0188V20.6367C30.1346 19.8822 31.4274 19.4305 32.7703 19.3258H33.3313C40.4438 19.3102 43.7156 28.1633 38.3125 32.7773L38.3141 32.7789ZM37.85 27.018C37.861 27.6004 37.7558 28.1792 37.5405 28.7204C37.3252 29.2617 37.0042 29.7547 36.5962 30.1704C36.1882 30.5862 35.7014 30.9165 35.1643 31.1419C34.6272 31.3674 34.0505 31.4835 33.468 31.4835C32.8854 31.4835 32.3088 31.3674 31.7716 31.1419C31.2345 30.9165 30.7477 30.5862 30.3397 30.1704C29.9317 29.7547 29.6107 29.2617 29.3954 28.7204C29.1802 28.1792 29.0749 27.6004 29.0859 27.018C29.2078 21.3055 37.7203 21.3055 37.85 27.018V27.018Z" fill="#FF6F00"/>
</svg>
