<svg width="88" height="70" viewBox="0 0 88 70" fill="none" xmlns="http://www.w3.org/2000/svg">
<path d="M28.6353 33.1141C32.0351 34.6075 34.687 36.8476 36.5909 39.8344C38.4948 42.8212 39.4467 46.3511 39.4467 50.424C39.4467 56.2619 37.6108 61.0136 33.939 64.6792C30.2672 68.2091 25.5755 69.9741 19.8638 69.9741C14.1521 69.9741 9.39234 68.1412 5.58455 64.4756C1.91274 60.81 0.0768433 56.1261 0.0768433 50.424C0.0768433 47.7087 0.416825 44.9935 1.09679 42.2782C1.77675 39.5629 3.27267 35.49 5.58455 30.0594L17.4159 0.734375H37.6108L28.6353 33.1141ZM76.7767 33.1141C80.1765 34.6075 82.8284 36.8476 84.7323 39.8344C86.6362 42.8212 87.5881 46.3511 87.5881 50.424C87.5881 56.2619 85.7522 61.0136 82.0804 64.6792C78.4086 68.2091 73.7169 69.9741 68.0052 69.9741C62.2935 69.9741 57.5337 68.1412 53.7259 64.4756C50.0541 60.81 48.2182 56.1261 48.2182 50.424C48.2182 47.7087 48.5582 44.9935 49.2382 42.2782C49.9181 39.5629 51.4141 35.49 53.7259 30.0594L65.5573 0.734375H85.7522L76.7767 33.1141Z" fill="#FF6F00"/>
</svg>
