<svg width="50" height="51" viewBox="0 0 50 51" fill="none" xmlns="http://www.w3.org/2000/svg">
<path d="M44.6429 0.886719H5.35714C3.93634 0.886719 2.57373 1.45113 1.56907 2.45579C0.564412 3.46045 0 4.82306 0 6.24386L0 45.5296C0 46.9504 0.564412 48.313 1.56907 49.3176C2.57373 50.3223 3.93634 50.8867 5.35714 50.8867H20.6752V33.8878H13.644V25.8867H20.6752V19.7885C20.6752 12.8521 24.8047 9.02065 31.1295 9.02065C34.1585 9.02065 37.3259 9.56083 37.3259 9.56083V16.3689H33.8359C30.3973 16.3689 29.3248 18.5028 29.3248 20.6914V25.8867H37.0011L35.7734 33.8878H29.3248V50.8867H44.6429C46.0637 50.8867 47.4263 50.3223 48.4309 49.3176C49.4356 48.313 50 46.9504 50 45.5296V6.24386C50 4.82306 49.4356 3.46045 48.4309 2.45579C47.4263 1.45113 46.0637 0.886719 44.6429 0.886719V0.886719Z" fill="#FF6F00"/>
</svg>
