<svg width="78" height="75" viewBox="0 0 78 75" fill="none" xmlns="http://www.w3.org/2000/svg">
<g opacity="0.2">
<path opacity="0.2" d="M25.0209 44.1144L19.8049 38.8984L22.2803 41.3738L25.0209 44.1144Z" fill="#818181"/>
<path opacity="0.2" d="M39.1661 45.6175L46.5038 38.1913L47.9184 39.6058L39.1661 30.8535L31.7399 38.1913L39.1661 45.6175Z" fill="#818181"/>
<path opacity="0.2" d="M42.2602 48.7113L39.0776 51.894L17.4178 73.5537C19.186 75.3219 21.9266 75.3219 23.6947 73.5537L38.9892 58.2593L42.1718 55.0766L45.3545 51.894L52.7807 44.4678L50.8357 42.5228L49.598 41.2852L42.2602 48.7113Z" fill="#818181"/>
<path opacity="0.2" d="M75.8551 15.1182L55.8751 35.0982L59.0578 38.2808L75.8551 21.4835C77.6233 19.7153 77.6233 16.8863 75.8551 15.1182Z" fill="#818181"/>
<path opacity="0.2" d="M42.2604 48.7118L49.6866 41.2857L48.0068 39.6059L46.5923 38.1914L39.1661 45.6176L35.9835 48.8003L32.8008 51.9829L17.5064 67.1889C15.7383 68.9571 15.7383 71.7861 17.5064 73.4658L39.1661 51.8061L42.2604 48.7118Z" fill="#818181"/>
<path opacity="0.2" d="M75.8551 15.1171C74.087 13.349 71.3464 13.349 69.5782 15.1171L52.7809 31.9145L55.9635 35.0971L75.8551 15.1171Z" fill="#818181"/>
<path opacity="0.2" d="M22.2804 41.3745L3.80328 59.8516C2.03514 58.0835 2.03514 55.3429 3.80328 53.5747L19.0977 38.2803L19.805 38.9875L22.2804 41.3745Z" fill="#818181"/>
<path opacity="0.2" d="M35.9834 27.6714L39.166 24.4888L42.3487 21.3061L62.3287 1.32611C61.4446 0.442035 60.2953 0 59.146 0C57.9967 0 56.8474 0.442035 55.9634 1.32611L39.166 18.1235L35.9834 21.3061L32.8007 24.4888L25.3745 31.915L28.5572 35.0976L35.9834 27.6714Z" fill="#818181"/>
<path opacity="0.2" d="M22.2803 41.374L3.80322 59.8511C5.57136 61.6193 8.40039 61.6193 10.0801 59.8511L25.3746 44.5567L24.9325 44.1146L22.2803 41.374Z" fill="#818181"/>
<path opacity="0.2" d="M39.1662 24.4883L35.9836 27.6709L28.5574 35.0972L31.74 38.2798L39.1662 30.8536L42.3489 27.6709L45.5315 24.4883L62.3289 7.69097C64.097 5.92283 64.097 3.1822 62.3289 1.41406L42.3489 21.3941L39.1662 24.4883Z" fill="#818181"/>
<path opacity="0.2" d="M22.2804 35.0982L2.30035 15.1182C0.532208 16.8863 0.532208 19.7153 2.30035 21.3951L19.0977 38.1924L19.805 38.8997L25.021 44.1157L25.463 44.5577L32.8892 51.9839L36.0719 48.8013L22.2804 35.0982Z" fill="#818181"/>
<path opacity="0.2" d="M39.1663 58.1719L54.4607 73.4663C56.2288 75.2345 58.9694 75.2345 60.7376 73.4663L42.2605 54.9893L39.1663 58.1719Z" fill="#818181"/>
<path opacity="0.2" d="M35.9834 48.7129L39.166 45.5302L31.7399 38.104L28.5572 34.9213L25.3745 31.7387L8.5772 14.9413C6.80905 13.1732 4.06843 13.1732 2.30029 14.9413L22.2803 34.9213L35.9834 48.7129Z" fill="#818181"/>
<path opacity="0.2" d="M60.7376 73.4668C62.5057 71.6987 62.5057 68.8697 60.7376 67.1899L45.4432 51.8955L42.2605 55.0781L60.7376 73.4668Z" fill="#818181"/>
<path opacity="0.2" d="M52.7808 31.9154L45.3547 24.4893L42.172 27.6719L52.6924 38.1924L55.8751 41.375L74.3522 59.8521C75.2362 58.968 75.6783 57.8187 75.6783 56.6694C75.6783 55.5201 75.2362 54.3708 74.3522 53.4868L59.0578 38.1924L55.8751 35.0097L52.7808 31.9154Z" fill="#818181"/>
<path opacity="0.2" d="M39.166 18.2123L22.3687 1.41497C20.6006 -0.353168 17.8599 -0.353168 16.0918 1.41497L36.0718 21.395L39.166 18.2123Z" fill="#818181"/>
<path opacity="0.2" d="M52.7809 38.1923L42.2604 27.6719L39.0778 30.8545L47.9185 39.6952L49.5982 41.375L50.8359 42.6127L68.0753 59.8521C69.8434 61.6202 72.584 61.6202 74.3522 59.8521L55.8751 41.375L52.7809 38.1923Z" fill="#818181"/>
<path opacity="0.2" d="M16.0035 1.41406C14.2353 3.1822 14.2353 5.92283 16.0035 7.69097L32.8008 24.4883L35.9835 21.3057L16.0035 1.41406Z" fill="#818181"/>
</g>
</svg>
