<svg width="79" height="61" viewBox="0 0 79 61" fill="none" xmlns="http://www.w3.org/2000/svg">
<g opacity="0.4">
<path opacity="0.4" d="M39.5892 49.7196C55.1598 49.7196 67.7237 37.1557 67.7237 21.5851V2.90039C61.2807 6.44405 56.8779 13.3166 56.8779 21.263V21.6925C56.8779 30.8201 49.6832 38.3369 40.663 38.9812C30.569 39.6255 22.3004 31.4644 22.3004 21.3704C22.3004 13.424 17.8977 6.55143 11.4547 3.00777V21.7999C11.4547 37.1557 24.1259 49.7196 39.5892 49.7196Z" fill="#818181"/>
<path opacity="0.4" d="M78.462 0.214844H77.925C74.274 0.214844 70.7303 1.1813 67.7236 2.89943V21.6915C67.7236 37.2622 55.1597 49.826 39.5891 49.826C24.0185 49.826 11.4547 37.2622 11.4547 21.6915V2.89943C8.44792 1.1813 5.01165 0.214844 1.25323 0.214844H0.716309V20.9399C0.716309 43.2756 19.1863 61.4234 41.522 60.3496C62.1397 59.3831 78.5693 42.3092 78.5693 21.4768L78.462 0.214844C78.462 0.322227 78.462 0.214844 78.462 0.214844Z" fill="#818181"/>
</g>
</svg>
