<svg width="51" height="68" viewBox="0 0 51 68" fill="none" xmlns="http://www.w3.org/2000/svg">
<path d="M25.7809 33.0698V31.3174C25.7809 21.6791 14.5399 13.8809 0.576416 13.8809V50.5063C0.576416 60.1446 11.8174 67.9428 25.7809 67.9428C39.7444 67.9428 50.9856 60.1446 50.9856 50.5063C50.9856 40.9556 39.6566 33.0698 25.7809 33.0698Z" fill="#818181"/>
<path d="M25.8688 50.2997V52.0464C34.6509 52.0464 42.3791 55.1905 46.858 59.9066C49.4926 57.1992 50.9856 53.8805 50.9856 50.3871C50.9856 40.7802 39.7445 33.0073 25.781 33.0073V31.2606C25.781 21.6537 14.5399 13.8809 0.576416 13.8809V33.0073C14.6278 32.92 25.8688 40.7802 25.8688 50.2997Z" fill="#818181"/>
<path d="M50.9853 0C37.0264 0 25.6295 7.79237 25.6295 17.4234V31.3447V33.0958V50.5193C25.6295 56.9984 20.5054 62.6019 12.9958 65.5788C16.7065 67.0672 21.0354 67.9428 25.6295 67.9428C39.5884 67.9428 50.9853 60.1504 50.9853 50.5193V0Z" fill="#818181"/>
</svg>
