<svg width="124" height="65" viewBox="0 0 124 65" fill="none" xmlns="http://www.w3.org/2000/svg">
<g opacity="0.2">
<path opacity="0.2" d="M72.5228 38.2842C73.1764 37.6306 73.5499 36.6968 73.6433 35.7631C70.7486 36.1366 68.0407 37.5372 65.9865 39.5915L53.1939 52.384C41.9888 63.5892 23.8738 63.8693 12.5753 52.7575C1.27675 41.5524 1.18338 23.344 12.3885 12.0455C22.5665 1.86749 38.5339 0.933762 49.739 9.33762C51.7933 10.8316 54.1277 11.7654 56.5555 12.0455C56.5555 11.1117 56.182 10.178 55.435 9.52433C49.3655 3.45487 41.2418 0 32.5578 0C23.8738 0 15.7501 3.3615 9.68062 9.52433C3.61117 15.5938 0.15625 23.7175 0.15625 32.4015C0.15625 41.0855 3.51779 49.2092 9.68062 55.2787C22.2864 67.8844 42.8292 67.8844 55.435 55.2787L72.5228 38.2842Z" fill="#818181"/>
<path opacity="0.2" d="M12.3885 12.1391C1.18333 23.3442 1.18333 41.6459 12.5752 52.8511C23.8737 63.9628 41.9887 63.5893 53.1939 52.4775L65.9864 39.685C68.0407 37.6308 70.7486 36.2301 73.6432 35.8566V35.7632C73.6432 34.8295 73.2698 33.8957 72.5228 33.1487C71.0287 31.6547 68.6943 31.6547 67.2937 33.1487L50.2992 50.1431C40.5881 59.8543 24.7141 59.8543 15.003 50.1431C10.3342 45.4743 7.71966 39.1248 7.71966 32.4951C7.71966 25.8654 10.3342 19.6091 15.003 14.8469C19.6718 10.1781 26.0214 7.56361 32.6511 7.56361C39.2808 7.56361 45.537 10.1781 50.2992 14.8469C51.7932 16.341 54.1276 16.341 55.5283 14.8469C56.2753 14.0999 56.6488 13.1662 56.6488 12.1391C54.1276 11.9523 51.7932 10.9252 49.8323 9.43113C38.5338 1.02727 22.5665 1.96106 12.3885 12.1391Z" fill="#818181"/>
</g>
<g opacity="0.2">
<path opacity="0.2" d="M20.7921 22.1297C15.7497 27.9191 15.7497 36.7898 20.7921 42.5792C26.0211 48.6486 34.7985 49.5823 41.1481 45.4738C43.0156 44.2599 45.1632 43.6063 47.4043 43.4196C47.4043 42.4858 47.0308 41.4586 46.2838 40.805C44.7897 39.311 42.4553 39.311 41.0547 40.805C38.8137 43.046 35.8256 44.2599 32.6508 44.2599C29.476 44.2599 26.488 43.046 24.247 40.805C22.0059 38.564 20.7921 35.5759 20.7921 32.4011C20.7921 29.2263 22.0059 26.2383 24.247 23.9973C28.9158 19.3285 36.4792 19.3285 41.0547 23.9973C42.5487 25.4913 44.8831 25.4913 46.2838 23.9973C47.0308 23.2503 47.4043 22.3165 47.4043 21.3827C45.1632 21.196 43.0156 20.5423 41.1481 19.3285C34.7985 15.1265 26.1145 16.0603 20.7921 22.1297Z" fill="#818181"/>
<path opacity="0.2" d="M18.9244 18.7693C15.2827 22.411 13.2285 27.2665 13.2285 32.4022C13.2285 37.5379 15.2827 42.3935 18.9244 46.0351C22.5661 49.6768 27.4216 51.7311 32.5573 51.7311C37.693 51.7311 42.5486 49.6768 46.1902 46.0351C46.9372 45.2881 47.3108 44.3544 47.3108 43.4206C45.0697 43.6074 42.9221 44.261 41.0545 45.4748C34.705 49.5834 26.021 48.6497 20.6985 42.5802C15.6562 36.7909 15.6562 27.9201 20.6985 22.1308C25.9276 16.0613 34.705 15.1276 41.0545 19.2362C42.9221 20.4501 45.0697 21.1037 47.3108 21.2904C47.3108 20.3567 46.9372 19.4229 46.1902 18.6759C38.7201 11.2058 26.4879 11.2058 18.9244 18.7693Z" fill="#818181"/>
</g>
<g opacity="0.2">
<path opacity="0.2" d="M111.741 52.6642C122.946 41.459 122.946 23.1573 111.554 11.9522C100.255 0.840411 82.1404 1.21388 70.9352 12.3256L58.1427 25.1182C56.0884 27.1725 53.3805 28.5731 50.4858 28.9467C50.4858 29.9738 50.766 30.9076 51.6064 31.7479C53.1004 33.242 55.4348 33.242 56.8354 31.7479L73.8299 14.7535C78.4987 10.0847 84.8483 7.47013 91.478 7.47013C98.1077 7.47013 104.364 10.0847 109.126 14.7535C113.795 19.4223 116.409 25.7718 116.409 32.4015C116.409 39.0312 113.795 45.2875 109.126 50.0496C99.415 59.7608 83.541 59.7608 73.8299 50.0496C72.3359 48.5556 70.0015 48.5556 68.6008 50.0496C67.8538 50.7967 67.4803 51.7304 67.4803 52.7576C70.0015 52.9443 72.3359 53.9714 74.2968 55.4655C85.5953 63.7759 101.563 62.8422 111.741 52.6642Z" fill="#818181"/>
<path opacity="0.2" d="M51.6061 26.5195C50.9525 27.1731 50.579 28.1069 50.4856 29.0406C53.3803 28.6671 56.0882 27.2665 58.1424 25.2122L70.935 12.4197C82.1401 1.21454 100.255 0.934394 111.554 12.0462C122.852 23.2513 122.946 41.4597 111.74 52.7582C101.562 62.9362 85.5951 63.8699 74.3899 55.4661C72.3356 53.9721 70.0012 53.0383 67.5734 52.7582C67.5734 53.692 67.9469 54.6257 68.694 55.3727C81.2997 67.9785 101.843 67.9785 114.448 55.3727C120.518 49.3033 123.973 41.1796 123.973 32.4956C123.973 23.8116 120.611 15.6879 114.448 9.6184C101.843 -2.98738 81.2997 -2.98738 68.694 9.6184L51.6061 26.5195Z" fill="#818181"/>
</g>
<g opacity="0.2">
<path opacity="0.2" d="M103.43 32.402C103.43 35.5768 102.217 38.5648 99.9755 40.8058C97.7345 43.0469 94.7465 44.2608 91.5717 44.2608C88.3969 44.2608 85.4088 43.0469 83.1678 40.8058C81.6738 39.3118 79.3394 39.3118 77.9387 40.8058C77.1917 41.5528 76.8182 42.4867 76.8182 43.4204C79.0593 43.6072 81.2069 44.2608 83.0744 45.4746C89.424 49.5832 98.108 48.6495 103.43 42.58C108.473 36.7907 108.473 27.9199 103.43 22.1306C98.2014 16.0611 89.424 15.1274 83.0744 19.236C81.2069 20.4498 79.0593 21.1035 76.8182 21.2902C76.8182 22.224 77.1917 23.2511 77.9387 23.9981C79.4328 25.4921 81.7672 25.4921 83.1678 23.9981C87.8366 19.3293 95.4001 19.3293 99.9755 23.9981C102.217 26.2391 103.43 29.2272 103.43 32.402Z" fill="#818181"/>
<path opacity="0.2" d="M103.337 22.1308C108.379 27.9201 108.379 36.7909 103.337 42.5802C98.1076 48.6497 89.3303 49.5834 82.9807 45.4748C81.1131 44.261 78.9655 43.6074 76.7245 43.4206C76.7245 44.3544 77.098 45.2881 77.845 46.0351C81.4867 49.6768 86.3422 51.7311 91.4779 51.7311C96.6136 51.7311 101.469 49.6768 105.111 46.0351C108.753 42.3935 110.807 37.5379 110.807 32.4022C110.807 27.2665 108.753 22.411 105.111 18.7693C97.5474 11.2058 85.3151 11.2058 77.7516 18.7693C77.0046 19.5163 76.6311 20.45 76.6311 21.3838C78.8721 21.1971 81.0198 20.5434 82.8873 19.3295C89.3303 15.1276 98.0143 16.0614 103.337 22.1308Z" fill="#818181"/>
</g>
</svg>
