<svg width="50" height="51" viewBox="0 0 50 51" fill="none" xmlns="http://www.w3.org/2000/svg">
<path d="M46.4286 0.886719H3.56027C1.59598 0.886719 0 2.50502 0 4.49163V47.2818C0 49.2684 1.59598 50.8867 3.56027 50.8867H46.4286C48.3929 50.8867 50 49.2684 50 47.2818V4.49163C50 2.50502 48.3929 0.886719 46.4286 0.886719ZM15.1116 43.7439H7.70089V19.8823H15.1228V43.7439H15.1116ZM11.4062 16.6233C9.02902 16.6233 7.10938 14.6925 7.10938 12.3265C7.10938 9.96038 9.02902 8.02958 11.4062 8.02958C13.7723 8.02958 15.7031 9.96038 15.7031 12.3265C15.7031 14.7037 13.7835 16.6233 11.4062 16.6233V16.6233ZM42.8906 43.7439H35.4799V32.1367C35.4799 29.3689 35.4241 25.8086 31.6295 25.8086C27.7679 25.8086 27.1763 28.822 27.1763 31.9358V43.7439H19.7656V19.8823H26.875V23.1412H26.9754C27.9687 21.2662 30.3906 19.2907 33.9955 19.2907C41.4955 19.2907 42.8906 24.2349 42.8906 30.6635V43.7439V43.7439Z" fill="#FF6F00"/>
</svg>
