<svg width="50" height="51" viewBox="0 0 50 51" fill="none" xmlns="http://www.w3.org/2000/svg">
<path d="M25.0056 13.0646C17.9113 13.0646 12.1891 18.7869 12.1891 25.8811C12.1891 32.9754 17.9113 38.6976 25.0056 38.6976C32.0998 38.6976 37.8221 32.9754 37.8221 25.8811C37.8221 18.7869 32.0998 13.0646 25.0056 13.0646ZM25.0056 34.2135C20.4211 34.2135 16.6732 30.4768 16.6732 25.8811C16.6732 21.2855 20.4099 17.5487 25.0056 17.5487C29.6012 17.5487 33.338 21.2855 33.338 25.8811C33.338 30.4768 29.5901 34.2135 25.0056 34.2135V34.2135ZM41.3358 12.5404C41.3358 14.2024 39.9972 15.5298 38.3464 15.5298C36.6843 15.5298 35.3569 14.1912 35.3569 12.5404C35.3569 10.8895 36.6955 9.55097 38.3464 9.55097C39.9972 9.55097 41.3358 10.8895 41.3358 12.5404ZM49.8243 15.5744C49.6347 11.5699 48.72 8.0228 45.7864 5.10033C42.8639 2.17785 39.3168 1.26318 35.3123 1.0624C31.1852 0.828158 18.8148 0.828158 14.6877 1.0624C10.6944 1.25203 7.14724 2.1667 4.21361 5.08917C1.27998 8.01165 0.376464 11.5588 0.175683 15.5632C-0.0585611 19.6904 -0.0585611 32.0607 0.175683 36.1879C0.36531 40.1924 1.27998 43.7395 4.21361 46.662C7.14724 49.5844 10.6832 50.4991 14.6877 50.6999C18.8148 50.9341 31.1852 50.9341 35.3123 50.6999C39.3168 50.5103 42.8639 49.5956 45.7864 46.662C48.7089 43.7395 49.6235 40.1924 49.8243 36.1879C50.0586 32.0607 50.0586 19.7016 49.8243 15.5744V15.5744ZM44.4925 40.6162C43.6224 42.8025 41.9381 44.4868 39.7407 45.368C36.4501 46.6731 28.6419 46.3719 25.0056 46.3719C21.3692 46.3719 13.5499 46.662 10.2705 45.368C8.08422 44.498 6.39989 42.8137 5.51868 40.6162C4.21361 37.3256 4.51478 29.5175 4.51478 25.8811C4.51478 22.2448 4.22476 14.4255 5.51868 11.1461C6.38873 8.95978 8.07306 7.27545 10.2705 6.39425C13.5611 5.08917 21.3692 5.39034 25.0056 5.39034C28.6419 5.39034 36.4612 5.10033 39.7407 6.39425C41.9269 7.2643 43.6113 8.94863 44.4925 11.1461C45.7975 14.4366 45.4964 22.2448 45.4964 25.8811C45.4964 29.5175 45.7975 37.3368 44.4925 40.6162Z" fill="#FF6F00"/>
</svg>
