<svg width="159" height="69" viewBox="0 0 159 69" fill="none" xmlns="http://www.w3.org/2000/svg">
<path d="M60.6245 35.0267C59.3301 33.7323 58.6753 31.9049 58.6753 29.514V20.3922H62.4519V29.3769C62.4519 32.3008 63.655 33.7475 66.0763 33.7475C67.2489 33.7475 68.1626 33.3972 68.7717 32.6815C69.3961 31.981 69.7007 30.8693 69.7007 29.3617V20.377H73.4316V29.4988C73.4316 31.8896 72.7768 33.7323 71.4824 35.0115C70.188 36.3059 68.3758 36.9455 66.0459 36.9455C63.7464 36.9607 61.9342 36.3211 60.6245 35.0267Z" fill="black"/>
<path d="M87.5483 36.687L84.4113 32.1489H84.2285H80.9392V36.687H77.1625V20.3926H84.2133C85.66 20.3926 86.9087 20.6362 87.9747 21.1083C89.0407 21.5956 89.863 22.2657 90.4265 23.1642C91.0052 24.0474 91.2945 25.0982 91.2945 26.3012C91.2945 27.5042 91.0052 28.555 90.4265 29.4383C89.8478 30.3215 89.0255 30.9916 87.9443 31.4484L91.5991 36.687H87.5483ZM86.5889 24.1997C85.995 23.7124 85.1422 23.4687 84.0001 23.4687H80.924V29.1489H84.0001C85.127 29.1489 85.995 28.9053 86.5889 28.4027C87.1828 27.9002 87.4722 27.2149 87.4722 26.3012C87.4874 25.3875 87.1828 24.687 86.5889 24.1997Z" fill="black"/>
<path d="M105.289 28.2806H108.731V34.8897C107.848 35.5598 106.828 36.0623 105.655 36.4278C104.498 36.778 103.325 36.9608 102.137 36.9608C100.447 36.9608 98.924 36.5953 97.5687 35.8796C96.2133 35.1638 95.1626 34.1588 94.3859 32.8796C93.6245 31.6004 93.2286 30.1537 93.2286 28.5395C93.2286 26.9253 93.6093 25.4786 94.3859 24.1994C95.1474 22.9202 96.2133 21.9151 97.5839 21.1994C98.9545 20.4836 100.493 20.1182 102.198 20.1182C103.63 20.1182 104.924 20.3618 106.081 20.8339C107.239 21.3212 108.229 22.0065 109.02 22.9354L106.599 25.174C105.442 23.9557 104.026 23.3314 102.381 23.3314C101.345 23.3314 100.416 23.5446 99.6093 23.9862C98.8022 24.4278 98.1778 25.0369 97.721 25.8288C97.2641 26.6207 97.0509 27.5344 97.0509 28.5547C97.0509 29.5598 97.2793 30.4583 97.721 31.2501C98.1778 32.042 98.8022 32.6511 99.5941 33.108C100.386 33.5496 101.3 33.7781 102.335 33.7781C103.416 33.7781 104.391 33.5496 105.274 33.0775V28.2806H105.289Z" fill="black"/>
<path d="M124.843 33.6565V36.687H112.234V20.3926H124.553V23.423H115.995V26.956H123.564V29.8951H115.995V33.6565H124.843Z" fill="black"/>
<path d="M142.782 20.3926V36.687H139.69L131.574 26.7885V36.687H127.843V20.3926H130.965L139.066 30.291V20.3926H142.782Z" fill="black"/>
<path d="M150.015 23.4531H144.807V20.377H159V23.4531H153.792V36.6714H150.015V23.4531Z" fill="black"/>
<path d="M62.4519 47.0562V51.3659H69.99V54.3963H62.4519V60.3354H58.6753V44.041H70.9951V47.0562H62.4519Z" fill="black"/>
<path d="M75.3657 58.6761C74.0713 57.3817 73.4164 55.5543 73.4164 53.1634V44.0416H77.1931V53.0264C77.1931 55.9502 78.3961 57.3969 80.8175 57.3969C81.99 57.3969 82.9037 57.0467 83.5129 56.3309C84.1373 55.6304 84.4418 54.5187 84.4418 53.0111V44.0264H88.1728V53.1482C88.1728 55.539 87.518 57.3817 86.2235 58.6609C84.9291 59.9553 83.1169 60.5949 80.787 60.5949C78.4723 60.6101 76.6601 59.9553 75.3657 58.6761Z" fill="black"/>
<path d="M104.513 57.305V60.3354H91.9037V44.041H104.223V47.0562H95.6651V50.5892H103.234V53.5283H95.6651V57.305H104.513Z" fill="black"/>
<path d="M107.513 44.0264H111.289V57.2446H119.452V60.3208H107.513V44.0264Z" fill="black"/>
<path d="M43.7665 28.0812L31.3705 46.3553C28.8122 50.1319 23.665 51.1066 19.8883 48.5482C18.0609 47.3147 16.8274 45.4264 16.4162 43.2639C16.0051 41.1015 16.4619 38.8934 17.7106 37.0507L33.6548 13.2792L43.7665 28.0812ZM16.7969 52.8578C16.7513 52.8274 16.6903 52.7969 16.6447 52.7512C13.7817 50.7106 11.8629 47.7106 11.1929 44.2538C10.5076 40.6903 11.2538 37.0812 13.2944 34.0812L30.4416 8.5736L24.5939 0L4.41624 29.5279L4.27918 29.7411L4.29441 29.7563C1.58376 33.6853 0 38.467 0 43.6294C0 45.2284 0.152284 46.7817 0.441624 48.2893C0.502538 48.6396 0.57868 48.9746 0.67005 49.3248C0.700507 49.4771 0.746192 49.6294 0.776649 49.7817C0.822334 49.9797 0.883248 50.1624 0.928933 50.3451C0.974619 50.4822 1.00508 50.6193 1.05076 50.7411C1.24873 51.3807 1.46193 52.0203 1.70558 52.6446C1.7665 52.7817 1.82741 52.934 1.8731 53.071C2.05584 53.4974 2.23858 53.9086 2.43655 54.3198C2.49746 54.4568 2.5736 54.5939 2.63452 54.7309C6.7005 62.7258 15 68.2081 24.5787 68.2081C28.5381 68.2081 32.269 67.2791 35.5736 65.6192L17.1167 53.0863L16.7969 52.8578ZM48.7614 38.9543C48.7309 38.8325 48.7157 38.7106 48.6852 38.5736C48.6396 38.3604 48.5939 38.132 48.533 37.9188C48.5025 37.7665 48.4568 37.6142 48.4264 37.4619C48.1218 36.2893 47.7411 35.1472 47.269 34.0507C47.1929 33.868 47.1167 33.7005 47.0406 33.5177C46.9644 33.3502 46.8883 33.1827 46.8121 33.0304L35.7563 49.3248C34.0051 51.8984 31.538 53.6802 28.7817 54.5786L40.3858 62.4517C45.7614 57.9441 49.1878 51.1675 49.1878 43.599C49.1878 42.0152 49.0355 40.4619 48.7614 38.9543Z" fill="url(#paint0_linear_1_1476)"/>
<defs>
<linearGradient id="paint0_linear_1_1476" x1="24.5967" y1="68.2049" x2="24.5967" y2="0" gradientUnits="userSpaceOnUse">
<stop stop-color="#F9371E"/>
<stop offset="0.0931371" stop-color="#FA4520"/>
<stop offset="0.3544" stop-color="#FC6923"/>
<stop offset="0.6002" stop-color="#FE8226"/>
<stop offset="0.8224" stop-color="#FF9227"/>
<stop offset="1" stop-color="#FF9728"/>
</linearGradient>
</defs>
</svg>
