<svg width="50" height="69" viewBox="0 0 50 69" fill="none" xmlns="http://www.w3.org/2000/svg">
<path d="M43.7665 28.0812L31.3705 46.3553C28.8122 50.1319 23.665 51.1066 19.8883 48.5482C18.0609 47.3147 16.8274 45.4264 16.4162 43.2639C16.0051 41.1015 16.4619 38.8934 17.7106 37.0507L33.6548 13.2792L43.7665 28.0812ZM16.7969 52.8578C16.7513 52.8274 16.6903 52.7969 16.6447 52.7512C13.7817 50.7106 11.8629 47.7106 11.1929 44.2538C10.5076 40.6903 11.2538 37.0812 13.2944 34.0812L30.4416 8.5736L24.5939 0L4.41624 29.5279L4.27918 29.7411L4.29441 29.7563C1.58376 33.6853 0 38.467 0 43.6294C0 45.2284 0.152284 46.7817 0.441624 48.2893C0.502538 48.6396 0.57868 48.9746 0.67005 49.3248C0.700507 49.4771 0.746192 49.6294 0.776649 49.7817C0.822334 49.9797 0.883248 50.1624 0.928933 50.3451C0.974619 50.4822 1.00508 50.6193 1.05076 50.7411C1.24873 51.3807 1.46193 52.0203 1.70558 52.6446C1.7665 52.7817 1.82741 52.934 1.8731 53.071C2.05584 53.4974 2.23858 53.9086 2.43655 54.3198C2.49746 54.4568 2.5736 54.5939 2.63452 54.7309C6.7005 62.7258 15 68.2081 24.5787 68.2081C28.5381 68.2081 32.269 67.2791 35.5736 65.6192L17.1167 53.0863L16.7969 52.8578ZM48.7614 38.9543C48.7309 38.8325 48.7157 38.7106 48.6852 38.5736C48.6396 38.3604 48.5939 38.132 48.533 37.9188C48.5025 37.7665 48.4568 37.6142 48.4264 37.4619C48.1218 36.2893 47.7411 35.1472 47.269 34.0507C47.1929 33.868 47.1167 33.7005 47.0406 33.5177C46.9644 33.3502 46.8883 33.1827 46.8121 33.0304L35.7563 49.3248C34.0051 51.8984 31.538 53.6802 28.7817 54.5786L40.3858 62.4517C45.7614 57.9441 49.1878 51.1675 49.1878 43.599C49.1878 42.0152 49.0355 40.4619 48.7614 38.9543Z" fill="url(#paint0_linear_2742_1482)"/>
<defs>
<linearGradient id="paint0_linear_2742_1482" x1="24.5967" y1="68.2049" x2="24.5967" y2="0" gradientUnits="userSpaceOnUse">
<stop stop-color="#F9371E"/>
<stop offset="0.0931371" stop-color="#FA4520"/>
<stop offset="0.3544" stop-color="#FC6923"/>
<stop offset="0.6002" stop-color="#FE8226"/>
<stop offset="0.8224" stop-color="#FF9227"/>
<stop offset="1" stop-color="#FF9728"/>
</linearGradient>
</defs>
</svg>
