<svg width="26" height="26" viewBox="0 0 26 26" fill="none" xmlns="http://www.w3.org/2000/svg">
<path d="M22.4932 0.769043H3.01597C1.54909 0.769043 0.359985 1.95815 0.359985 3.42503V22.9022C0.359985 24.3691 1.54909 25.5582 3.01597 25.5582H22.4932C23.9601 25.5582 25.1492 24.3691 25.1492 22.9022V3.42503C25.1492 1.95815 23.9601 0.769043 22.4932 0.769043ZM10.2157 13.5014C5.19769 9.85953 5.24882 9.85035 3.9013 8.80157V7.409C3.9013 6.67556 4.49585 6.08101 5.22929 6.08101H20.2799C21.0133 6.08101 21.6079 6.67556 21.6079 7.409V8.80157C20.2593 9.85118 20.3112 9.85975 15.2934 13.5014C14.7124 13.925 13.5564 14.9467 12.7546 14.9342C11.9521 14.9463 10.7976 13.9257 10.2157 13.5014ZM21.6079 11.0485V18.9183C21.6079 19.6517 21.0133 20.2463 20.2799 20.2463H5.22929C4.49585 20.2463 3.9013 19.6517 3.9013 18.9183V11.0485C4.67363 11.6458 5.74549 12.4449 9.1747 14.9337C9.95832 15.5059 11.276 16.7124 12.7544 16.7049C14.2421 16.7123 15.5784 15.4853 16.3356 14.9328C19.7639 12.4448 20.8355 11.6457 21.6079 11.0485Z" fill="#FF6F00"/>
</svg>
