<svg width="51" height="71" viewBox="0 0 51 71" fill="none" xmlns="http://www.w3.org/2000/svg">
<path d="M50.8572 45.1384C50.8545 50.7582 48.9592 56.2134 45.4769 60.6243C41.9945 65.0352 37.1281 68.1447 31.6622 69.4514C26.1964 70.7582 20.4498 70.1859 15.3489 67.8271C10.2481 65.4682 6.09038 61.4601 3.54618 56.4491L3.33077 56.0313C3.1283 55.6134 2.93731 55.1898 2.7578 54.7604L2.58117 54.3296C2.33131 53.6963 2.10513 53.0501 1.91127 52.391C1.86604 52.2553 1.82726 52.1196 1.79065 51.9838C1.73679 51.7921 1.68294 51.6004 1.63556 51.4087C1.59678 51.2536 1.55801 51.0985 1.52139 50.9435C1.43739 50.5967 1.36199 50.2456 1.30599 49.8923C1.00734 48.3304 0.857327 46.7437 0.857953 45.1534C0.848651 40.1141 2.37054 35.1909 5.22201 31.036H5.20908L5.3534 30.8206L25.8425 0.817139L46.1334 30.5233L46.2454 30.6849L46.3036 30.7667L46.4996 31.0575L46.6935 31.3418C47.1243 31.988 47.5206 32.6472 47.8889 33.3257C48.072 33.666 48.2465 34.0128 48.4145 34.3618C48.4964 34.5362 48.5782 34.7129 48.6579 34.8917C48.7376 35.0704 48.8195 35.2471 48.8927 35.4259C49.3689 36.5487 49.7599 37.7058 50.0624 38.8874C50.1011 39.0425 50.1399 39.1976 50.1765 39.3526C50.2325 39.568 50.2799 39.7964 50.3273 40.0225C50.3531 40.1496 50.379 40.2789 50.4027 40.4038C50.7031 41.9641 50.8553 43.5494 50.8572 45.1384Z" fill="url(#paint0_linear_1_1320)"/>
<defs>
<linearGradient id="paint0_linear_1_1320" x1="25.8576" y1="70.1401" x2="25.8576" y2="0.817139" gradientUnits="userSpaceOnUse">
<stop stop-color="#F9371E"/>
<stop offset="0.09" stop-color="#FA4520"/>
<stop offset="0.35" stop-color="#FC6923"/>
<stop offset="0.6" stop-color="#FE8226"/>
<stop offset="0.82" stop-color="#FF9227"/>
<stop offset="1" stop-color="#FF9728"/>
</linearGradient>
</defs>
</svg>
