<svg width="51" height="71" viewBox="0 0 51 71" fill="none" xmlns="http://www.w3.org/2000/svg">
<path d="M50.9782 45.1384C50.9756 50.7582 49.0803 56.2134 45.5979 60.6243C42.1155 65.0352 37.2491 68.1447 31.7833 69.4514C26.3174 70.7582 20.5708 70.186 15.47 67.8271C10.3691 65.4682 6.21141 61.4601 3.66721 56.4491L3.45181 56.0313C3.24933 55.6134 3.05834 55.1898 2.87884 54.7604L2.70221 54.3296C2.45234 53.6963 2.22617 53.0501 2.0323 52.391C1.98707 52.2553 1.9483 52.1196 1.91168 51.9838C1.85783 51.7921 1.80398 51.6004 1.75659 51.4087C1.71782 51.2536 1.67904 51.0985 1.64243 50.9435C1.55842 50.5967 1.48303 50.2456 1.42702 49.8923C1.12838 48.3304 0.97836 46.7437 0.978985 45.1534C0.969684 40.1141 2.49157 35.1909 5.34304 31.036H5.33012L5.47444 30.8206L25.9635 0.817139L46.2544 30.5233L46.3665 30.6849L46.4246 30.7667L46.6206 31.0575L46.8145 31.3418C47.2453 31.988 47.6416 32.6472 48.01 33.3257C48.1931 33.666 48.3675 34.0128 48.5356 34.3618C48.6174 34.5362 48.6993 34.7129 48.779 34.8917C48.8587 35.0704 48.9405 35.2471 49.0138 35.4259C49.4899 36.5487 49.8809 37.7058 50.1834 38.8874C50.2222 39.0425 50.2609 39.1976 50.2976 39.3526C50.3536 39.5681 50.4009 39.7964 50.4483 40.0225C50.4742 40.1496 50.5 40.2789 50.5237 40.4038C50.8241 41.9641 50.9763 43.5494 50.9782 45.1384Z" fill="url(#paint0_linear_1_1331)"/>
<defs>
<linearGradient id="paint0_linear_1_1331" x1="25.9786" y1="70.1401" x2="25.9786" y2="0.817139" gradientUnits="userSpaceOnUse">
<stop stop-color="#F9371E"/>
<stop offset="0.09" stop-color="#FA4520"/>
<stop offset="0.35" stop-color="#FC6923"/>
<stop offset="0.6" stop-color="#FE8226"/>
<stop offset="0.82" stop-color="#FF9227"/>
<stop offset="1" stop-color="#FF9728"/>
</linearGradient>
</defs>
</svg>
