<svg width="51" height="49" viewBox="0 0 51 49" fill="none" xmlns="http://www.w3.org/2000/svg">
<path d="M9.5711 27.8643V48.0986H5.07458V27.8643H9.5711Z" fill="url(#paint0_linear_1_1342)"/>
<path d="M50.039 27.8643V32.3608H45.5425V48.0986H41.046V32.3608H36.5494V27.8643H50.039Z" fill="url(#paint1_linear_1_1342)"/>
<path d="M25.309 23.3676C28.4592 23.3844 31.5423 24.279 34.2121 25.9509L37.4654 22.6909C33.8949 20.2132 29.6549 18.8809 25.309 18.8711C21.021 18.8795 16.8378 20.1973 13.3191 22.6482L16.5768 25.9149C19.1924 24.2667 22.2175 23.3843 25.309 23.3676Z" fill="url(#paint2_linear_1_1342)"/>
<path d="M25.3091 14.3744C30.8451 14.3859 36.2311 16.175 40.6737 19.478L43.882 16.263C38.5714 12.132 32.0372 9.88568 25.3091 9.87793C18.6394 9.8864 12.163 12.119 6.90491 16.2225L10.1109 19.4375C14.5017 16.1612 19.8307 14.3859 25.3091 14.3744Z" fill="url(#paint3_linear_1_1342)"/>
<path d="M25.3088 5.38197C33.2296 5.38319 40.9127 8.08779 47.0877 13.0485L50.2959 9.83577C43.2854 4.05632 34.4845 0.892482 25.3988 0.88551C16.3132 0.878538 7.50741 4.02887 0.488037 9.79755L3.6963 13.0103C9.81914 8.07619 17.4453 5.38447 25.3088 5.38197Z" fill="url(#paint4_linear_1_1342)"/>
<path d="M25.3089 27.8643C23.3079 27.8643 21.3519 28.4576 19.6881 29.5693C18.0244 30.681 16.7276 32.2611 15.9619 34.1097C15.1962 35.9584 14.9958 37.9926 15.3862 39.9552C15.7765 41.9177 16.7401 43.7204 18.155 45.1353C19.5699 46.5502 21.3726 47.5138 23.3352 47.9042C25.2977 48.2945 27.3319 48.0942 29.1806 47.3284C31.0293 46.5627 32.6094 45.266 33.721 43.6022C34.8327 41.9384 35.4261 39.9824 35.4261 37.9814C35.4261 35.2982 34.3602 32.7248 32.4628 30.8275C30.5655 28.9302 27.9922 27.8643 25.3089 27.8643ZM25.3089 43.6021C24.1973 43.6021 23.1106 43.2724 22.1863 42.6548C21.262 42.0372 20.5415 41.1594 20.1161 40.1323C19.6907 39.1053 19.5794 37.9752 19.7963 36.8849C20.0132 35.7946 20.5485 34.7931 21.3345 34.007C22.1206 33.221 23.1221 32.6856 24.2124 32.4688C25.3027 32.2519 26.4328 32.3632 27.4599 32.7886C28.4869 33.214 29.3647 33.9344 29.9823 34.8588C30.5999 35.7831 30.9296 36.8698 30.9296 37.9814C30.9296 39.4721 30.3374 40.9017 29.2833 41.9558C28.2293 43.0099 26.7996 43.6021 25.3089 43.6021Z" fill="url(#paint5_linear_1_1342)"/>
<defs>
<linearGradient id="paint0_linear_1_1342" x1="5.07458" y1="37.9814" x2="9.5711" y2="37.9814" gradientUnits="userSpaceOnUse">
<stop stop-color="#F8962C"/>
<stop offset="1" stop-color="#EF3C26"/>
</linearGradient>
<linearGradient id="paint1_linear_1_1342" x1="36.5494" y1="37.9814" x2="50.039" y2="37.9814" gradientUnits="userSpaceOnUse">
<stop stop-color="#F8962C"/>
<stop offset="1" stop-color="#EF3C26"/>
</linearGradient>
<linearGradient id="paint2_linear_1_1342" x1="13.3191" y1="22.411" x2="37.4654" y2="22.411" gradientUnits="userSpaceOnUse">
<stop stop-color="#F8962C"/>
<stop offset="1" stop-color="#EF3C26"/>
</linearGradient>
<linearGradient id="paint3_linear_1_1342" x1="6.90491" y1="14.678" x2="43.882" y2="14.678" gradientUnits="userSpaceOnUse">
<stop stop-color="#F8962C"/>
<stop offset="1" stop-color="#EF3C26"/>
</linearGradient>
<linearGradient id="paint4_linear_1_1342" x1="0.488037" y1="6.96701" x2="50.2959" y2="6.96701" gradientUnits="userSpaceOnUse">
<stop stop-color="#F8962C"/>
<stop offset="1" stop-color="#EF3C26"/>
</linearGradient>
<linearGradient id="paint5_linear_1_1342" x1="15.1918" y1="37.9814" x2="35.4261" y2="37.9814" gradientUnits="userSpaceOnUse">
<stop stop-color="#F8962C"/>
<stop offset="1" stop-color="#EF3C26"/>
</linearGradient>
</defs>
</svg>
