<svg width="51" height="80" viewBox="0 0 51 80" fill="none" xmlns="http://www.w3.org/2000/svg">
<path d="M24.0551 20.6941C24.222 20.6182 24.361 20.492 24.4528 20.3332L27.3856 15.2533C27.6286 14.8325 27.4844 14.2944 27.0636 14.0515L25.2856 13.0249L26.0188 11.755C26.2618 11.3341 26.1176 10.796 25.6968 10.5531L21.1249 7.9135C20.7753 7.71163 20.3331 7.77363 20.0524 8.06386L18.8489 9.30866L12.84 5.83948C12.4192 5.59651 11.8811 5.74069 11.6381 6.16153L10.905 7.4315L9.76702 6.77451C8.74933 6.18695 7.56379 6.03083 6.4287 6.33498L1.1473 7.75012C0.677946 7.87589 0.399388 8.35836 0.525152 8.82772C0.650916 9.29707 1.13339 9.57563 1.60275 9.44987L6.88414 8.03472C7.56518 7.85224 8.27648 7.94591 8.88712 8.29846L10.0251 8.95545L8.41199 11.7494C7.19909 13.8502 7.92149 16.546 10.0222 17.7589L18.6579 22.7447C18.904 22.8868 19.2035 22.9012 19.4622 22.7836L24.0551 20.6941ZM10.9021 16.2349C9.64165 15.5072 9.20817 13.8897 9.93592 12.6292L10.3759 11.8672L14.3781 14.1779L13.2248 14.4869C12.7554 14.6127 12.4769 15.0951 12.6026 15.5645C12.7284 16.0338 13.2109 16.3124 13.6802 16.1866L15.5102 15.6963L14.9248 18.5574L10.9021 16.2349Z" fill="#454554"/>
<path d="M31.8879 26.8352C31.9487 27.0622 32.0943 27.2519 32.2978 27.3694C32.5014 27.4869 32.7386 27.5182 32.9655 27.4573L35.5147 26.7742C35.9833 26.6487 36.2624 26.1653 36.1369 25.6967L35.7498 24.2517C35.0706 21.7166 33.4448 19.5978 31.1719 18.2856L28.5428 16.7677L26.3432 20.5776L28.9725 22.0956C30.2276 22.8202 31.1253 23.9902 31.5004 25.3899L31.8879 26.8352Z" fill="#454554"/>
<path d="M32.1284 79.9941C27.529 79.9941 23.1386 79.6499 19.7665 79.0248C17.8706 78.6733 14.5997 77.9044 13.9974 76.7042L13.8944 76.499L13.717 27.8364H50.5397L50.3623 76.4989L50.2594 76.704C49.657 77.9042 46.3862 78.6731 44.4903 79.0245C41.1182 79.6499 36.7279 79.9941 32.1284 79.9941Z" fill="#FF6F00"/>
<path d="M40.2778 78.1469C35.6784 78.1469 31.288 77.8027 27.9159 77.1775C26.02 76.826 22.7491 76.0572 22.1468 74.857L22.0438 74.6519L21.8732 27.8369H13.717L13.8944 76.4994L13.9974 76.7045C14.5998 77.9047 17.8706 78.6735 19.7665 79.025C23.1386 79.6503 27.529 79.9945 32.1284 79.9945C36.7279 79.9945 41.1182 79.6503 44.4904 79.0251C45.7993 78.7824 47.7633 78.3407 49.0522 77.6956C46.3878 77.9896 43.3812 78.1469 40.2778 78.1469Z" fill="#EE6A05"/>
<path d="M13.8575 66.2979C14.9986 67.2158 17.7013 67.8206 19.3734 68.121C22.8528 68.7462 27.3827 69.0903 32.1287 69.0903C36.8746 69.0903 41.4045 68.7462 44.884 68.121C46.5561 67.8207 49.2587 67.2158 50.3999 66.2979L50.4973 39.5674L49.4974 40.0496C48.57 40.4967 47.1834 40.9012 45.3761 41.2514C41.838 41.9371 37.1335 42.3148 32.1288 42.3148C27.124 42.3148 22.4194 41.9371 18.8816 41.2514C17.0741 40.901 15.6875 40.4967 14.7602 40.0496L13.7603 39.5674L13.8575 66.2979Z" fill="#31313F"/>
<path d="M19.3726 68.1206C20.1994 68.2692 21.0869 68.4012 22.0211 68.5171L21.9234 41.729C20.8388 41.5919 19.8177 41.4325 18.8807 41.2509C17.0733 40.9005 15.6867 40.4962 14.7593 40.0491L13.7594 39.5669L13.8386 61.2987L13.8568 66.2974C14.9979 67.2155 17.7005 67.8203 19.3726 68.1206Z" fill="#22222B"/>
<path d="M32.1289 31.5323C27.5295 31.5323 23.1392 31.1881 19.767 30.563C16.6505 29.9851 14.6287 29.2077 14.0742 28.3737L13.7175 27.8371L14.0742 27.3005C14.6287 26.4664 16.6505 25.689 19.767 25.1112C23.1392 24.486 27.5295 24.1418 32.1289 24.1418C36.7284 24.1418 41.1186 24.486 44.4909 25.1112C47.6074 25.689 49.6291 26.4664 50.1836 27.3005L50.5403 27.8371L50.1836 28.3737C49.6291 29.2078 47.6074 29.9851 44.4909 30.563C41.1186 31.1881 36.7284 31.5323 32.1289 31.5323Z" fill="#31313F"/>
<path d="M26.0022 30.563C22.8857 29.9851 20.864 29.2077 20.3095 28.3737C20.0934 28.0486 20.0934 27.6256 20.3095 27.3005C20.864 26.4664 22.8857 25.689 26.0022 25.1112C28.6019 24.6292 31.8074 24.3152 35.2465 24.1961C34.2244 24.1607 33.1827 24.1418 32.1289 24.1418C27.5295 24.1418 23.1392 24.486 19.767 25.1112C16.6505 25.689 14.6287 26.4665 14.0742 27.3005L13.7175 27.8371L14.0742 28.3737C14.6287 29.2078 16.6505 29.9851 19.767 30.563C23.1392 31.1881 27.5295 31.5323 32.1289 31.5323C33.1827 31.5323 34.2244 31.5134 35.2465 31.478C31.8073 31.359 28.6018 31.0449 26.0022 30.563Z" fill="#22222B"/>
<path d="M29.17 56.5246C29.8428 57.1974 30.4209 57.7754 31.0937 58.4482C31.389 58.153 31.6496 58.0899 32.0555 58.0498L33.4158 56.6905L32.0555 55.3313C30.9733 55.3313 29.9398 55.7548 29.17 56.5246Z" fill="#FF6F00"/>
<path d="M34.9409 56.5246C34.1711 55.7547 33.1376 55.3313 32.0555 55.3313V58.0498C32.4188 58.0498 32.7604 58.1912 33.0173 58.4482C33.6901 57.7754 34.2682 57.1974 34.9409 56.5246Z" fill="#FF6F00"/>
<path d="M25.3229 52.6762C25.9956 53.349 26.5737 53.9271 27.2465 54.5999C28.5298 53.3167 30.2523 52.611 32.0556 52.611L33.4159 51.2514L32.0556 49.8918C29.5352 49.8919 27.1225 50.8767 25.3229 52.6762Z" fill="#FF6F00"/>
<path d="M36.8652 54.6003L38.7888 52.6766C36.9923 50.88 34.5808 49.8923 32.056 49.8923V52.6114C33.8563 52.6114 35.5797 53.3149 36.8652 54.6003Z" fill="#FF6F00"/>
</svg>
