<svg width="77" height="60" viewBox="0 0 77 60" fill="none" xmlns="http://www.w3.org/2000/svg">
<path d="M56.4665 46.2537C54.3402 46.2537 52.6165 47.9774 52.6165 50.1037C52.6165 52.23 54.3402 53.9537 56.4665 53.9537C58.5928 53.9537 60.3165 52.23 60.3165 50.1037C60.3165 47.9774 58.5928 46.2537 56.4665 46.2537ZM56.4665 51.387C55.7578 51.387 55.1832 50.8124 55.1832 50.1037C55.1832 49.3949 55.7578 48.8203 56.4665 48.8203C57.1753 48.8203 57.7498 49.3949 57.7498 50.1037C57.7498 50.8124 57.1753 51.387 56.4665 51.387Z" fill="#FF6F00"/>
<path d="M14.1167 46.2537C11.9904 46.2537 10.2667 47.9774 10.2667 50.1037C10.2667 52.23 11.9904 53.9537 14.1167 53.9537C16.243 53.9537 17.9667 52.23 17.9667 50.1037C17.9667 47.9774 16.243 46.2537 14.1167 46.2537ZM14.1167 51.387C13.408 51.387 12.8334 50.8124 12.8334 50.1037C12.8334 49.3949 13.408 48.8203 14.1167 48.8203C14.8255 48.8203 15.4001 49.3949 15.4001 50.1037C15.4001 50.8124 14.8255 51.387 14.1167 51.387Z" fill="#FF6F00"/>
<path d="M68.5749 11.4202C67.983 9.97547 66.5749 9.03323 65.0137 9.03704H50.05V3.90371C50.05 1.77741 48.3263 0.0537109 46.2 0.0537109H3.85C1.7237 0.0537109 0 1.77741 0 3.90371V39.837C0.00389158 40.9721 0.511649 42.0469 1.386 42.7707C-0.00459017 44.2625 -0.377936 46.437 0.435428 48.3072C1.24879 50.1774 3.09394 51.387 5.13333 51.387H5.236C5.87035 55.804 9.65439 59.0834 14.1167 59.0834C18.5789 59.0834 22.363 55.804 22.9973 51.387H47.586C48.2203 55.804 52.0044 59.0834 56.4667 59.0834C60.9289 59.0834 64.713 55.804 65.3473 51.387H73.15C75.2763 51.387 77 49.6633 77 47.537V33.6604C77.0009 32.4866 76.7711 31.3241 76.3237 30.239L68.5749 11.4202ZM66.2007 12.3981L73.9495 31.2182C74.0652 31.5171 74.1582 31.8242 74.228 32.137H59.0333C58.3246 32.137 57.75 31.5625 57.75 30.8537V11.6037H65.0137C65.5338 11.6035 66.0026 11.9172 66.2007 12.3981ZM20.3922 43.687H50.1912C48.7816 45.0649 47.8659 46.8692 47.586 48.8204H22.9973C22.7174 46.8692 21.8017 45.0649 20.3922 43.687ZM2.56667 3.90371C2.56667 3.19495 3.14123 2.62038 3.85 2.62038H46.2C46.9088 2.62038 47.4833 3.19495 47.4833 3.90371V41.1204H3.85C3.14123 41.1204 2.56667 40.5458 2.56667 39.837V3.90371ZM3.31998 48.0671C2.58723 47.3331 2.36825 46.2302 2.76498 45.2719C3.16171 44.3136 4.09618 43.6883 5.13333 43.687H7.84117C6.43164 45.0649 5.51595 46.8692 5.236 48.8204H5.13333C4.45245 48.822 3.79932 48.5506 3.31998 48.0671ZM14.1167 56.5204C10.5728 56.5204 7.7 53.6475 7.7 50.1037C7.7 46.5599 10.5728 43.687 14.1167 43.687C17.6605 43.687 20.5333 46.5599 20.5333 50.1037C20.5291 53.6458 17.6587 56.5161 14.1167 56.5204ZM56.4667 56.5204C52.9228 56.5204 50.05 53.6475 50.05 50.1037C50.05 46.5599 52.9228 43.687 56.4667 43.687C60.0105 43.687 62.8833 46.5599 62.8833 50.1037C62.8791 53.6458 60.0087 56.5161 56.4667 56.5204ZM73.15 48.8204H65.3473C64.71 44.4045 60.9283 41.1256 56.4667 41.1204H50.05V11.6037H55.1833V30.8537C55.1833 32.98 56.907 34.7037 59.0333 34.7037H74.4333V37.2704H73.15C72.4412 37.2704 71.8667 37.8449 71.8667 38.5537C71.8667 39.2625 72.4412 39.837 73.15 39.837H74.4333V42.4037H73.15C72.4412 42.4037 71.8667 42.9783 71.8667 43.687C71.8667 44.3958 72.4412 44.9704 73.15 44.9704H74.4333V47.537C74.4333 48.2458 73.8588 48.8204 73.15 48.8204Z" fill="#FF6F00"/>
<path d="M6.4167 7.75368H10.2667C10.9755 7.75368 11.55 7.17911 11.55 6.47035C11.55 5.76158 10.9755 5.18701 10.2667 5.18701H6.4167C5.70793 5.18701 5.13336 5.76158 5.13336 6.47035C5.13336 7.17911 5.70793 7.75368 6.4167 7.75368Z" fill="#FF6F00"/>
<path d="M15.4001 7.75368H43.6334C44.3422 7.75368 44.9168 7.17911 44.9168 6.47035C44.9168 5.76158 44.3422 5.18701 43.6334 5.18701H15.4001C14.6913 5.18701 14.1168 5.76158 14.1168 6.47035C14.1168 7.17911 14.6913 7.75368 15.4001 7.75368Z" fill="#FF6F00"/>
</svg>
