<svg width="74" height="80" viewBox="0 0 74 80" fill="none" xmlns="http://www.w3.org/2000/svg">
<path d="M28.4999 30.6795C31.7912 30.6795 34.5153 28.2059 34.9108 25.0186H22.089C22.4845 28.2059 25.2086 30.6795 28.4999 30.6795Z" fill="#FF6F00"/>
<path d="M46.1461 30.6795C49.4374 30.6795 52.1616 28.2059 52.557 25.0186H39.7352C40.1307 28.2059 42.8548 30.6795 46.1461 30.6795Z" fill="#FF6F00"/>
<path d="M54.9658 31.0936C52.9161 33.7169 49.724 35.4059 46.1459 35.4059C42.5647 35.4059 39.3711 33.7153 37.3229 31.0889C35.2747 33.7153 32.081 35.4059 28.4998 35.4059C24.9218 35.4059 21.7297 33.7169 19.6799 31.0936C19.7461 35.8643 21.7092 40.1782 24.8446 43.3151C28.0382 46.5072 32.4497 48.4829 37.3229 48.4829C46.9826 48.4829 54.8303 40.7217 54.9658 31.0936Z" fill="#FF6F00"/>
<path d="M49.8013 6.06915C46.6077 2.8771 42.1961 0.901367 37.323 0.901367C30.3449 0.901367 24.3137 4.95052 21.4525 10.8273H53.1934C52.3316 9.05481 51.1799 7.44776 49.8013 6.06915V6.06915Z" fill="#FF6F00"/>
<path d="M73.7181 20.2806V15.554H61.3674L70.0943 6.82705L67.8013 2.59277L54.6823 15.554H19.9305C19.7635 16.5277 19.6769 17.5266 19.6769 18.5475V20.2917L73.7181 20.2806Z" fill="#FF6F00"/>
<path d="M45.6401 48.4829H37.3228H28.9661C21.3562 48.4829 14.4443 51.4812 9.35059 56.3606H65.2557C60.1635 51.4812 53.2516 48.4829 45.6401 48.4829Z" fill="#FF6F00"/>
<path d="M69.223 61.0874H5.38346C4.23489 62.8032 3.26908 64.6497 2.51282 66.6018H72.0936C71.3374 64.6497 70.3715 62.8032 69.223 61.0874Z" fill="#FF6F00"/>
<path d="M73.4628 71.3276H1.14371C0.790784 73.1112 0.606445 74.9545 0.606445 76.842V79.2054H74.0001V76.842C74.0001 74.9545 73.8157 73.1112 73.4628 71.3276V71.3276Z" fill="#FF6F00"/>
</svg>
