<svg width="65" height="77" viewBox="0 0 65 77" fill="none" xmlns="http://www.w3.org/2000/svg">
<path d="M32.5775 23.5742C24.5926 23.5742 18.0968 30.0701 18.0968 38.0543C18.0968 46.0392 24.5926 52.535 32.5775 52.535C40.5618 52.535 47.0576 46.0392 47.0576 38.0543C47.0576 30.0701 40.5618 23.5742 32.5775 23.5742ZM41.1747 35.3274L30.8009 45.7012C30.3654 46.1366 29.7943 46.3546 29.2238 46.3546C28.6532 46.3546 28.0827 46.1372 27.6472 45.7012L23.6829 41.7368C22.812 40.8665 22.812 39.4546 23.6829 38.5837C24.5532 37.7128 25.9651 37.7128 26.836 38.5837L29.2238 40.9715L38.0215 32.1743C38.8919 31.3034 40.3037 31.3034 41.1747 32.1743C42.0456 33.0446 42.0456 34.4565 41.1747 35.3274Z" fill="#FF6F00"/>
<path d="M64.861 20.6743L64.8587 20.6152C64.8256 19.8852 64.8036 19.1128 64.7903 18.2535C64.7282 14.0631 61.3971 10.5969 57.2061 10.3626C48.4681 9.87501 41.7084 7.02572 35.9327 1.39616L35.8834 1.34919C33.9996 -0.378117 31.1578 -0.378117 29.2734 1.34919L29.2241 1.39616C23.4484 7.02572 16.6888 9.87501 7.95075 10.3632C3.76032 10.5969 0.428621 14.0631 0.366579 18.2541C0.353823 19.1076 0.33121 19.88 0.29816 20.6152L0.294681 20.7526C0.124791 29.6628 -0.0862672 40.7521 3.62348 50.8173C5.66332 56.3524 8.75265 61.1638 12.8051 65.1188C17.4205 69.6229 23.4658 73.1988 30.7728 75.7465C31.0106 75.8294 31.2576 75.8967 31.5092 75.9471C31.8641 76.0179 32.2212 76.0533 32.5784 76.0533C32.9356 76.0533 33.2934 76.0179 33.6476 75.9471C33.8993 75.8967 34.148 75.8289 34.3869 75.7454C41.6852 73.193 47.7241 69.6154 52.3355 65.1119C56.3862 61.1557 59.4755 56.3431 61.5171 50.8069C65.2408 40.7115 65.0303 29.6014 64.861 20.6743ZM32.5773 56.9948C22.1334 56.9948 13.6371 48.4986 13.6371 38.0547C13.6371 27.6108 22.1334 19.1146 32.5773 19.1146C43.0206 19.1146 51.5174 27.6108 51.5174 38.0547C51.5174 48.4986 43.0206 56.9948 32.5773 56.9948Z" fill="#FF6F00"/>
</svg>
