<svg width="64" height="65" viewBox="0 0 64 65" fill="none" xmlns="http://www.w3.org/2000/svg">
<path d="M24.6665 0.0537109H4.6665C2.09326 0.0537109 0 2.14697 0 4.72021V16.7202C0 19.2939 2.09326 21.3872 4.6665 21.3872H24.6665C27.2402 21.3872 29.3335 19.2939 29.3335 16.7202V4.72021C29.3335 2.14697 27.2402 0.0537109 24.6665 0.0537109Z" fill="#FF6F00"/>
<path d="M24.6665 26.7197H4.6665C2.09326 26.7197 0 28.813 0 31.3867V59.3867C0 61.96 2.09326 64.0532 4.6665 64.0532H24.6665C27.2402 64.0532 29.3335 61.96 29.3335 59.3867V31.3867C29.3335 28.813 27.2402 26.7197 24.6665 26.7197V26.7197Z" fill="#FF6F00"/>
<path d="M59.3335 42.7197H39.3335C36.7598 42.7197 34.6665 44.813 34.6665 47.3867V59.3867C34.6665 61.96 36.7598 64.0532 39.3335 64.0532H59.3335C61.9067 64.0532 64 61.96 64 59.3867V47.3867C64 44.813 61.9067 42.7197 59.3335 42.7197V42.7197Z" fill="#FF6F00"/>
<path d="M59.3335 0.0537109H39.3335C36.7598 0.0537109 34.6665 2.14697 34.6665 4.72021V32.7202C34.6665 35.2939 36.7598 37.3872 39.3335 37.3872H59.3335C61.9067 37.3872 64 35.2939 64 32.7202V4.72021C64 2.14697 61.9067 0.0537109 59.3335 0.0537109V0.0537109Z" fill="#FF6F00"/>
</svg>
