<svg width="72" height="73" viewBox="0 0 72 73" fill="none" xmlns="http://www.w3.org/2000/svg">
<path d="M35.1566 27.2437C30.5404 27.2437 26.7849 30.9992 26.7849 35.6152C26.7849 40.2314 30.5404 43.9869 35.1566 43.9869C37.3177 43.9869 39.2901 43.1637 40.777 41.8142C40.9951 41.5809 41.2185 41.3528 41.4472 41.1299C42.7411 39.6558 43.5281 37.7263 43.5281 35.6152C43.5281 30.9992 39.7726 27.2437 35.1566 27.2437V27.2437Z" fill="#FF6F00"/>
<path d="M22.5663 35.6144C22.5663 28.672 28.2144 23.0241 35.1568 23.0241C42.0991 23.0241 47.7471 28.672 47.7471 35.6144C47.7471 36.0693 47.7222 36.5185 47.6749 36.961C49.162 36.3219 50.7394 35.8547 52.3821 35.5829C52.3649 26.099 44.6446 18.3887 35.1568 18.3887C25.6584 18.3887 17.9309 26.116 17.9309 35.6144C17.9309 45.1128 25.6584 52.8402 35.1568 52.8402C35.2608 52.8402 35.3636 52.8356 35.4673 52.8338C35.7065 51.1861 36.1425 49.6015 36.7508 48.1044C36.2286 48.1707 35.6966 48.205 35.1568 48.205C28.2144 48.2048 22.5663 42.5568 22.5663 35.6144V35.6144Z" fill="#FF6F00"/>
<path d="M55.7359 72.054C64.7039 72.054 71.9999 64.7579 71.9999 55.79C71.9999 46.8219 64.7039 39.5259 55.7359 39.5259C51.3916 39.5259 47.4396 41.238 44.5193 44.0229C44.2766 44.2929 44.0223 44.5522 43.7575 44.8003C41.0979 47.6969 39.4717 51.5569 39.4717 55.79C39.4717 64.7579 46.7677 72.054 55.7359 72.054ZM53.6366 44.6805H57.8553V53.6806H63.049V57.8994H53.6366V44.6805Z" fill="#FF6F00"/>
<path d="M35.2934 57.0566C35.2477 57.0569 35.2024 57.059 35.1567 57.059C23.3321 57.059 13.7121 47.439 13.7121 35.6144C13.7121 23.7898 23.3321 14.1699 35.1567 14.1699C46.8849 14.1699 56.4425 23.6341 56.5975 35.3263C61.9538 35.549 66.7848 37.838 70.3132 41.4157V28.4813L64.9908 27.6602C64.2628 24.7695 63.1232 22.0206 61.5894 19.4556L64.7741 15.1089L55.2579 5.59265L50.9112 8.77738C48.3465 7.24359 45.5974 6.10382 42.7065 5.37595L41.8856 0.0537109H28.4278L27.6067 5.37609C24.716 6.1041 21.967 7.24373 19.402 8.77752L15.0553 5.59279L5.53908 15.109L8.72381 19.4557C7.19002 22.0206 6.05025 24.7697 5.32237 27.6604L0 28.4813V41.9391L5.32237 42.7603C6.05039 45.6511 7.19002 48.4 8.72381 50.9649L5.53908 55.3116L15.0553 64.8278L19.402 61.6431C21.9669 63.1769 24.716 64.3167 27.6067 65.0445L28.4278 70.3669H41.3622C37.8747 66.9278 35.612 62.251 35.2934 57.0566Z" fill="#FF6F00"/>
</svg>
