<svg width="64" height="65" viewBox="0 0 64 65" fill="none" xmlns="http://www.w3.org/2000/svg">
<path d="M57.6001 6.45373H54.4001V3.25372C54.4001 1.33371 53.1201 0.0537109 51.2001 0.0537109C49.2801 0.0537109 48.0001 1.33371 48.0001 3.25372V6.45373H16V3.25372C16 1.33371 14.72 0.0537109 12.8 0.0537109C10.88 0.0537109 9.60002 1.33371 9.60002 3.25372V6.45373H3.20001C1.6 6.45373 0 7.73373 0 9.65373V54.4538C0 56.3738 1.6 57.6538 3.20001 57.6538H22.7201C20.4801 53.8138 19.2 49.3338 19.2 44.8538C19.2 30.7738 30.7201 19.2538 44.8001 19.2538C50.8801 19.2538 56.3201 21.4938 60.8002 25.0138V9.65373C60.8002 8.05373 59.2001 6.45373 57.6001 6.45373Z" fill="#FF6F00"/>
<path d="M44.8001 25.6533C34.2401 25.6533 25.6001 34.2933 25.6001 44.8534C25.6001 55.4134 34.2401 64.0534 44.8001 64.0534C55.3602 64.0534 64.0002 55.4134 64.0002 44.8534C64.0002 34.2933 55.3602 25.6533 44.8001 25.6533ZM51.2002 48.0534H44.8001C42.8801 48.0534 41.6001 46.7734 41.6001 44.8534V35.2533C41.6001 33.3333 42.8801 32.0533 44.8001 32.0533C46.7201 32.0533 48.0002 33.3333 48.0002 35.2533V41.6534H51.2002C53.1202 41.6534 54.4002 42.9334 54.4002 44.8534C54.4002 46.7734 53.1202 48.0534 51.2002 48.0534Z" fill="#FF6F00"/>
</svg>
