<svg width="88" height="56" viewBox="0 0 88 56" fill="none" xmlns="http://www.w3.org/2000/svg">
<path d="M81.7054 48.7627C81.7054 48.3315 81.6617 47.9011 81.575 47.4784C81.5573 47.3894 81.5152 47.3042 81.4937 47.2145C81.4139 46.8815 81.3088 46.5547 81.1791 46.237C80.738 45.2527 80.0544 44.3973 79.1913 43.7505C78.1118 42.9165 76.7845 42.4685 75.4204 42.4777C72.8671 42.47 70.5616 44.0029 69.5811 46.3598C68.6006 48.7174 69.1384 51.4334 70.9437 53.2387C72.7497 55.0439 75.4657 55.5825 77.8225 54.602C80.1802 53.6215 81.7131 51.3152 81.7054 48.7627V48.7627ZM75.4204 51.9052C73.6849 51.9052 72.2779 50.4982 72.2779 48.7627C72.2779 47.0265 73.6849 45.6202 75.4204 45.6202C77.1558 45.6202 78.5629 47.0265 78.5629 48.7627C78.5629 50.4982 77.1558 51.9052 75.4204 51.9052Z" fill="#FF6F00"/>
<path d="M20.4264 18.9092H14.4176L7.85632 28.2347V29.908H20.4264V18.9092Z" fill="#FF6F00"/>
<path d="M61.279 48.7628C61.279 48.3317 61.2353 47.9013 61.1486 47.4785C61.1233 47.3535 61.0673 47.2338 61.0343 47.1095C60.9637 46.8149 60.8732 46.5256 60.7619 46.2441C60.7335 46.1781 60.6929 46.1198 60.6614 46.0553C60.5617 45.8397 60.4504 45.6303 60.3284 45.427C60.2594 45.3196 60.1712 45.226 60.1037 45.1216C59.9985 44.9774 59.9011 44.8263 59.7891 44.6912C59.6778 44.5562 59.5336 44.4273 59.4016 44.2984C59.318 44.2155 59.2444 44.1242 59.1546 44.0475C58.9728 43.8925 58.7817 43.7475 58.5846 43.6133C58.5339 43.5788 58.4902 43.5366 58.438 43.502C58.1994 43.3478 57.9508 43.209 57.6931 43.087L57.6524 43.0655C57.4138 42.9558 57.1683 42.8614 56.9174 42.7839C56.8798 42.7716 56.8453 42.7525 56.8085 42.7417C53.758 41.8226 50.5019 43.3286 49.2261 46.2487C48.5356 47.8591 48.5356 49.682 49.2261 51.2923C50.2319 53.5794 52.4944 55.0555 54.9932 55.0555C57.492 55.0555 59.7546 53.5794 60.7604 51.2923C61.1033 50.4929 61.2798 49.6321 61.279 48.7628V48.7628ZM54.994 51.9054C53.2585 51.9054 51.8515 50.4983 51.8515 48.7628C51.8515 47.0266 53.2585 45.6203 54.994 45.6203C56.7294 45.6203 58.1365 47.0266 58.1365 48.7628C58.1365 50.4983 56.7294 51.9054 54.994 51.9054Z" fill="#FF6F00"/>
<path d="M20.4264 48.7628C20.4348 45.7791 18.3449 43.2012 15.4249 42.5921C12.5041 41.9829 9.55798 43.5104 8.3734 46.2486C7.68291 47.859 7.68291 49.6819 8.3734 51.2923C9.37922 53.5794 11.6417 55.0555 14.1406 55.0555C16.6394 55.0555 18.9019 53.5794 19.9077 51.2923C20.2507 50.4928 20.4271 49.632 20.4264 48.7628V48.7628ZM14.1413 51.9053C12.4059 51.9053 10.9988 50.4982 10.9988 48.7628C10.9988 47.0266 12.4059 45.6203 14.1413 45.6203C15.8768 45.6203 17.2838 47.0266 17.2838 48.7628C17.2838 50.4982 15.8768 51.9053 14.1413 51.9053Z" fill="#FF6F00"/>
<path d="M66.1232 47.1914H64.2911C64.3003 47.2443 64.2911 47.2996 64.3049 47.3479C64.4607 48.2816 64.4607 49.2337 64.3049 50.1674C64.2973 50.2204 64.3049 50.2756 64.2911 50.3239H66.1232C66.114 50.2695 66.1232 50.2127 66.1094 50.1559C65.9537 49.2253 65.9537 48.2747 66.1094 47.3433C66.1171 47.2996 66.114 47.2443 66.1232 47.1914Z" fill="#FF6F00"/>
<path d="M67.357 43.8914C67.4399 43.7564 67.5327 43.629 67.621 43.4986C67.7782 43.2615 67.9478 43.0268 68.1265 42.8104C68.2286 42.6861 68.3375 42.5695 68.4411 42.4506C68.6275 42.2465 68.8193 42.0486 69.0227 41.8614C69.1431 41.7494 69.2659 41.6427 69.3932 41.5376C69.6027 41.3658 69.816 41.2031 70.0323 41.0504C70.1712 40.9545 70.3077 40.8602 70.4504 40.7712C70.6752 40.6308 70.9077 40.5049 71.1432 40.3845C71.3005 40.307 71.444 40.2272 71.599 40.1597C71.8445 40.0492 72.0969 39.9602 72.3531 39.8704C72.5104 39.8167 72.6677 39.7577 72.825 39.7132C73.1073 39.6318 73.3966 39.5751 73.6873 39.5198C73.8254 39.493 73.9605 39.4554 74.1024 39.4354C75.0614 39.2943 76.0358 39.305 76.9917 39.4669C77.169 39.4953 77.3377 39.5544 77.5119 39.5942C77.8426 39.661 78.1702 39.7462 78.4924 39.8482C78.5147 39.8566 78.5392 39.8597 78.5615 39.8674V37.7637H43.9953V44.0487H46.8233C46.8547 43.9935 46.8977 43.9444 46.9307 43.8914C47.0135 43.7564 47.1064 43.629 47.1946 43.4986C47.3519 43.2615 47.5214 43.0268 47.7002 42.8104C47.8022 42.6861 47.9112 42.5695 48.0147 42.4506C48.2012 42.2465 48.393 42.0486 48.5963 41.8614C48.7167 41.7494 48.8395 41.6427 48.9669 41.5376C49.1763 41.3658 49.3896 41.2031 49.606 41.0504C49.7448 40.9545 49.8814 40.8602 50.0241 40.7712C50.2489 40.6308 50.4813 40.5049 50.7169 40.3845C50.8742 40.307 51.0176 40.2272 51.1726 40.1597C51.4181 40.0492 51.6705 39.9602 51.9268 39.8704C52.0841 39.8167 52.2413 39.7577 52.3986 39.7132C52.681 39.6318 52.9702 39.5751 53.261 39.5198C53.3991 39.493 53.5341 39.4554 53.676 39.4354C54.5522 39.305 55.4422 39.305 56.3183 39.4354C56.4618 39.4554 56.5984 39.493 56.7395 39.5198C57.0272 39.5751 57.3149 39.6318 57.5942 39.7116C57.7515 39.7592 57.9088 39.8221 58.066 39.8766C58.3154 39.9633 58.5624 40.0515 58.8026 40.1582C58.9598 40.2303 59.1171 40.3154 59.2744 40.3952C59.4992 40.5103 59.7202 40.6292 59.9342 40.7627C60.0915 40.8586 60.2388 40.9622 60.3899 41.0665C60.5925 41.2092 60.7904 41.3581 60.9822 41.5169C61.1249 41.635 61.2638 41.7563 61.3988 41.8813C61.5822 42.0516 61.7556 42.2304 61.9251 42.4145C62.051 42.5511 62.1745 42.6861 62.2911 42.8288C62.4484 43.0268 62.6057 43.2362 62.7468 43.448C62.8504 43.5976 62.957 43.7434 63.0514 43.9006C63.0844 43.9528 63.1235 43.9981 63.1535 44.0579H67.2389C67.2811 43.9935 67.324 43.9444 67.357 43.8914V43.8914Z" fill="#FF6F00"/>
<path d="M45.6969 47.1914H23.4385C23.4477 47.2459 23.4385 47.3027 23.4523 47.3594C23.608 48.2901 23.608 49.2406 23.4523 50.172C23.4523 50.225 23.4523 50.2802 23.4385 50.3286H45.6969C45.6877 50.2741 45.6969 50.2173 45.6831 50.1605C45.5274 49.2299 45.5274 48.2793 45.6831 47.3479C45.6908 47.2996 45.6877 47.2443 45.6969 47.1914Z" fill="#FF6F00"/>
<path d="M37.2122 6.33887C33.6792 15.4342 33.6761 25.5231 37.2023 34.6215H85.352C88.8812 25.5239 88.8812 15.4357 85.352 6.33887H53.4227V20.4802C53.4227 21.3479 52.7192 22.0515 51.8515 22.0515C50.9838 22.0515 50.2802 21.3479 50.2802 20.4802V18.9089H43.9952V20.4802C43.9952 21.3479 43.2917 22.0515 42.4239 22.0515C41.5562 22.0515 40.8527 21.3479 40.8527 20.4802V6.33887H37.2122Z" fill="#FF6F00"/>
<path d="M4.8442 47.1914H0V50.3339H4.8442C4.835 50.2787 4.8442 50.2219 4.83039 50.1651C4.67465 49.2345 4.67465 48.2839 4.83039 47.3533C4.83806 47.2996 4.835 47.2443 4.8442 47.1914Z" fill="#FF6F00"/>
<path d="M43.9953 6.33887H50.2803V9.48138H43.9953V6.33887Z" fill="#FF6F00"/>
<path d="M43.9953 12.6235H50.2803V15.7661H43.9953V12.6235Z" fill="#FF6F00"/>
<path d="M84.7175 50.3339H87.9904V47.1914H84.7175C84.7267 47.2443 84.7175 47.2996 84.7313 47.3479C84.887 48.2816 84.887 49.2337 84.7313 50.1674C84.7236 50.225 84.7267 50.2802 84.7175 50.3339Z" fill="#FF6F00"/>
<path d="M21.0832 42.4115C21.209 42.548 21.3333 42.6831 21.4492 42.8258C21.6064 43.0237 21.7637 43.2332 21.9049 43.4449C22.0085 43.5945 22.1159 43.7403 22.2095 43.8976C22.2425 43.9497 22.2823 43.995 22.3123 44.0548H26.7115V12.6235H11.8175L1.57135 27.2597V44.0487H5.97057C6.00202 43.9935 6.04499 43.9444 6.07798 43.8914C6.16084 43.7564 6.25367 43.629 6.3419 43.4986C6.49918 43.2615 6.66873 43.0268 6.8475 42.8104C6.94953 42.6861 7.05848 42.5695 7.16205 42.4506C7.34849 42.2465 7.54029 42.0486 7.7436 41.8614C7.86406 41.7494 7.98681 41.6427 8.11417 41.5376C8.32362 41.3657 8.53691 41.2031 8.75326 41.0504C8.89213 40.9545 9.02869 40.8602 9.17139 40.7712C9.39619 40.6308 9.62865 40.5049 9.86419 40.3845C10.0215 40.307 10.1649 40.2272 10.3199 40.1597C10.5654 40.0492 10.8178 39.9602 11.0741 39.8704C11.2314 39.8167 11.381 39.7577 11.5459 39.7132C11.8283 39.6318 12.1175 39.5751 12.4083 39.5198C12.5464 39.493 12.6814 39.4554 12.8233 39.4354C13.6995 39.305 14.5895 39.305 15.4656 39.4354C15.6091 39.4554 15.7457 39.493 15.8868 39.5198C16.1745 39.5751 16.4622 39.6318 16.7415 39.7116C16.8988 39.7592 17.0561 39.8221 17.2134 39.8766C17.4627 39.9633 17.7097 40.0515 17.9499 40.1582C18.1072 40.2303 18.2644 40.3154 18.4217 40.3952C18.6465 40.5103 18.8675 40.6292 19.0815 40.7627C19.2388 40.8586 19.3861 40.9622 19.5372 41.0665C19.7398 41.2092 19.9377 41.3581 20.1295 41.5169C20.2722 41.635 20.4111 41.7563 20.5461 41.8813C20.741 42.0486 20.9136 42.2273 21.0832 42.4115ZM4.71387 27.7354C4.7131 27.4124 4.81361 27.0963 5.00004 26.8324L12.317 16.4335C12.6116 16.0146 13.0911 15.7661 13.6028 15.7661H21.9977C22.8654 15.7661 23.569 16.4696 23.569 17.3373V31.4786C23.569 32.3464 22.8654 33.0499 21.9977 33.0499H6.28513C5.4174 33.0499 4.71387 32.3464 4.71387 31.4786V27.7354ZM6.28513 37.7637C5.4174 37.7637 4.71387 37.0601 4.71387 36.1924C4.71387 35.3247 5.4174 34.6212 6.28513 34.6212H21.9977C22.8654 34.6212 23.569 35.3247 23.569 36.1924C23.569 37.0601 22.8654 37.7637 21.9977 37.7637H6.28513Z" fill="#FF6F00"/>
<path d="M72.278 1.625H78.563V3.19626H72.278V1.625Z" fill="#FF6F00"/>
<path d="M42.4239 0.0537109C41.5562 0.0537109 40.8527 0.757248 40.8527 1.62497V3.19623H43.9952V1.62497C43.9952 0.757248 43.2916 0.0537109 42.4239 0.0537109V0.0537109Z" fill="#FF6F00"/>
<path d="M53.4228 1.62497C53.4228 0.757248 52.7193 0.0537109 51.8515 0.0537109C50.9838 0.0537109 50.2803 0.757248 50.2803 1.62497V3.19623H53.4228V1.62497Z" fill="#FF6F00"/>
</svg>
