<svg width="65" height="62" viewBox="0 0 65 62" fill="none" xmlns="http://www.w3.org/2000/svg">
<path d="M15.0727 11.8397L40.7857 4.82109L39.424 2.06871C38.5331 0.279666 36.3602 -0.459131 34.5711 0.431771L11.5526 11.8397H15.0727Z" fill="#FF6F00"/>
<path d="M48.7677 5.02441C48.4491 5.02441 48.1303 5.06787 47.8116 5.15479L41.771 6.80622L23.3227 11.8402H44.2625H53.3888L52.2589 7.69712C51.8243 6.08191 50.3612 5.02441 48.7677 5.02441Z" fill="#FF6F00"/>
<path d="M57.1626 14.3745H56.3369H55.2142H54.0915H45.5229H14.0371H9.90857H6.43188H5.78724H3.6288C2.48439 14.3745 1.46311 14.9033 0.796742 15.7362C0.492531 16.1201 0.260752 16.5619 0.130376 17.0472C0.0507018 17.3514 0 17.6701 0 17.9961V18.4307V22.5592V58.3474C0 60.3466 1.62246 61.969 3.62155 61.969H57.1554C59.1545 61.969 60.7769 60.3466 60.7769 58.3474V48.2433H39.2866C35.8896 48.2433 33.13 45.4837 33.13 42.0866V38.7693V37.6466V36.5239V34.0323C33.13 32.3664 33.7963 30.8527 34.8756 29.7445C35.8317 28.7593 37.1137 28.093 38.5478 27.9264C38.7868 27.8975 39.0331 27.8829 39.2794 27.8829H57.7638H58.8865H60.0092H60.7769V17.9961C60.7842 15.997 59.1617 14.3745 57.1626 14.3745Z" fill="#FF6F00"/>
<path d="M63.319 31.346C62.9569 31.0128 62.5295 30.7593 62.0515 30.5927C61.682 30.4696 61.291 30.3972 60.8781 30.3972H60.784H60.7115H59.5888H55.5399H39.2864C37.2872 30.3972 35.6649 32.0196 35.6649 34.0188V35.8222V36.9449V38.0676V42.0803C35.6649 44.0794 37.2872 45.7018 39.2864 45.7018H60.784H60.8781C61.291 45.7018 61.6821 45.6294 62.0515 45.5063C62.5295 45.3469 62.9569 45.0862 63.319 44.753C64.0434 44.0939 64.4997 43.1378 64.4997 42.0804V34.0188C64.4997 32.9612 64.0434 32.005 63.319 31.346ZM46.8482 38.7702C46.8482 39.7697 46.037 40.581 45.0374 40.581H43.8351C42.8355 40.581 42.0243 39.7697 42.0243 38.7702V37.5678C42.0243 36.9884 42.2923 36.474 42.7196 36.1481C43.0311 35.9091 43.4151 35.757 43.8351 35.757H44.1393H45.0374C46.037 35.757 46.8482 36.5682 46.8482 37.5678V38.7702Z" fill="#FF6F00"/>
</svg>
