<svg width="59" height="60" viewBox="0 0 59 60" fill="none" xmlns="http://www.w3.org/2000/svg">
<path d="M54.0833 39.3872C53.5403 39.3872 53.1 39.8275 53.1 40.3705V57.087H46.2167C45.6737 57.087 45.2334 57.5273 45.2334 58.0703C45.2334 58.6133 45.6737 59.0536 46.2167 59.0536H54.0833C54.6263 59.0536 55.0666 58.6133 55.0666 58.0703V40.3705C55.0666 39.8275 54.6292 39.3872 54.0833 39.3872Z" fill="#F57329"/>
<path d="M51.1332 48.2371V40.3705C51.1332 39.8275 50.6929 39.3872 50.1498 39.3872H44.2499C43.7069 39.3872 43.2666 39.8275 43.2666 40.3705V48.2371C43.2666 48.7801 43.7069 49.2204 44.2499 49.2204H50.1498C50.6958 49.2204 51.1332 48.7801 51.1332 48.2371ZM49.1665 47.2538H45.2332V41.3538H49.1665V47.2538Z" fill="#F57329"/>
<path d="M38.3498 16.7709C38.8928 16.7709 39.3331 16.3306 39.3331 15.7876V10.871C39.3331 10.328 38.8928 9.8877 38.3498 9.8877H8.85014C8.30711 9.8877 7.86682 10.328 7.86682 10.871V45.2873C7.86682 45.8303 8.30711 46.2706 8.85014 46.2706C9.39317 46.2706 9.83346 45.8303 9.83346 45.2873V43.3206H10.8168C11.3598 43.3206 11.8001 42.8803 11.8001 42.3373C11.8001 41.7943 11.3598 41.354 10.8168 41.354H9.83346V35.454H13.7667V39.3873C13.7667 39.9304 14.207 40.3707 14.7501 40.3707C15.2931 40.3707 15.7334 39.9304 15.7334 39.3873V35.454H19.6667C20.2097 35.454 20.65 35.0138 20.65 34.4707C21.193 34.4707 21.6333 34.0304 21.6333 33.4874V27.5875H25.5666C25.5666 28.1305 26.0069 28.5708 26.5499 28.5708C27.093 28.5708 27.5332 28.1305 27.5332 27.5875C28.0763 27.5875 28.5166 27.1472 28.5166 26.6042C28.5166 26.0611 28.0763 25.6208 27.5332 25.6208V19.7209H31.4665V21.6875C31.4665 22.2306 31.9068 22.6709 32.4498 22.6709C32.9929 22.6709 33.4332 22.2306 33.4332 21.6875V19.7209H35.3998C35.9428 19.7209 36.3831 19.2806 36.3831 18.7376C36.3831 18.1946 35.9428 17.7543 35.3998 17.7543H33.4332V11.8543H37.3665V15.7876C37.3665 16.3306 37.8067 16.7709 38.3498 16.7709ZM13.7667 33.4874H9.83346V27.5875H13.7667V33.4874ZM13.7667 25.6208H9.83346V19.7209H13.7667V25.6208ZM13.7667 17.7543H9.83346V11.8543H13.7667V17.7543ZM19.6667 33.4874H15.7334V27.5875H19.6667V33.4874ZM19.6667 25.6208H15.7334V19.7209H19.6667V25.6208ZM19.6667 17.7543H15.7334V11.8543H19.6667V17.7543ZM25.5666 25.6208H21.6333V19.7209H25.5666V25.6208ZM25.5666 17.7543H21.6333V11.8543H25.5666V17.7543ZM31.4665 17.7543H27.5332V11.8543H31.4665V17.7543Z" fill="#F57329"/>
<path d="M4.91679 50.2038C5.45982 50.2038 5.90011 49.7635 5.90011 49.2205V7.92101H12.7834C13.3264 7.92101 13.7667 7.48072 13.7667 6.93769V3.98773H20.6499C21.193 3.98773 21.6333 3.54744 21.6333 3.00441V2.02109H25.5665V3.00441C25.5665 3.54744 26.0068 3.98773 26.5499 3.98773H33.4331V5.95437H16.7166C16.1736 5.95437 15.7333 6.39466 15.7333 6.93769C15.7333 7.48072 16.1736 7.92101 16.7166 7.92101H41.2997V11.8543C41.2997 12.3973 41.74 12.8376 42.283 12.8376C42.826 12.8376 43.2663 12.3973 43.2663 11.8543V6.93769C43.2663 6.39466 42.826 5.95437 42.283 5.95437H35.3997V3.00441C35.3997 2.46138 34.9594 2.02109 34.4164 2.02109H27.5332V1.03776C27.5332 0.494736 27.0929 0.0544434 26.5499 0.0544434H20.6499C20.1069 0.0544434 19.6666 0.494736 19.6666 1.03776V2.02109H12.7863C12.2433 2.02109 11.803 2.46138 11.803 3.00441V5.95437H4.91679C4.37376 5.95437 3.93347 6.39466 3.93347 6.93769V49.2205C3.93347 49.7635 4.37376 50.2038 4.91679 50.2038Z" fill="#F57329"/>
<path d="M58.0166 21.6876H51.1333V20.7043C51.1333 20.1612 50.693 19.7209 50.15 19.7209H46.2167C45.6737 19.7209 45.2334 20.1612 45.2334 20.7043V22.6709C45.2334 23.2139 45.6737 23.6542 46.2167 23.6542C46.7597 23.6542 47.2 23.2139 47.2 22.6709V21.6876H49.1667V22.6709C49.1667 23.2139 49.607 23.6542 50.15 23.6542H57.0332V37.0127L41.9958 21.9752C41.6112 21.5907 40.989 21.5907 40.6044 21.9752C40.2199 22.3598 40.2199 22.9821 40.6044 23.3666L57.3209 40.083C57.5087 40.2709 57.7612 40.3707 58.0166 40.3707C58.1428 40.3707 58.2719 40.3472 58.3923 40.2973C58.7592 40.1447 58.9999 39.7866 58.9999 39.3874V22.6709C58.9999 22.1279 58.5625 21.6876 58.0166 21.6876Z" fill="#F57329"/>
<path d="M42.2833 55.1203H32.45C31.907 55.1203 31.4667 55.5606 31.4667 56.1037V57.087H21.6335V43.3205C21.6335 42.7774 21.1932 42.3372 20.6502 42.3372C20.1072 42.3372 19.6669 42.7774 19.6669 43.3205V58.0703C19.6669 58.6133 20.1072 59.0536 20.6502 59.0536H32.45C32.9931 59.0536 33.4334 58.6133 33.4334 58.0703V57.087H41.2999V58.0703C41.2999 58.6133 41.7402 59.0536 42.2833 59.0536C42.8263 59.0536 43.2666 58.6133 43.2666 58.0703V56.1037C43.2666 55.5606 42.8292 55.1203 42.2833 55.1203Z" fill="#F57329"/>
<path d="M58.7123 0.342103C58.3278 -0.0424197 57.7055 -0.0424197 57.321 0.342103L0.288392 57.3747C-0.0961306 57.7592 -0.0961306 58.3815 0.288392 58.7661C0.479186 58.9568 0.73162 59.0537 0.984055 59.0537C1.23649 59.0537 1.48892 58.9568 1.67972 58.7661L58.7123 1.73343C59.0969 1.34891 59.0969 0.726625 58.7123 0.342103Z" fill="#F57329"/>
<path d="M40.3166 53.1537C40.8596 53.1537 41.2999 52.7134 41.2999 52.1704V40.3705C41.2999 39.8275 40.8596 39.3872 40.3166 39.3872H34.4167C33.8736 39.3872 33.4333 39.8275 33.4333 40.3705V52.1704C33.4333 52.7134 33.8736 53.1537 34.4167 53.1537C34.9597 53.1537 35.4 52.7134 35.4 52.1704V41.3538H39.3333V45.2871H38.35C37.8069 45.2871 37.3666 45.7274 37.3666 46.2705C37.3666 46.8135 37.8069 47.2538 38.35 47.2538H39.3333V52.1704C39.3333 52.7134 39.7736 53.1537 40.3166 53.1537Z" fill="#F57329"/>
<path d="M24.5839 39.3872C24.0409 39.3872 23.6006 39.8275 23.6006 40.3705V48.2371C23.6006 48.7801 24.0409 49.2204 24.5839 49.2204H30.4838C31.0269 49.2204 31.4672 48.7801 31.4672 48.2371V40.3705C31.4672 39.8275 31.0269 39.3872 30.4838 39.3872H24.5839ZM29.5005 47.2538H25.5672V41.3538H29.5005V47.2538Z" fill="#F57329"/>
</svg>
