<svg width="59" height="60" viewBox="0 0 59 60" fill="none" xmlns="http://www.w3.org/2000/svg">
<path d="M58.0167 17.7537H45.2333V1.03704C45.2333 0.493261 44.7928 0.0537109 44.25 0.0537109H14.75C14.2072 0.0537109 13.7667 0.493261 13.7667 1.03704V17.7537H0.983333C0.440533 17.7537 0 18.1933 0 18.737V58.0704C0 58.6142 0.440533 59.0537 0.983333 59.0537H58.0167C58.5595 59.0537 59 58.6142 59 58.0704V18.737C59 18.1933 58.5595 17.7537 58.0167 17.7537ZM1.96667 19.7204H13.7667V57.087H1.96667V19.7204ZM32.45 47.2537V57.087H26.55V47.2537H32.45ZM43.2667 57.087H34.4167V47.2537H36.3833V45.287H22.6167V47.2537H24.5833V57.087H15.7333V2.02038H43.2667V57.087ZM57.0333 57.087H45.2333V19.7204H57.0333V57.087Z" fill="#F57329"/>
<path d="M48.1835 29.5537H54.0835C54.6263 29.5537 55.0669 29.1141 55.0669 28.5703V22.6703C55.0669 22.1266 54.6263 21.687 54.0835 21.687H48.1835C47.6407 21.687 47.2002 22.1266 47.2002 22.6703V28.5703C47.2002 29.1141 47.6407 29.5537 48.1835 29.5537ZM49.1669 23.6537H53.1002V27.587H49.1669V23.6537Z" fill="#F57329"/>
<path d="M48.1835 39.3869H54.0835C54.6263 39.3869 55.0669 38.9474 55.0669 38.4036V32.5036C55.0669 31.9598 54.6263 31.5203 54.0835 31.5203H48.1835C47.6407 31.5203 47.2002 31.9598 47.2002 32.5036V38.4036C47.2002 38.9474 47.6407 39.3869 48.1835 39.3869ZM49.1669 33.4869H53.1002V37.4203H49.1669V33.4869Z" fill="#F57329"/>
<path d="M48.1835 49.2204H54.0835C54.6263 49.2204 55.0669 48.7809 55.0669 48.2371V42.3371C55.0669 41.7933 54.6263 41.3538 54.0835 41.3538H48.1835C47.6407 41.3538 47.2002 41.7933 47.2002 42.3371V48.2371C47.2002 48.7809 47.6407 49.2204 48.1835 49.2204ZM49.1669 43.3204H53.1002V47.2538H49.1669V43.3204Z" fill="#F57329"/>
<path d="M10.8166 21.687H4.91656C4.37376 21.687 3.93323 22.1266 3.93323 22.6703V28.5703C3.93323 29.1141 4.37376 29.5537 4.91656 29.5537H10.8166C11.3594 29.5537 11.7999 29.1141 11.7999 28.5703V22.6703C11.7999 22.1266 11.3594 21.687 10.8166 21.687ZM9.83323 27.587H5.89989V23.6537H9.83323V27.587Z" fill="#F57329"/>
<path d="M18.6835 25.6205H22.6169C23.1597 25.6205 23.6002 25.1809 23.6002 24.6371V20.7038C23.6002 20.16 23.1597 19.7205 22.6169 19.7205H18.6835C18.1407 19.7205 17.7002 20.16 17.7002 20.7038V24.6371C17.7002 25.1809 18.1407 25.6205 18.6835 25.6205ZM19.6669 21.6871H21.6335V23.6538H19.6669V21.6871Z" fill="#F57329"/>
<path d="M31.4665 19.7205H27.5331C26.9903 19.7205 26.5498 20.16 26.5498 20.7038V24.6371C26.5498 25.1809 26.9903 25.6205 27.5331 25.6205H31.4665C32.0093 25.6205 32.4498 25.1809 32.4498 24.6371V20.7038C32.4498 20.16 32.0093 19.7205 31.4665 19.7205ZM30.4831 23.6538H28.5165V21.6871H30.4831V23.6538Z" fill="#F57329"/>
<path d="M35.3999 20.7038V24.6371C35.3999 25.1809 35.8404 25.6205 36.3832 25.6205H40.3166C40.8594 25.6205 41.2999 25.1809 41.2999 24.6371V20.7038C41.2999 20.16 40.8594 19.7205 40.3166 19.7205H36.3832C35.8404 19.7205 35.3999 20.16 35.3999 20.7038ZM37.3666 21.6871H39.3332V23.6538H37.3666V21.6871Z" fill="#F57329"/>
<path d="M18.6835 33.4872H22.6169C23.1597 33.4872 23.6002 33.0476 23.6002 32.5038V28.5705C23.6002 28.0267 23.1597 27.5872 22.6169 27.5872H18.6835C18.1407 27.5872 17.7002 28.0267 17.7002 28.5705V32.5038C17.7002 33.0476 18.1407 33.4872 18.6835 33.4872ZM19.6669 29.5538H21.6335V31.5205H19.6669V29.5538Z" fill="#F57329"/>
<path d="M31.4665 27.5872H27.5331C26.9903 27.5872 26.5498 28.0267 26.5498 28.5705V32.5038C26.5498 33.0476 26.9903 33.4872 27.5331 33.4872H31.4665C32.0093 33.4872 32.4498 33.0476 32.4498 32.5038V28.5705C32.4498 28.0267 32.0093 27.5872 31.4665 27.5872ZM30.4831 31.5205H28.5165V29.5538H30.4831V31.5205Z" fill="#F57329"/>
<path d="M40.3166 27.5872H36.3832C35.8404 27.5872 35.3999 28.0267 35.3999 28.5705V32.5038C35.3999 33.0476 35.8404 33.4872 36.3832 33.4872H40.3166C40.8594 33.4872 41.2999 33.0476 41.2999 32.5038V28.5705C41.2999 28.0267 40.8594 27.5872 40.3166 27.5872ZM39.3332 31.5205H37.3666V29.5538H39.3332V31.5205Z" fill="#F57329"/>
<path d="M18.6835 41.3536H22.6169C23.1597 41.3536 23.6002 40.9141 23.6002 40.3703V36.4369C23.6002 35.8932 23.1597 35.4536 22.6169 35.4536H18.6835C18.1407 35.4536 17.7002 35.8932 17.7002 36.4369V40.3703C17.7002 40.9141 18.1407 41.3536 18.6835 41.3536ZM19.6669 37.4203H21.6335V39.3869H19.6669V37.4203Z" fill="#F57329"/>
<path d="M31.4665 35.4536H27.5331C26.9903 35.4536 26.5498 35.8932 26.5498 36.4369V40.3703C26.5498 40.9141 26.9903 41.3536 27.5331 41.3536H31.4665C32.0093 41.3536 32.4498 40.9141 32.4498 40.3703V36.4369C32.4498 35.8932 32.0093 35.4536 31.4665 35.4536ZM30.4831 39.3869H28.5165V37.4203H30.4831V39.3869Z" fill="#F57329"/>
<path d="M40.3166 35.4536H36.3832C35.8404 35.4536 35.3999 35.8932 35.3999 36.4369V40.3703C35.3999 40.9141 35.8404 41.3536 36.3832 41.3536H40.3166C40.8594 41.3536 41.2999 40.9141 41.2999 40.3703V36.4369C41.2999 35.8932 40.8594 35.4536 40.3166 35.4536ZM39.3332 39.3869H37.3666V37.4203H39.3332V39.3869Z" fill="#F57329"/>
<path d="M10.8166 31.5203H4.91656C4.37376 31.5203 3.93323 31.9598 3.93323 32.5036V38.4036C3.93323 38.9474 4.37376 39.3869 4.91656 39.3869H10.8166C11.3594 39.3869 11.7999 38.9474 11.7999 38.4036V32.5036C11.7999 31.9598 11.3594 31.5203 10.8166 31.5203ZM9.83323 37.4203H5.89989V33.4869H9.83323V37.4203Z" fill="#F57329"/>
<path d="M10.8166 41.3538H4.91656C4.37376 41.3538 3.93323 41.7933 3.93323 42.3371V48.2371C3.93323 48.7809 4.37376 49.2204 4.91656 49.2204H10.8166C11.3594 49.2204 11.7999 48.7809 11.7999 48.2371V42.3371C11.7999 41.7933 11.3594 41.3538 10.8166 41.3538ZM9.83323 47.2538H5.89989V43.3204H9.83323V47.2538Z" fill="#F57329"/>
<path d="M23.5999 13.8204H26.5499V16.7704C26.5499 17.3142 26.9904 17.7537 27.5332 17.7537H31.4666C32.0094 17.7537 32.4499 17.3142 32.4499 16.7704V13.8204H35.3999C35.9427 13.8204 36.3832 13.3808 36.3832 12.8371V8.90373C36.3832 8.35994 35.9427 7.92039 35.3999 7.92039H32.4499V4.97039C32.4499 4.42661 32.0094 3.98706 31.4666 3.98706H27.5332C26.9904 3.98706 26.5499 4.42661 26.5499 4.97039V7.92039H23.5999C23.0571 7.92039 22.6166 8.35994 22.6166 8.90373V12.8371C22.6166 13.3808 23.0571 13.8204 23.5999 13.8204ZM24.5832 9.88706H27.5332C28.076 9.88706 28.5166 9.44751 28.5166 8.90373V5.95373H30.4832V8.90373C30.4832 9.44751 30.9238 9.88706 31.4666 9.88706H34.4166V11.8537H31.4666C30.9238 11.8537 30.4832 12.2933 30.4832 12.8371V15.7871H28.5166V12.8371C28.5166 12.2933 28.076 11.8537 27.5332 11.8537H24.5832V9.88706Z" fill="#F57329"/>
<path d="M39.3336 53.1538H41.3003V55.1205H39.3336V53.1538Z" fill="#F57329"/>
<path d="M39.3336 49.2205H41.3003V51.1871H39.3336V49.2205Z" fill="#F57329"/>
<path d="M39.3336 45.2871H41.3003V47.2538H39.3336V45.2871Z" fill="#F57329"/>
</svg>
