<svg width="59" height="60" viewBox="0 0 59 60" fill="none" xmlns="http://www.w3.org/2000/svg">
<path d="M19.9266 31.7535C20.4039 31.7535 20.7923 31.3681 20.7923 30.8878C20.7923 30.4075 20.4069 30.0221 19.9266 30.0221H16.0249V27.4308C16.0249 26.9535 15.6394 26.5651 15.1591 26.5651C14.6818 26.5651 14.2934 26.9505 14.2934 27.4308V30.0221H11.2574V20.0425C11.2574 19.405 10.7623 18.9099 10.1338 18.9099H1.27191C0.557389 18.9099 0 19.5266 0 20.3182V57.6453C0 58.434 0.560354 59.0536 1.27191 59.0536H19.5174C20.2201 59.0536 20.7894 58.4221 20.7894 57.6453V48.6856C20.7894 48.2083 20.4039 47.8199 19.9236 47.8199C19.4463 47.8199 19.0579 48.2053 19.0579 48.6856V57.3251H1.72255V20.6384H9.52597V22.8146H6.60563C6.12829 22.8146 5.7399 23.2 5.7399 23.6803C5.7399 24.1606 6.12533 24.546 6.60563 24.546H9.52597V27.6858H6.90805C6.43071 27.6858 6.0423 28.0712 6.0423 28.5515C6.0423 29.0289 6.42774 29.4172 6.90805 29.4172H9.52597V37.0546C9.52597 37.532 9.91141 37.9204 10.3917 37.9204H19.0579V44.6742C19.0579 45.1516 19.4433 45.54 19.9236 45.54C20.4009 45.54 20.7894 45.1545 20.7894 44.6742V37.3244C20.7894 36.6247 20.1875 36.1919 19.6271 36.1919H16.0219V31.7654H19.9266V31.7535ZM14.2964 36.18H11.2604V31.7535H14.2964V36.18Z" fill="#F57329"/>
<path d="M49.3999 40.0225V35.7561V27.9379V25.4445V15.8503V15.1328V10.6707H51.0839C51.8696 10.6707 52.507 10.0333 52.507 9.24762V9.16758H56.9839C57.3664 9.16758 57.7192 9.04306 57.9919 8.83849C58.0423 8.80587 58.0898 8.76733 58.1313 8.72285C58.1402 8.71396 58.1491 8.7021 58.158 8.69024C58.41 8.43824 58.5612 8.1032 58.5612 7.73853V2.98592C58.5612 2.19727 57.8526 1.55687 56.9809 1.55687H52.5041V1.47682C52.5041 0.691144 51.8637 0.0537109 51.0809 0.0537109H40.0903C39.3047 0.0537109 38.6672 0.691144 38.6672 1.47682V1.55687H37.0336H27.4187H27.4157H26.6982H14.326C13.4543 1.55687 12.7428 2.19727 12.7428 2.98592V7.73853C12.7428 8.52717 13.4514 9.16758 14.326 9.16758H18.4382V12.1472L15.2421 15.5449H14.4535C13.6975 15.5449 13.0808 16.1586 13.0808 16.9147V20.9557C13.0808 21.7147 13.6975 22.3284 14.4535 22.3284H24.1544C24.9134 22.3284 25.5301 21.7118 25.5301 20.9557V16.9147C25.5301 16.1586 24.9134 15.5449 24.1544 15.5449H23.3687L20.1726 12.1472V9.16758H26.7041H37.0395H38.6731V9.24762C38.6731 10.0333 39.3136 10.6707 40.0963 10.6707H41.7803V15.1328V25.4445V35.7561V45.205H39.0704C37.8726 45.205 36.8972 46.1775 36.8972 47.3753V53.0114H35.9485C34.2793 53.0114 32.9214 54.3663 32.9214 56.0326V57.6069C32.9214 58.4014 33.5707 59.0507 34.3682 59.0507H57.0817C57.8793 59.0507 58.5256 58.4044 58.5256 57.6069V56.0326C58.5256 54.3663 57.1707 53.0114 55.5015 53.0114H54.5527V47.3753C54.5527 46.1775 53.5773 45.205 52.3766 45.205H49.3969V40.0225C49.3999 40.0255 49.3999 40.0255 49.3999 40.0225ZM56.8357 3.2824V6.25612L53.773 3.2824H56.8357ZM52.507 4.4624L55.5726 7.43612H52.507V4.4624ZM14.4713 7.43612V3.2824H14.9516L19.2298 7.43612H14.4713ZM23.7957 17.2704V20.5999H14.8063V17.2704H23.7957ZM20.988 15.5419H17.611L19.298 13.7482L20.988 15.5419ZM17.4302 3.2824H25.284L21.3556 7.09517L17.4302 3.2824ZM26.6953 7.43612H23.4873L27.4157 3.62335L31.3441 7.43612H26.6953ZM29.5445 3.2824H37.0306H37.3983L33.4699 7.09517L29.5445 3.2824ZM37.0306 7.43612H35.6016L38.6643 4.4624V7.43612H37.0306ZM52.3766 46.9335C52.6226 46.9335 52.8243 47.1321 52.8243 47.3753V53.0114H47.7929C47.3156 53.0114 46.9272 53.3968 46.9272 53.8771C46.9272 54.3574 47.3126 54.7429 47.7929 54.7429H55.5015C56.216 54.7429 56.7971 55.324 56.7971 56.0355V57.3252H34.6469V56.0355C34.6469 55.321 35.228 54.7429 35.9455 54.7429H43.6096C44.0869 54.7429 44.4753 54.3574 44.4753 53.8771C44.4753 53.3968 44.0899 53.0114 43.6096 53.0114H38.6227V47.3753C38.6227 47.1351 38.8273 46.9335 39.0675 46.9335H42.6401H48.5371H52.3766ZM47.3275 15.8473L43.5028 19.7668V15.1298V11.9249L47.3275 15.8473ZM44.6888 10.6678H47.6714V13.7245L44.6888 10.6678ZM47.6714 17.9701V25.4415V25.8091L43.8468 21.8896L47.6714 17.9701ZM47.3275 27.9349L43.5028 31.8544V25.4415V24.0125L47.3275 27.9349ZM47.6714 30.0607V35.7561V37.8997L43.8468 33.9802L47.6714 30.0607ZM47.3275 40.0255L43.5028 43.945V36.103L47.3275 40.0255ZM47.6714 42.1483V45.205H44.6888L47.6714 42.1483ZM48.5341 8.93929H42.649C42.649 8.93929 42.649 8.93929 42.646 8.93929H42.6371H40.3927V1.77923H50.7756V8.93929H48.5341Z" fill="#F57329"/>
<path d="M16.9916 41.7836C16.9916 41.0721 16.4134 40.491 15.7019 40.491H5.09077C4.37922 40.491 3.7981 41.0691 3.7981 41.7836V45.3088C3.7981 46.0204 4.37922 46.6015 5.09077 46.6015H15.7019C16.4134 46.6015 16.9916 46.0233 16.9916 45.3088V41.7836ZM9.53207 44.873H5.52659V42.2224H9.53207V44.873ZM15.2631 44.873H11.2606V42.2224H15.2631V44.873Z" fill="#F57329"/>
<path d="M15.7019 49.1838H5.09077C4.37922 49.1838 3.7981 49.762 3.7981 50.4765V54.0017C3.7981 54.7132 4.37922 55.2943 5.09077 55.2943H15.7019C16.4134 55.2943 16.9916 54.7162 16.9916 54.0017V50.4765C16.9916 49.762 16.4134 49.1838 15.7019 49.1838ZM9.53207 53.5629H5.52659V50.9123H9.53207V53.5629ZM15.2631 53.5629H11.2606V50.9123H15.2631V53.5629Z" fill="#F57329"/>
</svg>
