<svg width="68" height="69" viewBox="0 0 68 69" fill="none" xmlns="http://www.w3.org/2000/svg">
<path d="M66.9032 61.4731H65.8064V1.15049C65.8064 0.545066 65.3162 0.0537109 64.7097 0.0537109H25.2258C24.6193 0.0537109 24.129 0.545066 24.129 1.15049V19.7956H3.29032C2.68381 19.7956 2.19355 20.287 2.19355 20.8924V61.4731H1.09677C0.490258 61.4731 0 61.9644 0 62.5698V66.9569C0 67.5624 0.490258 68.0537 1.09677 68.0537H66.9032C67.5097 68.0537 68 67.5624 68 66.9569V62.5698C68 61.9644 67.5097 61.4731 66.9032 61.4731ZM50.4516 61.4731V55.9892C50.4516 52.9654 47.9916 50.5053 44.9677 50.5053C41.9439 50.5053 39.4839 52.9654 39.4839 55.9892V61.4731H37.2903V48.3118H63.6129V61.4731H50.4516ZM48.2581 61.4731H41.6774V55.9892C41.6774 54.1751 43.1537 52.6989 44.9677 52.6989C46.7818 52.6989 48.2581 54.1751 48.2581 55.9892V61.4731ZM37.2903 21.9892H41.6774V28.5698H37.2903V21.9892ZM37.2903 35.1505H41.6774V41.7311H37.2903V35.1505ZM35.0968 35.1505H26.3226V26.3763H35.0968V35.1505ZM24.129 35.1505H15.3548V26.3763H24.129V35.1505ZM13.1613 35.1505H4.3871V26.3763H13.1613V35.1505ZM13.1613 37.344V46.1182H4.3871V37.344H13.1613ZM15.3548 37.344H24.129V46.1182H15.3548V37.344ZM26.3226 37.344H35.0968V46.1182H26.3226V37.344ZM63.6129 2.24726V15.4086H26.3226V2.24726H63.6129ZM26.3226 17.6021H63.6129V46.1182H37.2903V43.9247H42.7742C43.3807 43.9247 43.871 43.4333 43.871 42.8279V34.0537C43.871 33.4483 43.3807 32.9569 42.7742 32.9569H37.2903V30.7634H42.7742C43.3807 30.7634 43.871 30.272 43.871 29.6666V20.8924C43.871 20.287 43.3807 19.7956 42.7742 19.7956H36.1936H26.3226V17.6021ZM35.0968 21.9892V24.1827H4.3871V21.9892H35.0968ZM4.3871 48.3118H35.0968V61.4731H27.4194V51.6021C27.4194 50.9967 26.9291 50.5053 26.3226 50.5053H13.1613C12.5548 50.5053 12.0645 50.9967 12.0645 51.6021V61.4731H4.3871V48.3118ZM14.2581 61.4731V52.6989H18.6452V61.4731H14.2581ZM20.8387 52.6989H25.2258V61.4731H20.8387V52.6989ZM65.8064 65.8602H2.19355V63.6666H13.1613H26.3226H65.8064V65.8602Z" fill="#FF6F00"/>
<path d="M32.9032 10.1835L33.0184 10.415C33.3913 11.1586 34.6076 11.1586 34.9805 10.415L35.0968 10.1835V13.215H37.2903V5.53761C37.2903 5.02871 36.9404 4.58671 36.4447 4.47045C35.9533 4.352 35.4389 4.59219 35.2119 5.04736L34 7.47232L32.788 5.04736C32.561 4.59219 32.0466 4.3531 31.5553 4.47045C31.0595 4.58671 30.7097 5.02871 30.7097 5.53761V13.215H32.9032V10.1835Z" fill="#FF6F00"/>
<path d="M41.6774 11.0216H43.871V13.2151H46.0645V7.73124C46.0645 5.91718 44.5883 4.44092 42.7742 4.44092C40.9601 4.44092 39.4839 5.91718 39.4839 7.73124V13.2151H41.6774V11.0216ZM42.7742 6.63447C43.3796 6.63447 43.871 7.12692 43.871 7.73124V8.82801H41.6774V7.73124C41.6774 7.12692 42.1688 6.63447 42.7742 6.63447Z" fill="#FF6F00"/>
<path d="M49.3548 13.2151H52.6452V11.0216H50.4516V4.44092H48.2581V12.1183C48.2581 12.7238 48.7483 13.2151 49.3548 13.2151Z" fill="#FF6F00"/>
<path d="M55.9355 13.2151H59.2258V11.0216H57.0322V4.44092H54.8387V12.1183C54.8387 12.7238 55.3289 13.2151 55.9355 13.2151Z" fill="#FF6F00"/>
<path d="M47.1613 30.7634H60.3226C60.9291 30.7634 61.4194 30.272 61.4194 29.6666V20.8924C61.4194 20.287 60.9291 19.7957 60.3226 19.7957H47.1613C46.5548 19.7957 46.0645 20.287 46.0645 20.8924V29.6666C46.0645 30.272 46.5548 30.7634 47.1613 30.7634ZM59.2258 28.5698H54.8387V21.9892H59.2258V28.5698ZM48.2581 21.9892H52.6452V28.5698H48.2581V21.9892Z" fill="#FF6F00"/>
<path d="M47.1613 43.9248H60.3226C60.9291 43.9248 61.4194 43.4334 61.4194 42.828V34.0538C61.4194 33.4484 60.9291 32.957 60.3226 32.957H47.1613C46.5548 32.957 46.0645 33.4484 46.0645 34.0538V42.828C46.0645 43.4334 46.5548 43.9248 47.1613 43.9248ZM59.2258 41.7312H54.8387V35.1506H59.2258V41.7312ZM48.2581 35.1506H52.6452V41.7312H48.2581V35.1506Z" fill="#FF6F00"/>
</svg>
