<svg width="59" height="60" viewBox="0 0 59 60" fill="none" xmlns="http://www.w3.org/2000/svg">
<path d="M58.0161 34.4711H55.0002L53.0995 6.87106C53.0639 6.35431 52.6343 5.95387 52.1161 5.95459H46.2161C45.6979 5.95387 45.2683 6.35431 45.2326 6.87106L43.332 34.4711H41.2999V28.5711C41.2999 28.0284 40.8595 27.5876 40.3168 27.5876C40.0928 27.5873 39.876 27.6636 39.7018 27.8033L31.4665 34.3915V28.5711C31.4665 28.0284 31.0264 27.5876 30.4834 27.5876C30.2598 27.5873 30.043 27.6636 29.8687 27.8033L21.6334 34.3915V28.5711C21.6334 28.0284 21.1934 27.5876 20.6503 27.5876C20.4267 27.5873 20.2095 27.6636 20.0356 27.8033L11.8003 34.3915V28.5711C11.8 28.0284 11.3596 27.588 10.8169 27.588C10.6379 27.588 10.4633 27.6366 10.3102 27.7284L0.476781 33.6284C0.181134 33.8063 0 34.1257 0 34.4711V58.071C0 58.6141 0.44041 59.0541 0.983451 59.0541H58.0161C58.5591 59.0541 58.9995 58.6141 58.9995 58.071V35.4545C58.9995 34.9111 58.5591 34.4711 58.0161 34.4711ZM47.1344 7.92113H51.1978L53.0293 34.4711H45.3029L47.1344 7.92113ZM33.4327 57.0876V45.2876H39.3326V57.0876H33.4327ZM57.033 57.0876H41.2999V44.3041C41.2999 43.7615 40.8591 43.3211 40.3161 43.3211H32.4496C31.9065 43.3211 31.4661 43.7615 31.4661 44.3041V57.0876H1.96654V35.0278L9.83307 30.3079V36.4376C9.83307 36.981 10.2731 37.4211 10.8162 37.4218C11.0394 37.4218 11.2566 37.3454 11.4312 37.2057L19.6665 30.6176V36.4376C19.6665 36.981 20.1062 37.4211 20.6496 37.4218C20.8729 37.4218 21.0896 37.3454 21.2643 37.2061L29.4996 30.6179V36.438C29.4996 36.981 29.9393 37.4218 30.4827 37.4218C30.7059 37.4218 30.9227 37.3454 31.0974 37.2061L39.3326 30.6179V35.4545C39.3326 35.9979 39.7731 36.438 40.3161 36.438H57.0322V57.0876H57.033Z" fill="#FF6F00"/>
<path d="M33.4261 2.02111C33.7837 2.21269 34.1067 2.4626 34.3822 2.76041C34.9335 3.43273 35.7186 3.87062 36.5796 3.98765C37.4867 3.87206 38.3149 3.41508 38.8965 2.70927C39.1454 2.4482 39.4237 2.21737 39.7266 2.02111C39.9289 2.03011 40.459 2.52634 40.7442 2.79282C41.2747 3.44929 42.0366 3.87674 42.8728 3.98765C43.8386 3.86522 44.7212 3.38087 45.3431 2.63257C45.5841 2.40642 45.9488 2.06324 46.0194 2.02111C46.5473 2.02111 46.6683 2.19612 46.9932 2.66426C47.4199 3.47054 48.2539 3.97865 49.1664 3.98765C49.7091 3.98765 50.1495 3.54724 50.1495 3.00456C50.1495 2.46116 49.7091 2.02111 49.1664 2.02111C48.9694 2.02111 48.9312 2.00743 48.6118 1.54613C48.0897 0.608052 47.0925 0.0344018 46.0194 0.0542078C45.224 0.16476 44.5001 0.573842 43.996 1.19899C43.6694 1.50688 43.122 2.02111 42.9142 2.02579C42.6096 1.84142 42.3316 1.61671 42.086 1.35851C41.4947 0.638301 40.6506 0.171963 39.7262 0.0542078C38.8738 0.170522 38.0974 0.604811 37.5519 1.26957C37.276 1.56558 36.9573 1.81873 36.607 2.02111C36.2793 1.83313 35.9811 1.59835 35.7222 1.32286C35.1474 0.624977 34.3293 0.171963 33.4326 0.0542078C32.8899 0.0524072 32.4477 0.491017 32.4459 1.03442C32.4441 1.5771 32.8831 2.01931 33.4261 2.02111Z" fill="#FF6F00"/>
<path d="M10.8169 45.2874H6.88312C6.34007 45.2874 5.90002 45.7278 5.90002 46.2704V52.1704C5.90002 52.7138 6.34007 53.1539 6.88312 53.1539H10.8169C11.3596 53.1539 11.8 52.7138 11.8 52.1704V46.2704C11.8 45.7278 11.3596 45.2874 10.8169 45.2874ZM9.83311 51.1873H7.86657V47.2543H9.83311V51.1873Z" fill="#FF6F00"/>
<path d="M18.6835 45.2874H14.7501C14.2067 45.2874 13.7666 45.7278 13.7666 46.2704V52.1704C13.7666 52.7138 14.2067 53.1539 14.7501 53.1539H18.6835C19.2262 53.1539 19.6666 52.7138 19.6666 52.1704V46.2704C19.6666 45.7278 19.2262 45.2874 18.6835 45.2874ZM17.6997 51.1873H15.7331V47.2543H17.6997V51.1873Z" fill="#FF6F00"/>
<path d="M26.55 45.2874H22.6165C22.0731 45.2874 21.6331 45.7278 21.6331 46.2704V52.1704C21.6331 52.7138 22.0731 53.1539 22.6165 53.1539H26.55C27.0926 53.1539 27.533 52.7138 27.533 52.1704V46.2704C27.533 45.7278 27.0926 45.2874 26.55 45.2874ZM25.5661 51.1873H23.5996V47.2543H25.5661V51.1873Z" fill="#FF6F00"/>
</svg>
