<svg width="50" height="42" viewBox="0 0 50 42" fill="none" xmlns="http://www.w3.org/2000/svg">
<path d="M44.8605 11.0073C44.8923 11.4514 44.8923 11.8956 44.8923 12.3398C44.8923 25.8867 34.5814 41.496 15.7361 41.496C9.93021 41.496 4.53683 39.8144 0 36.8957C0.824906 36.9909 1.61798 37.0226 2.47462 37.0226C7.26517 37.0226 11.6751 35.4046 15.1967 32.6445C10.6916 32.5492 6.91624 29.5987 5.61545 25.5378C6.25002 25.6329 6.8845 25.6964 7.55081 25.6964C8.47083 25.6964 9.39096 25.5694 10.2475 25.3475C5.55207 24.3956 2.03038 20.2713 2.03038 15.2903V15.1634C3.39454 15.9249 4.98098 16.4007 6.66233 16.4641C3.90216 14.624 2.09386 11.4831 2.09386 7.92981C2.09386 6.02629 2.60138 4.28136 3.48976 2.7585C8.53421 8.97679 16.1168 13.0376 24.6192 13.4819C24.4606 12.7205 24.3654 11.9274 24.3654 11.1342C24.3654 5.48693 28.934 0.886719 34.6129 0.886719C37.5634 0.886719 40.2284 2.12403 42.1003 4.12277C44.4162 3.67862 46.637 2.82198 48.6041 1.64815C47.8426 4.02765 46.2246 6.02639 44.099 7.29534C46.1612 7.07336 48.16 6.50217 50 5.7091C48.6043 7.73948 46.8593 9.54779 44.8605 11.0073V11.0073Z" fill="#FF6F00"/>
</svg>
